<?xml version="1.0" encoding="UTF-8" standalone="no"?>
<!DOCTYPE svg PUBLIC "-//W3C//DTD SVG 1.1//EN"
 "http://www.w3.org/Graphics/SVG/1.1/DTD/svg11.dtd">
<!-- Generated by graphviz version 2.40.1 (20161225.0304)
 -->
<!-- Title: G Pages: 1 -->
<svg width="1798pt" height="846pt"
 viewBox="0.00 0.00 1798.20 846.04" xmlns="http://www.w3.org/2000/svg" xmlns:xlink="http://www.w3.org/1999/xlink">
<g id="graph0" class="graph" transform="scale(1 1) rotate(0) translate(21.6 824.4437)">
<title>G</title>
<polygon fill="#111111" stroke="transparent" points="-21.6,21.6 -21.6,-824.4437 1776.6,-824.4437 1776.6,21.6 -21.6,21.6"/>
<!-- aclModel.js -->
<g id="node1" class="node">
<title>aclModel.js</title>
<path fill="none" stroke="#cfffac" d="M822.3333,-577.3437C822.3333,-577.3437 748.6667,-577.3437 748.6667,-577.3437 744.8333,-577.3437 741,-573.5103 741,-569.677 741,-569.677 741,-562.0103 741,-562.0103 741,-558.177 744.8333,-554.3437 748.6667,-554.3437 748.6667,-554.3437 822.3333,-554.3437 822.3333,-554.3437 826.1667,-554.3437 830,-558.177 830,-562.0103 830,-562.0103 830,-569.677 830,-569.677 830,-573.5103 826.1667,-577.3437 822.3333,-577.3437"/>
<text text-anchor="middle" x="785.5" y="-562.1437" font-family="Arial" font-size="14.00" fill="#cfffac">aclModel.js</text>
</g>
<!-- actionModel.js -->
<g id="node2" class="node">
<title>actionModel.js</title>
<path fill="none" stroke="#cfffac" d="M1378.8333,-172.3437C1378.8333,-172.3437 1284.1667,-172.3437 1284.1667,-172.3437 1280.3333,-172.3437 1276.5,-168.5103 1276.5,-164.677 1276.5,-164.677 1276.5,-157.0103 1276.5,-157.0103 1276.5,-153.177 1280.3333,-149.3437 1284.1667,-149.3437 1284.1667,-149.3437 1378.8333,-149.3437 1378.8333,-149.3437 1382.6667,-149.3437 1386.5,-153.177 1386.5,-157.0103 1386.5,-157.0103 1386.5,-164.677 1386.5,-164.677 1386.5,-168.5103 1382.6667,-172.3437 1378.8333,-172.3437"/>
<text text-anchor="middle" x="1331.5" y="-157.1437" font-family="Arial" font-size="14.00" fill="#cfffac">actionModel.js</text>
</g>
<!-- addressModel.js -->
<g id="node3" class="node">
<title>addressModel.js</title>
<path fill="none" stroke="#c6c5fe" d="M1567.3333,-269.3437C1567.3333,-269.3437 1459.6667,-269.3437 1459.6667,-269.3437 1455.8333,-269.3437 1452,-265.5103 1452,-261.677 1452,-261.677 1452,-254.0103 1452,-254.0103 1452,-250.177 1455.8333,-246.3437 1459.6667,-246.3437 1459.6667,-246.3437 1567.3333,-246.3437 1567.3333,-246.3437 1571.1667,-246.3437 1575,-250.177 1575,-254.0103 1575,-254.0103 1575,-261.677 1575,-261.677 1575,-265.5103 1571.1667,-269.3437 1567.3333,-269.3437"/>
<text text-anchor="middle" x="1513.5" y="-254.1437" font-family="Arial" font-size="14.00" fill="#c6c5fe">addressModel.js</text>
</g>
<!-- integrityModel.js -->
<g id="node4" class="node">
<title>integrityModel.js</title>
<path fill="none" stroke="#cfffac" d="M1740.8333,-457.3437C1740.8333,-457.3437 1635.1667,-457.3437 1635.1667,-457.3437 1631.3333,-457.3437 1627.5,-453.5103 1627.5,-449.677 1627.5,-449.677 1627.5,-442.0103 1627.5,-442.0103 1627.5,-438.177 1631.3333,-434.3437 1635.1667,-434.3437 1635.1667,-434.3437 1740.8333,-434.3437 1740.8333,-434.3437 1744.6667,-434.3437 1748.5,-438.177 1748.5,-442.0103 1748.5,-442.0103 1748.5,-449.677 1748.5,-449.677 1748.5,-453.5103 1744.6667,-457.3437 1740.8333,-457.3437"/>
<text text-anchor="middle" x="1688" y="-442.1437" font-family="Arial" font-size="14.00" fill="#cfffac">integrityModel.js</text>
</g>
<!-- addressModel.js&#45;&gt;integrityModel.js -->
<g id="edge1" class="edge">
<title>addressModel.js&#45;&gt;integrityModel.js</title>
<path fill="none" stroke="#757575" d="M1524.4158,-269.6039C1553.6726,-301.1241 1634.061,-387.7317 1670.1045,-426.5637"/>
<polygon fill="#757575" stroke="#757575" points="1667.7201,-429.1396 1677.0884,-434.0879 1672.8506,-424.3775 1667.7201,-429.1396"/>
</g>
<!-- binaryModel.js -->
<g id="node5" class="node">
<title>binaryModel.js</title>
<path fill="none" stroke="#c6c5fe" d="M1010.8333,-497.3437C1010.8333,-497.3437 916.1667,-497.3437 916.1667,-497.3437 912.3333,-497.3437 908.5,-493.5103 908.5,-489.677 908.5,-489.677 908.5,-482.0103 908.5,-482.0103 908.5,-478.177 912.3333,-474.3437 916.1667,-474.3437 916.1667,-474.3437 1010.8333,-474.3437 1010.8333,-474.3437 1014.6667,-474.3437 1018.5,-478.177 1018.5,-482.0103 1018.5,-482.0103 1018.5,-489.677 1018.5,-489.677 1018.5,-493.5103 1014.6667,-497.3437 1010.8333,-497.3437"/>
<text text-anchor="middle" x="963.5" y="-482.1437" font-family="Arial" font-size="14.00" fill="#c6c5fe">binaryModel.js</text>
</g>
<!-- binaryModel.js&#45;&gt;integrityModel.js -->
<g id="edge2" class="edge">
<title>binaryModel.js&#45;&gt;integrityModel.js</title>
<path fill="none" stroke="#757575" d="M1018.6006,-487.2996C1127.326,-489.4798 1376.9812,-491.0498 1585,-466.8437 1599.7286,-465.1298 1615.4834,-462.3884 1630.1293,-459.4445"/>
<polygon fill="#757575" stroke="#757575" points="1630.9844,-462.8417 1640.0654,-457.3841 1629.563,-455.9875 1630.9844,-462.8417"/>
</g>
<!-- blockModel.js -->
<g id="node6" class="node">
<title>blockModel.js</title>
<path fill="none" stroke="#c6c5fe" d="M539.3333,-385.3437C539.3333,-385.3437 449.6667,-385.3437 449.6667,-385.3437 445.8333,-385.3437 442,-381.5103 442,-377.677 442,-377.677 442,-370.0103 442,-370.0103 442,-366.177 445.8333,-362.3437 449.6667,-362.3437 449.6667,-362.3437 539.3333,-362.3437 539.3333,-362.3437 543.1667,-362.3437 547,-366.177 547,-370.0103 547,-370.0103 547,-377.677 547,-377.677 547,-381.5103 543.1667,-385.3437 539.3333,-385.3437"/>
<text text-anchor="middle" x="494.5" y="-370.1437" font-family="Arial" font-size="14.00" fill="#c6c5fe">blockModel.js</text>
</g>
<!-- blockModel.js&#45;&gt;integrityModel.js -->
<g id="edge4" class="edge">
<title>blockModel.js&#45;&gt;integrityModel.js</title>
<path fill="none" stroke="#757575" d="M502.1799,-362.3122C542.4274,-303.4058 735.8595,-38.8437 963.5,-38.8437 963.5,-38.8437 963.5,-38.8437 1331.5,-38.8437 1538.4743,-38.8437 1653.2619,-340.3582 1681.2237,-424.354"/>
<polygon fill="#757575" stroke="#757575" points="1677.9741,-425.6787 1684.4006,-434.1019 1684.6296,-423.5095 1677.9741,-425.6787"/>
</g>
<!-- dmzModel.js -->
<g id="node7" class="node">
<title>dmzModel.js</title>
<path fill="none" stroke="#ff6c60" d="M673.3333,-499.3437C673.3333,-499.3437 590.6667,-499.3437 590.6667,-499.3437 586.8333,-499.3437 583,-495.5103 583,-491.677 583,-491.677 583,-484.0103 583,-484.0103 583,-480.177 586.8333,-476.3437 590.6667,-476.3437 590.6667,-476.3437 673.3333,-476.3437 673.3333,-476.3437 677.1667,-476.3437 681,-480.177 681,-484.0103 681,-484.0103 681,-491.677 681,-491.677 681,-495.5103 677.1667,-499.3437 673.3333,-499.3437"/>
<text text-anchor="middle" x="632" y="-484.1437" font-family="Arial" font-size="14.00" fill="#ff6c60">dmzModel.js</text>
</g>
<!-- blockModel.js&#45;&gt;dmzModel.js -->
<g id="edge3" class="edge">
<title>blockModel.js&#45;&gt;dmzModel.js</title>
<path fill="none" stroke="#757575" d="M508.4409,-385.402C532.4271,-405.2887 581.6716,-446.1169 610.2178,-469.7843"/>
<polygon fill="#757575" stroke="#757575" points="608.09,-472.5666 618.0222,-476.2548 612.5578,-467.1778 608.09,-472.5666"/>
</g>
<!-- keypairModel.js -->
<g id="node8" class="node">
<title>keypairModel.js</title>
<path fill="none" stroke="#c6c5fe" d="M1382.8333,-658.3437C1382.8333,-658.3437 1280.1667,-658.3437 1280.1667,-658.3437 1276.3333,-658.3437 1272.5,-654.5103 1272.5,-650.677 1272.5,-650.677 1272.5,-643.0103 1272.5,-643.0103 1272.5,-639.177 1276.3333,-635.3437 1280.1667,-635.3437 1280.1667,-635.3437 1382.8333,-635.3437 1382.8333,-635.3437 1386.6667,-635.3437 1390.5,-639.177 1390.5,-643.0103 1390.5,-643.0103 1390.5,-650.677 1390.5,-650.677 1390.5,-654.5103 1386.6667,-658.3437 1382.8333,-658.3437"/>
<text text-anchor="middle" x="1331.5" y="-643.1437" font-family="Arial" font-size="14.00" fill="#c6c5fe">keypairModel.js</text>
</g>
<!-- blockModel.js&#45;&gt;keypairModel.js -->
<g id="edge5" class="edge">
<title>blockModel.js&#45;&gt;keypairModel.js</title>
<path fill="none" stroke="#757575" d="M496.9662,-385.5455C511.4225,-450.6031 591.3002,-764.8437 785.5,-764.8437 785.5,-764.8437 785.5,-764.8437 963.5,-764.8437 1080.7148,-764.8437 1111.3456,-749.2589 1221,-707.8437 1251.4932,-696.3267 1283.8575,-677.5986 1305.6232,-663.9279"/>
<polygon fill="#757575" stroke="#757575" points="1307.7178,-666.7433 1314.2661,-658.4145 1303.9531,-660.8419 1307.7178,-666.7433"/>
</g>
<!-- provenanceModel.js -->
<g id="node9" class="node">
<title>provenanceModel.js</title>
<path fill="none" stroke="#ff6c60" d="M1213.3333,-366.3437C1213.3333,-366.3437 1080.6667,-366.3437 1080.6667,-366.3437 1076.8333,-366.3437 1073,-362.5103 1073,-358.677 1073,-358.677 1073,-351.0103 1073,-351.0103 1073,-347.177 1076.8333,-343.3437 1080.6667,-343.3437 1080.6667,-343.3437 1213.3333,-343.3437 1213.3333,-343.3437 1217.1667,-343.3437 1221,-347.177 1221,-351.0103 1221,-351.0103 1221,-358.677 1221,-358.677 1221,-362.5103 1217.1667,-366.3437 1213.3333,-366.3437"/>
<text text-anchor="middle" x="1147" y="-351.1437" font-family="Arial" font-size="14.00" fill="#ff6c60">provenanceModel.js</text>
</g>
<!-- blockModel.js&#45;&gt;provenanceModel.js -->
<g id="edge6" class="edge">
<title>blockModel.js&#45;&gt;provenanceModel.js</title>
<path fill="none" stroke="#757575" d="M547.0932,-371.799C592.1756,-370.0831 658.8541,-367.6327 717,-365.8437 837.084,-362.149 976.059,-358.7538 1062.7561,-356.7408"/>
<polygon fill="#757575" stroke="#757575" points="1062.8876,-360.2388 1072.8039,-356.5083 1062.7256,-353.2407 1062.8876,-360.2388"/>
</g>
<!-- dmzModel.js&#45;&gt;aclModel.js -->
<g id="edge12" class="edge">
<title>dmzModel.js&#45;&gt;aclModel.js</title>
<path fill="none" stroke="#757575" d="M648.7253,-499.3672C665.4951,-510.6072 692.3033,-527.7337 717,-539.8437 724.7984,-543.6676 733.31,-547.3013 741.5995,-550.5743"/>
<polygon fill="#757575" stroke="#757575" points="740.5823,-553.9326 751.1726,-554.2406 743.0858,-547.3956 740.5823,-553.9326"/>
</g>
<!-- dmzModel.js&#45;&gt;integrityModel.js -->
<g id="edge16" class="edge">
<title>dmzModel.js&#45;&gt;integrityModel.js</title>
<path fill="none" stroke="#757575" d="M681.2217,-497.0424C745.7826,-508.2886 862.7036,-525.8437 963.5,-525.8437 963.5,-525.8437 963.5,-525.8437 1331.5,-525.8437 1445.4922,-525.8437 1475.0091,-516.7807 1585,-486.8437 1608.7796,-480.3714 1634.5397,-470.1163 1654.3499,-461.4818"/>
<polygon fill="#757575" stroke="#757575" points="1655.8394,-464.65 1663.5622,-457.3969 1653.0018,-458.2509 1655.8394,-464.65"/>
</g>
<!-- dmzModel.js&#45;&gt;binaryModel.js -->
<g id="edge13" class="edge">
<title>dmzModel.js&#45;&gt;binaryModel.js</title>
<path fill="none" stroke="#757575" d="M681.2709,-487.5464C738.8478,-487.199 834.3419,-486.6229 898.0883,-486.2383"/>
<polygon fill="#757575" stroke="#757575" points="898.4487,-489.7363 908.4274,-486.1759 898.4064,-482.7364 898.4487,-489.7363"/>
</g>
<!-- dmzModel.js&#45;&gt;keypairModel.js -->
<g id="edge17" class="edge">
<title>dmzModel.js&#45;&gt;keypairModel.js</title>
<path fill="none" stroke="#757575" d="M635.0099,-499.6215C642.9066,-527.7699 667.1393,-598.7615 717,-627.8437 807.6218,-680.7004 1121.4136,-663.5841 1262.1982,-652.7908"/>
<polygon fill="#757575" stroke="#757575" points="1262.7383,-656.2594 1272.4363,-651.9936 1262.1948,-649.2806 1262.7383,-656.2594"/>
</g>
<!-- configModel.js -->
<g id="node13" class="node">
<title>configModel.js</title>
<path fill="none" stroke="#cfffac" d="M832.8333,-421.3437C832.8333,-421.3437 738.1667,-421.3437 738.1667,-421.3437 734.3333,-421.3437 730.5,-417.5103 730.5,-413.677 730.5,-413.677 730.5,-406.0103 730.5,-406.0103 730.5,-402.177 734.3333,-398.3437 738.1667,-398.3437 738.1667,-398.3437 832.8333,-398.3437 832.8333,-398.3437 836.6667,-398.3437 840.5,-402.177 840.5,-406.0103 840.5,-406.0103 840.5,-413.677 840.5,-413.677 840.5,-417.5103 836.6667,-421.3437 832.8333,-421.3437"/>
<text text-anchor="middle" x="785.5" y="-406.1437" font-family="Arial" font-size="14.00" fill="#cfffac">configModel.js</text>
</g>
<!-- dmzModel.js&#45;&gt;configModel.js -->
<g id="edge14" class="edge">
<title>dmzModel.js&#45;&gt;configModel.js</title>
<path fill="none" stroke="#757575" d="M648.7253,-476.3202C665.4951,-465.0801 692.3033,-447.9536 717,-435.8437 724.7984,-432.0197 733.31,-428.386 741.5995,-425.113"/>
<polygon fill="#757575" stroke="#757575" points="743.0858,-428.2918 751.1726,-421.4468 740.5823,-421.7548 743.0858,-428.2918"/>
</g>
<!-- covenantIdModel.js -->
<g id="node14" class="node">
<title>covenantIdModel.js</title>
<path fill="none" stroke="#c6c5fe" d="M1577.3333,-457.3437C1577.3333,-457.3437 1449.6667,-457.3437 1449.6667,-457.3437 1445.8333,-457.3437 1442,-453.5103 1442,-449.677 1442,-449.677 1442,-442.0103 1442,-442.0103 1442,-438.177 1445.8333,-434.3437 1449.6667,-434.3437 1449.6667,-434.3437 1577.3333,-434.3437 1577.3333,-434.3437 1581.1667,-434.3437 1585,-438.177 1585,-442.0103 1585,-442.0103 1585,-449.677 1585,-449.677 1585,-453.5103 1581.1667,-457.3437 1577.3333,-457.3437"/>
<text text-anchor="middle" x="1513.5" y="-442.1437" font-family="Arial" font-size="14.00" fill="#c6c5fe">covenantIdModel.js</text>
</g>
<!-- dmzModel.js&#45;&gt;covenantIdModel.js -->
<g id="edge15" class="edge">
<title>dmzModel.js&#45;&gt;covenantIdModel.js</title>
<path fill="none" stroke="#757575" d="M681.4043,-482.8476C733.2937,-477.784 817.299,-470.1063 890,-465.8437 1084.0884,-454.4637 1312.5708,-449.2092 1431.7692,-447.0852"/>
<polygon fill="#757575" stroke="#757575" points="1431.9725,-450.5823 1441.9095,-446.9074 1431.8497,-443.5834 1431.9725,-450.5823"/>
</g>
<!-- networkModel.js -->
<g id="node15" class="node">
<title>networkModel.js</title>
<path fill="none" stroke="#ff6c60" d="M1016.8333,-208.3437C1016.8333,-208.3437 910.1667,-208.3437 910.1667,-208.3437 906.3333,-208.3437 902.5,-204.5103 902.5,-200.677 902.5,-200.677 902.5,-193.0103 902.5,-193.0103 902.5,-189.177 906.3333,-185.3437 910.1667,-185.3437 910.1667,-185.3437 1016.8333,-185.3437 1016.8333,-185.3437 1020.6667,-185.3437 1024.5,-189.177 1024.5,-193.0103 1024.5,-193.0103 1024.5,-200.677 1024.5,-200.677 1024.5,-204.5103 1020.6667,-208.3437 1016.8333,-208.3437"/>
<text text-anchor="middle" x="963.5" y="-193.1437" font-family="Arial" font-size="14.00" fill="#ff6c60">networkModel.js</text>
</g>
<!-- dmzModel.js&#45;&gt;networkModel.js -->
<g id="edge18" class="edge">
<title>dmzModel.js&#45;&gt;networkModel.js</title>
<path fill="none" stroke="#757575" d="M634.02,-476.2747C642.3793,-429.7864 675.7693,-257.4729 717,-223.8437 765.4224,-184.3486 838.1762,-180.9595 892.105,-185.4301"/>
<polygon fill="#757575" stroke="#757575" points="892.0027,-188.9358 902.2858,-186.3849 892.6563,-181.9664 892.0027,-188.9358"/>
</g>
<!-- pendingModel.js -->
<g id="node16" class="node">
<title>pendingModel.js</title>
<path fill="none" stroke="#c6c5fe" d="M839.3333,-256.3437C839.3333,-256.3437 731.6667,-256.3437 731.6667,-256.3437 727.8333,-256.3437 724,-252.5103 724,-248.677 724,-248.677 724,-241.0103 724,-241.0103 724,-237.177 727.8333,-233.3437 731.6667,-233.3437 731.6667,-233.3437 839.3333,-233.3437 839.3333,-233.3437 843.1667,-233.3437 847,-237.177 847,-241.0103 847,-241.0103 847,-248.677 847,-248.677 847,-252.5103 843.1667,-256.3437 839.3333,-256.3437"/>
<text text-anchor="middle" x="785.5" y="-241.1437" font-family="Arial" font-size="14.00" fill="#c6c5fe">pendingModel.js</text>
</g>
<!-- dmzModel.js&#45;&gt;pendingModel.js -->
<g id="edge19" class="edge">
<title>dmzModel.js&#45;&gt;pendingModel.js</title>
<path fill="none" stroke="#757575" d="M639.4036,-476.1233C663.821,-437.4691 741.9962,-313.7129 772.8267,-264.9063"/>
<polygon fill="#757575" stroke="#757575" points="775.7891,-266.7702 778.1707,-256.4465 769.871,-263.0317 775.7891,-266.7702"/>
</g>
<!-- stateModel.js -->
<g id="node17" class="node">
<title>stateModel.js</title>
<path fill="none" stroke="#cfffac" d="M828.8333,-618.3437C828.8333,-618.3437 742.1667,-618.3437 742.1667,-618.3437 738.3333,-618.3437 734.5,-614.5103 734.5,-610.677 734.5,-610.677 734.5,-603.0103 734.5,-603.0103 734.5,-599.177 738.3333,-595.3437 742.1667,-595.3437 742.1667,-595.3437 828.8333,-595.3437 828.8333,-595.3437 832.6667,-595.3437 836.5,-599.177 836.5,-603.0103 836.5,-603.0103 836.5,-610.677 836.5,-610.677 836.5,-614.5103 832.6667,-618.3437 828.8333,-618.3437"/>
<text text-anchor="middle" x="785.5" y="-603.1437" font-family="Arial" font-size="14.00" fill="#cfffac">stateModel.js</text>
</g>
<!-- dmzModel.js&#45;&gt;stateModel.js -->
<g id="edge20" class="edge">
<title>dmzModel.js&#45;&gt;stateModel.js</title>
<path fill="none" stroke="#757575" d="M638.8229,-499.5405C651.5263,-520.2836 680.8263,-563.5191 717,-586.8437 719.5721,-588.5021 722.2857,-590.0268 725.0894,-591.428"/>
<polygon fill="#757575" stroke="#757575" points="723.7269,-594.6523 734.2881,-595.4955 726.5578,-588.2503 723.7269,-594.6523"/>
</g>
<!-- timestampModel.js -->
<g id="node18" class="node">
<title>timestampModel.js</title>
<path fill="none" stroke="#cfffac" d="M846.3333,-736.3437C846.3333,-736.3437 724.6667,-736.3437 724.6667,-736.3437 720.8333,-736.3437 717,-732.5103 717,-728.677 717,-728.677 717,-721.0103 717,-721.0103 717,-717.177 720.8333,-713.3437 724.6667,-713.3437 724.6667,-713.3437 846.3333,-713.3437 846.3333,-713.3437 850.1667,-713.3437 854,-717.177 854,-721.0103 854,-721.0103 854,-728.677 854,-728.677 854,-732.5103 850.1667,-736.3437 846.3333,-736.3437"/>
<text text-anchor="middle" x="785.5" y="-721.1437" font-family="Arial" font-size="14.00" fill="#cfffac">timestampModel.js</text>
</g>
<!-- dmzModel.js&#45;&gt;timestampModel.js -->
<g id="edge21" class="edge">
<title>dmzModel.js&#45;&gt;timestampModel.js</title>
<path fill="none" stroke="#757575" d="M633.4045,-499.4544C638.2427,-534.4984 657.3443,-640.3805 717,-698.8437 720.9179,-702.6832 725.4596,-705.967 730.3039,-708.7733"/>
<polygon fill="#757575" stroke="#757575" points="728.7791,-711.9243 739.2809,-713.3258 731.9452,-705.6812 728.7791,-711.9243"/>
</g>
<!-- validatorsModel.js -->
<g id="node19" class="node">
<title>validatorsModel.js</title>
<path fill="none" stroke="#c6c5fe" d="M1205.8333,-698.3437C1205.8333,-698.3437 1088.1667,-698.3437 1088.1667,-698.3437 1084.3333,-698.3437 1080.5,-694.5103 1080.5,-690.677 1080.5,-690.677 1080.5,-683.0103 1080.5,-683.0103 1080.5,-679.177 1084.3333,-675.3437 1088.1667,-675.3437 1088.1667,-675.3437 1205.8333,-675.3437 1205.8333,-675.3437 1209.6667,-675.3437 1213.5,-679.177 1213.5,-683.0103 1213.5,-683.0103 1213.5,-690.677 1213.5,-690.677 1213.5,-694.5103 1209.6667,-698.3437 1205.8333,-698.3437"/>
<text text-anchor="middle" x="1147" y="-683.1437" font-family="Arial" font-size="14.00" fill="#c6c5fe">validatorsModel.js</text>
</g>
<!-- dmzModel.js&#45;&gt;validatorsModel.js -->
<g id="edge22" class="edge">
<title>dmzModel.js&#45;&gt;validatorsModel.js</title>
<path fill="none" stroke="#757575" d="M633.7329,-499.7414C639.1576,-532.1742 659.0557,-622.2771 717,-660.8437 772.9411,-698.077 962.2296,-695.849 1070.0897,-691.2136"/>
<polygon fill="#757575" stroke="#757575" points="1070.4326,-694.7019 1080.2663,-690.7588 1070.12,-687.7089 1070.4326,-694.7019"/>
</g>
<!-- keypairModel.js&#45;&gt;integrityModel.js -->
<g id="edge30" class="edge">
<title>keypairModel.js&#45;&gt;integrityModel.js</title>
<path fill="none" stroke="#757575" d="M1350.9707,-635.1647C1372.6707,-622.4552 1409.05,-602.0527 1442,-587.8437 1503.5604,-561.2969 1527.218,-573.8387 1585,-539.8437 1619.4467,-519.5776 1652.2992,-486.3591 1671.2888,-465.3211"/>
<polygon fill="#757575" stroke="#757575" points="1674.0774,-467.4516 1678.0896,-457.6459 1668.8381,-462.8094 1674.0774,-467.4516"/>
</g>
<!-- publicKeyModel.js -->
<g id="node22" class="node">
<title>publicKeyModel.js</title>
<path fill="none" stroke="#cfffac" d="M1747.3333,-659.3437C1747.3333,-659.3437 1628.6667,-659.3437 1628.6667,-659.3437 1624.8333,-659.3437 1621,-655.5103 1621,-651.677 1621,-651.677 1621,-644.0103 1621,-644.0103 1621,-640.177 1624.8333,-636.3437 1628.6667,-636.3437 1628.6667,-636.3437 1747.3333,-636.3437 1747.3333,-636.3437 1751.1667,-636.3437 1755,-640.177 1755,-644.0103 1755,-644.0103 1755,-651.677 1755,-651.677 1755,-655.5103 1751.1667,-659.3437 1747.3333,-659.3437"/>
<text text-anchor="middle" x="1688" y="-644.1437" font-family="Arial" font-size="14.00" fill="#cfffac">publicKeyModel.js</text>
</g>
<!-- keypairModel.js&#45;&gt;publicKeyModel.js -->
<g id="edge31" class="edge">
<title>keypairModel.js&#45;&gt;publicKeyModel.js</title>
<path fill="none" stroke="#757575" d="M1390.7689,-647.0099C1451.0032,-647.1789 1544.5969,-647.4414 1610.6401,-647.6267"/>
<polygon fill="#757575" stroke="#757575" points="1610.9839,-651.1275 1620.9937,-647.6557 1611.0036,-644.1276 1610.9839,-651.1275"/>
</g>
<!-- signatureModel.js -->
<g id="node23" class="node">
<title>signatureModel.js</title>
<path fill="none" stroke="#c6c5fe" d="M1571.3333,-619.3437C1571.3333,-619.3437 1455.6667,-619.3437 1455.6667,-619.3437 1451.8333,-619.3437 1448,-615.5103 1448,-611.677 1448,-611.677 1448,-604.0103 1448,-604.0103 1448,-600.177 1451.8333,-596.3437 1455.6667,-596.3437 1455.6667,-596.3437 1571.3333,-596.3437 1571.3333,-596.3437 1575.1667,-596.3437 1579,-600.177 1579,-604.0103 1579,-604.0103 1579,-611.677 1579,-611.677 1579,-615.5103 1575.1667,-619.3437 1571.3333,-619.3437"/>
<text text-anchor="middle" x="1513.5" y="-604.1437" font-family="Arial" font-size="14.00" fill="#c6c5fe">signatureModel.js</text>
</g>
<!-- keypairModel.js&#45;&gt;signatureModel.js -->
<g id="edge32" class="edge">
<title>keypairModel.js&#45;&gt;signatureModel.js</title>
<path fill="none" stroke="#757575" d="M1385.6132,-635.248C1405.6938,-630.945 1428.659,-626.0239 1449.536,-621.5502"/>
<polygon fill="#757575" stroke="#757575" points="1450.5506,-624.9124 1459.5953,-619.3947 1449.0839,-618.0677 1450.5506,-624.9124"/>
</g>
<!-- provenanceModel.js&#45;&gt;addressModel.js -->
<g id="edge43" class="edge">
<title>provenanceModel.js&#45;&gt;addressModel.js</title>
<path fill="none" stroke="#757575" d="M1197.351,-343.2772C1249.698,-331.0476 1333.9079,-310.7995 1406,-290.8437 1426.5086,-285.1667 1449.0415,-278.3414 1468.1568,-272.3749"/>
<polygon fill="#757575" stroke="#757575" points="1469.32,-275.6783 1477.8126,-269.3438 1467.2234,-268.9996 1469.32,-275.6783"/>
</g>
<!-- provenanceModel.js&#45;&gt;integrityModel.js -->
<g id="edge45" class="edge">
<title>provenanceModel.js&#45;&gt;integrityModel.js</title>
<path fill="none" stroke="#757575" d="M1221.1295,-366.1408C1308.3299,-379.5963 1457.3977,-403.1186 1585,-425.8437 1596.3739,-427.8693 1608.434,-430.1188 1620.1421,-432.3569"/>
<polygon fill="#757575" stroke="#757575" points="1619.8331,-435.8615 1630.3144,-434.3148 1621.1562,-428.9877 1619.8331,-435.8615"/>
</g>
<!-- provenanceModel.js&#45;&gt;dmzModel.js -->
<g id="edge44" class="edge">
<title>provenanceModel.js&#45;&gt;dmzModel.js</title>
<path fill="none" stroke="#757575" d="M1072.8105,-364.913C1060.8506,-366.3555 1048.5933,-367.7266 1037,-368.8437 966.0645,-375.6789 780.8271,-358.1471 717,-389.8437 682.9604,-406.7478 656.8632,-443.9489 643.0283,-467.3432"/>
<polygon fill="#757575" stroke="#757575" points="639.9274,-465.7157 638.0195,-476.1374 646.01,-469.1802 639.9274,-465.7157"/>
</g>
<!-- provenanceModel.js&#45;&gt;keypairModel.js -->
<g id="edge46" class="edge">
<title>provenanceModel.js&#45;&gt;keypairModel.js</title>
<path fill="none" stroke="#757575" d="M1154.4611,-366.6521C1182.6294,-411.2328 1282.7259,-569.651 1318.5943,-626.4184"/>
<polygon fill="#757575" stroke="#757575" points="1315.8477,-628.6239 1324.1482,-635.2083 1321.7654,-624.8848 1315.8477,-628.6239"/>
</g>
<!-- channelModel.js -->
<g id="node10" class="node">
<title>channelModel.js</title>
<path fill="none" stroke="#c6c5fe" d="M1200.3333,-170.3437C1200.3333,-170.3437 1093.6667,-170.3437 1093.6667,-170.3437 1089.8333,-170.3437 1086,-166.5103 1086,-162.677 1086,-162.677 1086,-155.0103 1086,-155.0103 1086,-151.177 1089.8333,-147.3437 1093.6667,-147.3437 1093.6667,-147.3437 1200.3333,-147.3437 1200.3333,-147.3437 1204.1667,-147.3437 1208,-151.177 1208,-155.0103 1208,-155.0103 1208,-162.677 1208,-162.677 1208,-166.5103 1204.1667,-170.3437 1200.3333,-170.3437"/>
<text text-anchor="middle" x="1147" y="-155.1437" font-family="Arial" font-size="14.00" fill="#c6c5fe">channelModel.js</text>
</g>
<!-- channelModel.js&#45;&gt;actionModel.js -->
<g id="edge7" class="edge">
<title>channelModel.js&#45;&gt;actionModel.js</title>
<path fill="none" stroke="#757575" d="M1208.1796,-159.5069C1226.8517,-159.7093 1247.4467,-159.9325 1266.3705,-160.1377"/>
<polygon fill="#757575" stroke="#757575" points="1266.3535,-163.6376 1276.3909,-160.2463 1266.4295,-156.638 1266.3535,-163.6376"/>
</g>
<!-- channelModel.js&#45;&gt;addressModel.js -->
<g id="edge8" class="edge">
<title>channelModel.js&#45;&gt;addressModel.js</title>
<path fill="none" stroke="#757575" d="M1195.3978,-170.4358C1247.5677,-183.1039 1332.9559,-204.3384 1406,-224.8437 1426.3278,-230.5502 1448.6657,-237.3246 1467.6876,-243.2463"/>
<polygon fill="#757575" stroke="#757575" points="1466.7154,-246.6094 1477.3043,-246.2551 1468.8056,-239.9287 1466.7154,-246.6094"/>
</g>
<!-- continuationModel.js -->
<g id="node11" class="node">
<title>continuationModel.js</title>
<path fill="none" stroke="#cfffac" d="M1398.3333,-90.3437C1398.3333,-90.3437 1264.6667,-90.3437 1264.6667,-90.3437 1260.8333,-90.3437 1257,-86.5103 1257,-82.677 1257,-82.677 1257,-75.0103 1257,-75.0103 1257,-71.177 1260.8333,-67.3437 1264.6667,-67.3437 1264.6667,-67.3437 1398.3333,-67.3437 1398.3333,-67.3437 1402.1667,-67.3437 1406,-71.177 1406,-75.0103 1406,-75.0103 1406,-82.677 1406,-82.677 1406,-86.5103 1402.1667,-90.3437 1398.3333,-90.3437"/>
<text text-anchor="middle" x="1331.5" y="-75.1437" font-family="Arial" font-size="14.00" fill="#cfffac">continuationModel.js</text>
</g>
<!-- channelModel.js&#45;&gt;continuationModel.js -->
<g id="edge9" class="edge">
<title>channelModel.js&#45;&gt;continuationModel.js</title>
<path fill="none" stroke="#757575" d="M1165.0309,-147.2635C1186.3016,-134.0218 1223.0723,-112.4267 1257,-98.8437 1261.773,-96.9328 1266.7898,-95.1453 1271.8701,-93.4871"/>
<polygon fill="#757575" stroke="#757575" points="1273.1492,-96.7552 1281.6704,-90.4592 1271.0829,-90.0671 1273.1492,-96.7552"/>
</g>
<!-- remoteModel.js -->
<g id="node12" class="node">
<title>remoteModel.js</title>
<path fill="none" stroke="#c6c5fe" d="M1381.8333,-131.3437C1381.8333,-131.3437 1281.1667,-131.3437 1281.1667,-131.3437 1277.3333,-131.3437 1273.5,-127.5103 1273.5,-123.677 1273.5,-123.677 1273.5,-116.0103 1273.5,-116.0103 1273.5,-112.177 1277.3333,-108.3437 1281.1667,-108.3437 1281.1667,-108.3437 1381.8333,-108.3437 1381.8333,-108.3437 1385.6667,-108.3437 1389.5,-112.177 1389.5,-116.0103 1389.5,-116.0103 1389.5,-123.677 1389.5,-123.677 1389.5,-127.5103 1385.6667,-131.3437 1381.8333,-131.3437"/>
<text text-anchor="middle" x="1331.5" y="-116.1437" font-family="Arial" font-size="14.00" fill="#c6c5fe">remoteModel.js</text>
</g>
<!-- channelModel.js&#45;&gt;remoteModel.js -->
<g id="edge10" class="edge">
<title>channelModel.js&#45;&gt;remoteModel.js</title>
<path fill="none" stroke="#757575" d="M1201.8566,-147.248C1222.3055,-142.9254 1245.7053,-137.9791 1266.9459,-133.4893"/>
<polygon fill="#757575" stroke="#757575" points="1267.7949,-136.8872 1276.8548,-131.3947 1266.3471,-130.0385 1267.7949,-136.8872"/>
</g>
<!-- remoteModel.js&#45;&gt;addressModel.js -->
<g id="edge47" class="edge">
<title>remoteModel.js&#45;&gt;addressModel.js</title>
<path fill="none" stroke="#757575" d="M1388.2522,-131.3753C1394.4598,-133.7065 1400.5101,-136.4997 1406,-139.8437 1447.4961,-165.1199 1482.5762,-211.1224 1500.5647,-237.6054"/>
<polygon fill="#757575" stroke="#757575" points="1497.7514,-239.6959 1506.1972,-246.0928 1503.584,-235.8253 1497.7514,-239.6959"/>
</g>
<!-- covenantIdModel.js&#45;&gt;integrityModel.js -->
<g id="edge11" class="edge">
<title>covenantIdModel.js&#45;&gt;integrityModel.js</title>
<path fill="none" stroke="#757575" d="M1585.2312,-445.8437C1595.8455,-445.8437 1606.7764,-445.8437 1617.3679,-445.8437"/>
<polygon fill="#757575" stroke="#757575" points="1617.3974,-449.3438 1627.3974,-445.8437 1617.3974,-442.3438 1617.3974,-449.3438"/>
</g>
<!-- networkModel.js&#45;&gt;addressModel.js -->
<g id="edge36" class="edge">
<title>networkModel.js&#45;&gt;addressModel.js</title>
<path fill="none" stroke="#757575" d="M1024.7258,-203.6342C1127.1229,-214.9909 1332.6023,-237.7805 1441.6678,-249.8768"/>
<polygon fill="#757575" stroke="#757575" points="1441.5899,-253.3896 1451.9148,-251.0133 1442.3616,-246.4322 1441.5899,-253.3896"/>
</g>
<!-- networkModel.js&#45;&gt;provenanceModel.js -->
<g id="edge38" class="edge">
<title>networkModel.js&#45;&gt;provenanceModel.js</title>
<path fill="none" stroke="#757575" d="M978.341,-208.3574C993.3293,-220.0781 1017.0537,-238.8854 1037,-255.8437 1069.1104,-283.1437 1105.2363,-316.1074 1127.0464,-336.2664"/>
<polygon fill="#757575" stroke="#757575" points="1124.9522,-339.0975 1134.6662,-343.3271 1129.71,-333.9629 1124.9522,-339.0975"/>
</g>
<!-- networkModel.js&#45;&gt;channelModel.js -->
<g id="edge37" class="edge">
<title>networkModel.js&#45;&gt;channelModel.js</title>
<path fill="none" stroke="#757575" d="M1019.054,-185.3393C1038.7255,-181.2656 1061.0407,-176.6445 1081.4642,-172.4151"/>
<polygon fill="#757575" stroke="#757575" points="1082.2359,-175.8296 1091.3184,-170.3745 1080.8164,-168.9751 1082.2359,-175.8296"/>
</g>
<!-- pendingModel.js&#45;&gt;addressModel.js -->
<g id="edge39" class="edge">
<title>pendingModel.js&#45;&gt;addressModel.js</title>
<path fill="none" stroke="#757575" d="M847.2548,-245.9464C981.315,-248.3404 1298.4069,-254.0027 1441.3765,-256.5557"/>
<polygon fill="#757575" stroke="#757575" points="1441.7163,-260.0623 1451.7772,-256.7415 1441.8413,-253.0634 1441.7163,-260.0623"/>
</g>
<!-- pendingModel.js&#45;&gt;networkModel.js -->
<g id="edge40" class="edge">
<title>pendingModel.js&#45;&gt;networkModel.js</title>
<path fill="none" stroke="#757575" d="M828.5888,-233.2242C853.4046,-226.5323 884.7781,-218.072 911.0243,-210.9944"/>
<polygon fill="#757575" stroke="#757575" points="912.0642,-214.3391 920.808,-208.3561 910.2416,-207.5805 912.0642,-214.3391"/>
</g>
<!-- simpleArrayModel.js -->
<g id="node25" class="node">
<title>simpleArrayModel.js</title>
<path fill="none" stroke="#cfffac" d="M1029.3333,-288.3437C1029.3333,-288.3437 897.6667,-288.3437 897.6667,-288.3437 893.8333,-288.3437 890,-284.5103 890,-280.677 890,-280.677 890,-273.0103 890,-273.0103 890,-269.177 893.8333,-265.3437 897.6667,-265.3437 897.6667,-265.3437 1029.3333,-265.3437 1029.3333,-265.3437 1033.1667,-265.3437 1037,-269.177 1037,-273.0103 1037,-273.0103 1037,-280.677 1037,-280.677 1037,-284.5103 1033.1667,-288.3437 1029.3333,-288.3437"/>
<text text-anchor="middle" x="963.5" y="-273.1437" font-family="Arial" font-size="14.00" fill="#cfffac">simpleArrayModel.js</text>
</g>
<!-- pendingModel.js&#45;&gt;simpleArrayModel.js -->
<g id="edge41" class="edge">
<title>pendingModel.js&#45;&gt;simpleArrayModel.js</title>
<path fill="none" stroke="#757575" d="M847.2562,-255.9459C860.8306,-258.3862 875.3407,-260.9948 889.3461,-263.5126"/>
<polygon fill="#757575" stroke="#757575" points="888.9729,-267.0016 899.4344,-265.3263 890.2115,-260.112 888.9729,-267.0016"/>
</g>
<!-- validatorsModel.js&#45;&gt;keypairModel.js -->
<g id="edge50" class="edge">
<title>validatorsModel.js&#45;&gt;keypairModel.js</title>
<path fill="none" stroke="#757575" d="M1200.365,-675.274C1221.5919,-670.672 1246.181,-665.341 1268.2914,-660.5474"/>
<polygon fill="#757575" stroke="#757575" points="1269.2235,-663.9267 1278.2549,-658.3873 1267.7403,-657.0857 1269.2235,-663.9267"/>
</g>
<!-- validatorsModel.js&#45;&gt;publicKeyModel.js -->
<g id="edge51" class="edge">
<title>validatorsModel.js&#45;&gt;publicKeyModel.js</title>
<path fill="none" stroke="#757575" d="M1213.5162,-684.2679C1299.4404,-680.6257 1453.5891,-673.0234 1585,-660.8437 1593.3201,-660.0725 1602.0045,-659.1544 1610.6486,-658.1677"/>
<polygon fill="#757575" stroke="#757575" points="1611.2289,-661.6237 1620.7531,-656.9827 1610.4135,-654.6714 1611.2289,-661.6237"/>
</g>
<!-- interblockModel.js -->
<g id="node20" class="node">
<title>interblockModel.js</title>
<path fill="none" stroke="#c6c5fe" d="M258.3333,-262.3437C258.3333,-262.3437 140.6667,-262.3437 140.6667,-262.3437 136.8333,-262.3437 133,-258.5103 133,-254.677 133,-254.677 133,-247.0103 133,-247.0103 133,-243.177 136.8333,-239.3437 140.6667,-239.3437 140.6667,-239.3437 258.3333,-239.3437 258.3333,-239.3437 262.1667,-239.3437 266,-243.177 266,-247.0103 266,-247.0103 266,-254.677 266,-254.677 266,-258.5103 262.1667,-262.3437 258.3333,-262.3437"/>
<text text-anchor="middle" x="199.5" y="-247.1437" font-family="Arial" font-size="14.00" fill="#c6c5fe">interblockModel.js</text>
</g>
<!-- interblockModel.js&#45;&gt;integrityModel.js -->
<g id="edge26" class="edge">
<title>interblockModel.js&#45;&gt;integrityModel.js</title>
<path fill="none" stroke="#757575" d="M203.4837,-239.0594C214.401,-208.4331 247.6564,-125.4757 302,-78.8437 372.0556,-18.7292 402.1879,-.8437 494.5,-.8437 494.5,-.8437 494.5,-.8437 1331.5,-.8437 1448.2657,-.8437 1502.3671,12.655 1585,-69.8437 1636.4897,-121.2497 1674.142,-351.5125 1684.8823,-423.9534"/>
<polygon fill="#757575" stroke="#757575" points="1681.4662,-424.783 1686.3729,-434.1731 1688.3929,-423.7726 1681.4662,-424.783"/>
</g>
<!-- interblockModel.js&#45;&gt;blockModel.js -->
<g id="edge23" class="edge">
<title>interblockModel.js&#45;&gt;blockModel.js</title>
<path fill="none" stroke="#757575" d="M206.8149,-262.4599C221.6397,-284.853 257.6199,-333.6502 302,-354.8437 342.1977,-374.0399 392.4209,-378.4441 431.4878,-378.2316"/>
<polygon fill="#757575" stroke="#757575" points="431.735,-381.7282 441.6787,-378.0713 431.6249,-374.7291 431.735,-381.7282"/>
</g>
<!-- interblockModel.js&#45;&gt;provenanceModel.js -->
<g id="edge28" class="edge">
<title>interblockModel.js&#45;&gt;provenanceModel.js</title>
<path fill="none" stroke="#757575" d="M248.2484,-262.3669C306.4859,-275.104 407.0315,-293.8437 494.5,-293.8437 494.5,-293.8437 494.5,-293.8437 632,-293.8437 792.6537,-293.8437 979.5529,-323.4791 1078.0608,-341.4374"/>
<polygon fill="#757575" stroke="#757575" points="1077.7139,-344.9322 1088.182,-343.2983 1078.9798,-338.0476 1077.7139,-344.9322"/>
</g>
<!-- interblockModel.js&#45;&gt;channelModel.js -->
<g id="edge24" class="edge">
<title>interblockModel.js&#45;&gt;channelModel.js</title>
<path fill="none" stroke="#757575" d="M266.2855,-239.9962C364.6777,-224.428 554.5104,-195.9635 717,-180.8437 842.8779,-169.1306 990.1087,-163.2919 1075.5395,-160.6781"/>
<polygon fill="#757575" stroke="#757575" points="1075.7553,-164.1733 1085.646,-160.3751 1075.5455,-157.1764 1075.7553,-164.1733"/>
</g>
<!-- interblockModel.js&#45;&gt;continuationModel.js -->
<g id="edge25" class="edge">
<title>interblockModel.js&#45;&gt;continuationModel.js</title>
<path fill="none" stroke="#757575" d="M205.7533,-239.3194C219.6544,-214.8288 255.5901,-157.4289 302,-127.8437 376.6325,-80.2672 405.9928,-76.8437 494.5,-76.8437 494.5,-76.8437 494.5,-76.8437 963.5,-76.8437 1060.5215,-76.8437 1171.9291,-77.5474 1246.5157,-78.12"/>
<polygon fill="#757575" stroke="#757575" points="1246.7635,-81.6219 1256.7904,-78.1998 1246.818,-74.6222 1246.7635,-81.6219"/>
</g>
<!-- interblockModel.js&#45;&gt;remoteModel.js -->
<g id="edge29" class="edge">
<title>interblockModel.js&#45;&gt;remoteModel.js</title>
<path fill="none" stroke="#757575" d="M213.18,-239.2484C253.4296,-206.3598 376.0688,-114.8437 494.5,-114.8437 494.5,-114.8437 494.5,-114.8437 963.5,-114.8437 1068.0045,-114.8437 1189.1869,-116.8846 1263.0791,-118.3586"/>
<polygon fill="#757575" stroke="#757575" points="1263.1164,-121.86 1273.185,-118.5625 1263.2577,-114.8614 1263.1164,-121.86"/>
</g>
<!-- proofModel.js -->
<g id="node21" class="node">
<title>proofModel.js</title>
<path fill="none" stroke="#c6c5fe" d="M398.3333,-345.3437C398.3333,-345.3437 309.6667,-345.3437 309.6667,-345.3437 305.8333,-345.3437 302,-341.5103 302,-337.677 302,-337.677 302,-330.0103 302,-330.0103 302,-326.177 305.8333,-322.3437 309.6667,-322.3437 309.6667,-322.3437 398.3333,-322.3437 398.3333,-322.3437 402.1667,-322.3437 406,-326.177 406,-330.0103 406,-330.0103 406,-337.677 406,-337.677 406,-341.5103 402.1667,-345.3437 398.3333,-345.3437"/>
<text text-anchor="middle" x="354" y="-330.1437" font-family="Arial" font-size="14.00" fill="#c6c5fe">proofModel.js</text>
</g>
<!-- interblockModel.js&#45;&gt;proofModel.js -->
<g id="edge27" class="edge">
<title>interblockModel.js&#45;&gt;proofModel.js</title>
<path fill="none" stroke="#757575" d="M219.7763,-262.4642C240.3515,-274.1742 273.1874,-292.6386 302,-307.8437 308.1775,-311.1037 314.8151,-314.5011 321.2125,-317.7235"/>
<polygon fill="#757575" stroke="#757575" points="319.8226,-320.9416 330.3322,-322.2829 322.9529,-314.6805 319.8226,-320.9416"/>
</g>
<!-- proofModel.js&#45;&gt;blockModel.js -->
<g id="edge42" class="edge">
<title>proofModel.js&#45;&gt;blockModel.js</title>
<path fill="none" stroke="#757575" d="M394.6384,-345.4133C410.0749,-349.8081 427.8463,-354.8675 444.0791,-359.489"/>
<polygon fill="#757575" stroke="#757575" points="443.3767,-362.928 453.9529,-362.3 445.2935,-356.1955 443.3767,-362.928"/>
</g>
<!-- signatureModel.js&#45;&gt;integrityModel.js -->
<g id="edge48" class="edge">
<title>signatureModel.js&#45;&gt;integrityModel.js</title>
<path fill="none" stroke="#757575" d="M1555.9707,-596.2411C1566.0564,-592.3227 1576.3797,-587.2627 1585,-580.8437 1627.2745,-549.3646 1660.7392,-496.0082 1677.0799,-466.6866"/>
<polygon fill="#757575" stroke="#757575" points="1680.248,-468.1872 1681.9531,-457.7305 1674.0992,-464.8415 1680.248,-468.1872"/>
</g>
<!-- signatureModel.js&#45;&gt;publicKeyModel.js -->
<g id="edge49" class="edge">
<title>signatureModel.js&#45;&gt;publicKeyModel.js</title>
<path fill="none" stroke="#757575" d="M1563.9726,-619.4133C1583.8682,-623.9739 1606.8866,-629.2503 1627.6516,-634.0102"/>
<polygon fill="#757575" stroke="#757575" points="1627.1116,-637.4771 1637.6408,-636.3 1628.6756,-630.6541 1627.1116,-637.4771"/>
</g>
<!-- lockModel.js -->
<g id="node24" class="node">
<title>lockModel.js</title>
<path fill="none" stroke="#c6c5fe" d="M89.3333,-423.3437C89.3333,-423.3437 7.6667,-423.3437 7.6667,-423.3437 3.8333,-423.3437 0,-419.5103 0,-415.677 0,-415.677 0,-408.0103 0,-408.0103 0,-404.177 3.8333,-400.3437 7.6667,-400.3437 7.6667,-400.3437 89.3333,-400.3437 89.3333,-400.3437 93.1667,-400.3437 97,-404.177 97,-408.0103 97,-408.0103 97,-415.677 97,-415.677 97,-419.5103 93.1667,-423.3437 89.3333,-423.3437"/>
<text text-anchor="middle" x="48.5" y="-408.1437" font-family="Arial" font-size="14.00" fill="#c6c5fe">lockModel.js</text>
</g>
<!-- lockModel.js&#45;&gt;blockModel.js -->
<g id="edge33" class="edge">
<title>lockModel.js&#45;&gt;blockModel.js</title>
<path fill="none" stroke="#757575" d="M97.0788,-407.7047C178.3828,-400.7774 341.9258,-386.8433 431.7978,-379.186"/>
<polygon fill="#757575" stroke="#757575" points="432.1847,-382.6658 441.8515,-378.3294 431.5904,-375.6911 432.1847,-382.6658"/>
</g>
<!-- lockModel.js&#45;&gt;timestampModel.js -->
<g id="edge35" class="edge">
<title>lockModel.js&#45;&gt;timestampModel.js</title>
<path fill="none" stroke="#757575" d="M51.2875,-423.5455C67.5437,-488.6031 156.2966,-802.8437 354,-802.8437 354,-802.8437 354,-802.8437 494.5,-802.8437 590.0247,-802.8437 697.3583,-763.1453 751.034,-740.391"/>
<polygon fill="#757575" stroke="#757575" points="752.6152,-743.5209 760.4171,-736.3528 749.848,-737.0911 752.6152,-743.5209"/>
</g>
<!-- lockModel.js&#45;&gt;interblockModel.js -->
<g id="edge34" class="edge">
<title>lockModel.js&#45;&gt;interblockModel.js</title>
<path fill="none" stroke="#757575" d="M59.3595,-400.2649C85.0272,-372.8974 149.6583,-303.9861 181.375,-270.169"/>
<polygon fill="#757575" stroke="#757575" points="184.0434,-272.4402 188.3315,-262.7519 178.9376,-267.6515 184.0434,-272.4402"/>
</g>
</g>
</svg>
