<?xml version="1.0" encoding="UTF-8" standalone="no"?>
<!DOCTYPE svg PUBLIC "-//W3C//DTD SVG 1.1//EN"
 "http://www.w3.org/Graphics/SVG/1.1/DTD/svg11.dtd">
<!-- Generated by graphviz version 2.40.1 (20161225.0304)
 -->
<!-- Title: G Pages: 1 -->
<svg width="1603pt" height="791pt"
 viewBox="0.00 0.00 1603.20 791.21" xmlns="http://www.w3.org/2000/svg" xmlns:xlink="http://www.w3.org/1999/xlink">
<g id="graph0" class="graph" transform="scale(1 1) rotate(0) translate(21.6 769.6132)">
<title>G</title>
<polygon fill="#111111" stroke="transparent" points="-21.6,21.6 -21.6,-769.6132 1581.6,-769.6132 1581.6,21.6 -21.6,21.6"/>
<!-- aclModel.js -->
<g id="node1" class="node">
<title>aclModel.js</title>
<path fill="none" stroke="#cfffac" d="M822.3333,-601.5132C822.3333,-601.5132 748.6667,-601.5132 748.6667,-601.5132 744.8333,-601.5132 741,-597.6798 741,-593.8465 741,-593.8465 741,-586.1798 741,-586.1798 741,-582.3465 744.8333,-578.5132 748.6667,-578.5132 748.6667,-578.5132 822.3333,-578.5132 822.3333,-578.5132 826.1667,-578.5132 830,-582.3465 830,-586.1798 830,-586.1798 830,-593.8465 830,-593.8465 830,-597.6798 826.1667,-601.5132 822.3333,-601.5132"/>
<text text-anchor="middle" x="785.5" y="-586.3132" font-family="Arial" font-size="14.00" fill="#cfffac">aclModel.js</text>
</g>
<!-- actionModel.js -->
<g id="node2" class="node">
<title>actionModel.js</title>
<path fill="none" stroke="#cfffac" d="M1195.8333,-133.5132C1195.8333,-133.5132 1101.1667,-133.5132 1101.1667,-133.5132 1097.3333,-133.5132 1093.5,-129.6798 1093.5,-125.8465 1093.5,-125.8465 1093.5,-118.1798 1093.5,-118.1798 1093.5,-114.3465 1097.3333,-110.5132 1101.1667,-110.5132 1101.1667,-110.5132 1195.8333,-110.5132 1195.8333,-110.5132 1199.6667,-110.5132 1203.5,-114.3465 1203.5,-118.1798 1203.5,-118.1798 1203.5,-125.8465 1203.5,-125.8465 1203.5,-129.6798 1199.6667,-133.5132 1195.8333,-133.5132"/>
<text text-anchor="middle" x="1148.5" y="-118.3132" font-family="Arial" font-size="14.00" fill="#cfffac">actionModel.js</text>
</g>
<!-- addressModel.js -->
<g id="node3" class="node">
<title>addressModel.js</title>
<path fill="none" stroke="#c6c5fe" d="M1378.3333,-211.5132C1378.3333,-211.5132 1270.6667,-211.5132 1270.6667,-211.5132 1266.8333,-211.5132 1263,-207.6798 1263,-203.8465 1263,-203.8465 1263,-196.1798 1263,-196.1798 1263,-192.3465 1266.8333,-188.5132 1270.6667,-188.5132 1270.6667,-188.5132 1378.3333,-188.5132 1378.3333,-188.5132 1382.1667,-188.5132 1386,-192.3465 1386,-196.1798 1386,-196.1798 1386,-203.8465 1386,-203.8465 1386,-207.6798 1382.1667,-211.5132 1378.3333,-211.5132"/>
<text text-anchor="middle" x="1324.5" y="-196.3132" font-family="Arial" font-size="14.00" fill="#c6c5fe">addressModel.js</text>
</g>
<!-- integrityModel.js -->
<g id="node4" class="node">
<title>integrityModel.js</title>
<path fill="none" stroke="#cfffac" d="M1545.8333,-363.5132C1545.8333,-363.5132 1440.1667,-363.5132 1440.1667,-363.5132 1436.3333,-363.5132 1432.5,-359.6798 1432.5,-355.8465 1432.5,-355.8465 1432.5,-348.1798 1432.5,-348.1798 1432.5,-344.3465 1436.3333,-340.5132 1440.1667,-340.5132 1440.1667,-340.5132 1545.8333,-340.5132 1545.8333,-340.5132 1549.6667,-340.5132 1553.5,-344.3465 1553.5,-348.1798 1553.5,-348.1798 1553.5,-355.8465 1553.5,-355.8465 1553.5,-359.6798 1549.6667,-363.5132 1545.8333,-363.5132"/>
<text text-anchor="middle" x="1493" y="-348.3132" font-family="Arial" font-size="14.00" fill="#cfffac">integrityModel.js</text>
</g>
<!-- addressModel.js&#45;&gt;integrityModel.js -->
<g id="edge1" class="edge">
<title>addressModel.js&#45;&gt;integrityModel.js</title>
<path fill="none" stroke="#757575" d="M1337.4421,-211.688C1366.5504,-237.9458 1437.3726,-301.8329 1472.5192,-333.5379"/>
<polygon fill="#757575" stroke="#757575" points="1470.4748,-336.4073 1480.2444,-340.5067 1475.1635,-331.2096 1470.4748,-336.4073"/>
</g>
<!-- binaryModel.js -->
<g id="node5" class="node">
<title>binaryModel.js</title>
<path fill="none" stroke="#c6c5fe" d="M1371.8333,-441.5132C1371.8333,-441.5132 1277.1667,-441.5132 1277.1667,-441.5132 1273.3333,-441.5132 1269.5,-437.6798 1269.5,-433.8465 1269.5,-433.8465 1269.5,-426.1798 1269.5,-426.1798 1269.5,-422.3465 1273.3333,-418.5132 1277.1667,-418.5132 1277.1667,-418.5132 1371.8333,-418.5132 1371.8333,-418.5132 1375.6667,-418.5132 1379.5,-422.3465 1379.5,-426.1798 1379.5,-426.1798 1379.5,-433.8465 1379.5,-433.8465 1379.5,-437.6798 1375.6667,-441.5132 1371.8333,-441.5132"/>
<text text-anchor="middle" x="1324.5" y="-426.3132" font-family="Arial" font-size="14.00" fill="#c6c5fe">binaryModel.js</text>
</g>
<!-- binaryModel.js&#45;&gt;integrityModel.js -->
<g id="edge2" class="edge">
<title>binaryModel.js&#45;&gt;integrityModel.js</title>
<path fill="none" stroke="#757575" d="M1355.3947,-418.4067C1366.4069,-414.0973 1378.8422,-409.0321 1390,-404.0132 1414.7603,-392.8757 1442.1736,-378.9557 1462.4905,-368.3214"/>
<polygon fill="#757575" stroke="#757575" points="1464.353,-371.2963 1471.5706,-363.5402 1461.0916,-365.1025 1464.353,-371.2963"/>
</g>
<!-- blockModel.js -->
<g id="node6" class="node">
<title>blockModel.js</title>
<path fill="none" stroke="#c6c5fe" d="M539.3333,-293.5132C539.3333,-293.5132 449.6667,-293.5132 449.6667,-293.5132 445.8333,-293.5132 442,-289.6798 442,-285.8465 442,-285.8465 442,-278.1798 442,-278.1798 442,-274.3465 445.8333,-270.5132 449.6667,-270.5132 449.6667,-270.5132 539.3333,-270.5132 539.3333,-270.5132 543.1667,-270.5132 547,-274.3465 547,-278.1798 547,-278.1798 547,-285.8465 547,-285.8465 547,-289.6798 543.1667,-293.5132 539.3333,-293.5132"/>
<text text-anchor="middle" x="494.5" y="-278.3132" font-family="Arial" font-size="14.00" fill="#c6c5fe">blockModel.js</text>
</g>
<!-- blockModel.js&#45;&gt;integrityModel.js -->
<g id="edge4" class="edge">
<title>blockModel.js&#45;&gt;integrityModel.js</title>
<path fill="none" stroke="#757575" d="M547.1278,-285.7027C714.0958,-297.408 1232.0815,-333.7214 1422.143,-347.0457"/>
<polygon fill="#757575" stroke="#757575" points="1422.0761,-350.5496 1432.2964,-347.7575 1422.5657,-343.5667 1422.0761,-350.5496"/>
</g>
<!-- dmzModel.js -->
<g id="node7" class="node">
<title>dmzModel.js</title>
<path fill="none" stroke="#ff6c60" d="M673.3333,-460.5132C673.3333,-460.5132 590.6667,-460.5132 590.6667,-460.5132 586.8333,-460.5132 583,-456.6798 583,-452.8465 583,-452.8465 583,-445.1798 583,-445.1798 583,-441.3465 586.8333,-437.5132 590.6667,-437.5132 590.6667,-437.5132 673.3333,-437.5132 673.3333,-437.5132 677.1667,-437.5132 681,-441.3465 681,-445.1798 681,-445.1798 681,-452.8465 681,-452.8465 681,-456.6798 677.1667,-460.5132 673.3333,-460.5132"/>
<text text-anchor="middle" x="632" y="-445.3132" font-family="Arial" font-size="14.00" fill="#ff6c60">dmzModel.js</text>
</g>
<!-- blockModel.js&#45;&gt;dmzModel.js -->
<g id="edge3" class="edge">
<title>blockModel.js&#45;&gt;dmzModel.js</title>
<path fill="none" stroke="#757575" d="M504.1687,-293.7563C527.4989,-322.0918 587.0774,-394.4527 615.9001,-429.4592"/>
<polygon fill="#757575" stroke="#757575" points="613.4662,-432.0095 622.5245,-437.5048 618.8702,-427.5601 613.4662,-432.0095"/>
</g>
<!-- keypairModel.js -->
<g id="node8" class="node">
<title>keypairModel.js</title>
<path fill="none" stroke="#c6c5fe" d="M1199.8333,-521.5132C1199.8333,-521.5132 1097.1667,-521.5132 1097.1667,-521.5132 1093.3333,-521.5132 1089.5,-517.6798 1089.5,-513.8465 1089.5,-513.8465 1089.5,-506.1798 1089.5,-506.1798 1089.5,-502.3465 1093.3333,-498.5132 1097.1667,-498.5132 1097.1667,-498.5132 1199.8333,-498.5132 1199.8333,-498.5132 1203.6667,-498.5132 1207.5,-502.3465 1207.5,-506.1798 1207.5,-506.1798 1207.5,-513.8465 1207.5,-513.8465 1207.5,-517.6798 1203.6667,-521.5132 1199.8333,-521.5132"/>
<text text-anchor="middle" x="1148.5" y="-506.3132" font-family="Arial" font-size="14.00" fill="#c6c5fe">keypairModel.js</text>
</g>
<!-- blockModel.js&#45;&gt;keypairModel.js -->
<g id="edge5" class="edge">
<title>blockModel.js&#45;&gt;keypairModel.js</title>
<path fill="none" stroke="#757575" d="M496.3925,-293.854C506.2848,-351.2466 557.8189,-601.374 717,-691.0132 869.0843,-776.656 1069.8271,-591.0515 1130.4284,-529.1751"/>
<polygon fill="#757575" stroke="#757575" points="1133.2931,-531.2475 1137.7264,-521.6248 1128.2599,-526.3825 1133.2931,-531.2475"/>
</g>
<!-- provenanceModel.js -->
<g id="node9" class="node">
<title>provenanceModel.js</title>
<path fill="none" stroke="#ff6c60" d="M1030.3333,-251.5132C1030.3333,-251.5132 897.6667,-251.5132 897.6667,-251.5132 893.8333,-251.5132 890,-247.6798 890,-243.8465 890,-243.8465 890,-236.1798 890,-236.1798 890,-232.3465 893.8333,-228.5132 897.6667,-228.5132 897.6667,-228.5132 1030.3333,-228.5132 1030.3333,-228.5132 1034.1667,-228.5132 1038,-232.3465 1038,-236.1798 1038,-236.1798 1038,-243.8465 1038,-243.8465 1038,-247.6798 1034.1667,-251.5132 1030.3333,-251.5132"/>
<text text-anchor="middle" x="964" y="-236.3132" font-family="Arial" font-size="14.00" fill="#ff6c60">provenanceModel.js</text>
</g>
<!-- blockModel.js&#45;&gt;provenanceModel.js -->
<g id="edge6" class="edge">
<title>blockModel.js&#45;&gt;provenanceModel.js</title>
<path fill="none" stroke="#757575" d="M545.3081,-270.4318C557.5924,-267.978 570.7209,-265.6408 583,-264.0132 684.5498,-250.5528 802.3586,-244.5975 879.777,-241.9914"/>
<polygon fill="#757575" stroke="#757575" points="880.0746,-245.4837 889.9554,-241.6602 879.8469,-238.4874 880.0746,-245.4837"/>
</g>
<!-- dmzModel.js&#45;&gt;aclModel.js -->
<g id="edge12" class="edge">
<title>dmzModel.js&#45;&gt;aclModel.js</title>
<path fill="none" stroke="#757575" d="M636.9104,-460.6412C647.7089,-484.7913 675.8753,-540.5768 717,-570.0132 721.2972,-573.0891 726.0643,-575.6952 731.0252,-577.9027"/>
<polygon fill="#757575" stroke="#757575" points="730.1432,-581.3149 740.7319,-581.6753 732.679,-574.7904 730.1432,-581.3149"/>
</g>
<!-- dmzModel.js&#45;&gt;integrityModel.js -->
<g id="edge16" class="edge">
<title>dmzModel.js&#45;&gt;integrityModel.js</title>
<path fill="none" stroke="#757575" d="M681.4184,-442.4301C693.0805,-440.9287 705.4738,-439.3754 717,-438.0132 1015.7389,-402.7073 1091.3755,-402.2745 1390,-366.0132 1400.3857,-364.7521 1411.3496,-363.3442 1422.0973,-361.9207"/>
<polygon fill="#757575" stroke="#757575" points="1422.8617,-365.3497 1432.3097,-360.5553 1421.934,-358.4114 1422.8617,-365.3497"/>
</g>
<!-- dmzModel.js&#45;&gt;binaryModel.js -->
<g id="edge13" class="edge">
<title>dmzModel.js&#45;&gt;binaryModel.js</title>
<path fill="none" stroke="#757575" d="M681.2477,-447.662C803.5163,-444.3073 1120.9956,-435.5967 1258.9266,-431.8123"/>
<polygon fill="#757575" stroke="#757575" points="1259.4344,-435.2998 1269.3346,-431.5267 1259.2423,-428.3024 1259.4344,-435.2998"/>
</g>
<!-- dmzModel.js&#45;&gt;keypairModel.js -->
<g id="edge17" class="edge">
<title>dmzModel.js&#45;&gt;keypairModel.js</title>
<path fill="none" stroke="#757575" d="M681.0567,-454.8069C773.3886,-465.7115 973.2145,-489.3115 1079.2143,-501.8304"/>
<polygon fill="#757575" stroke="#757575" points="1078.8311,-505.3093 1089.1726,-503.0065 1079.6522,-498.3577 1078.8311,-505.3093"/>
</g>
<!-- configModel.js -->
<g id="node13" class="node">
<title>configModel.js</title>
<path fill="none" stroke="#cfffac" d="M832.8333,-560.5132C832.8333,-560.5132 738.1667,-560.5132 738.1667,-560.5132 734.3333,-560.5132 730.5,-556.6798 730.5,-552.8465 730.5,-552.8465 730.5,-545.1798 730.5,-545.1798 730.5,-541.3465 734.3333,-537.5132 738.1667,-537.5132 738.1667,-537.5132 832.8333,-537.5132 832.8333,-537.5132 836.6667,-537.5132 840.5,-541.3465 840.5,-545.1798 840.5,-545.1798 840.5,-552.8465 840.5,-552.8465 840.5,-556.6798 836.6667,-560.5132 832.8333,-560.5132"/>
<text text-anchor="middle" x="785.5" y="-545.3132" font-family="Arial" font-size="14.00" fill="#cfffac">configModel.js</text>
</g>
<!-- dmzModel.js&#45;&gt;configModel.js -->
<g id="edge14" class="edge">
<title>dmzModel.js&#45;&gt;configModel.js</title>
<path fill="none" stroke="#757575" d="M641.1759,-460.6119C655.5298,-477.9915 684.9854,-510.7003 717,-529.0132 719.9943,-530.726 723.1475,-532.3027 726.3898,-533.7529"/>
<polygon fill="#757575" stroke="#757575" points="725.1214,-537.0152 735.7046,-537.512 727.7411,-530.5239 725.1214,-537.0152"/>
</g>
<!-- covenantIdModel.js -->
<g id="node14" class="node">
<title>covenantIdModel.js</title>
<path fill="none" stroke="#c6c5fe" d="M1027.8333,-363.5132C1027.8333,-363.5132 900.1667,-363.5132 900.1667,-363.5132 896.3333,-363.5132 892.5,-359.6798 892.5,-355.8465 892.5,-355.8465 892.5,-348.1798 892.5,-348.1798 892.5,-344.3465 896.3333,-340.5132 900.1667,-340.5132 900.1667,-340.5132 1027.8333,-340.5132 1027.8333,-340.5132 1031.6667,-340.5132 1035.5,-344.3465 1035.5,-348.1798 1035.5,-348.1798 1035.5,-355.8465 1035.5,-355.8465 1035.5,-359.6798 1031.6667,-363.5132 1027.8333,-363.5132"/>
<text text-anchor="middle" x="964" y="-348.3132" font-family="Arial" font-size="14.00" fill="#c6c5fe">covenantIdModel.js</text>
</g>
<!-- dmzModel.js&#45;&gt;covenantIdModel.js -->
<g id="edge15" class="edge">
<title>dmzModel.js&#45;&gt;covenantIdModel.js</title>
<path fill="none" stroke="#757575" d="M641.8413,-437.2482C656.376,-420.7956 685.3044,-391.4283 717,-378.0132 769.1019,-355.9612 832.6815,-349.6841 882.2862,-348.8044"/>
<polygon fill="#757575" stroke="#757575" points="882.3696,-352.3038 892.3312,-348.6961 882.294,-345.3042 882.3696,-352.3038"/>
</g>
<!-- networkModel.js -->
<g id="node15" class="node">
<title>networkModel.js</title>
<path fill="none" stroke="#ff6c60" d="M838.8333,-173.5132C838.8333,-173.5132 732.1667,-173.5132 732.1667,-173.5132 728.3333,-173.5132 724.5,-169.6798 724.5,-165.8465 724.5,-165.8465 724.5,-158.1798 724.5,-158.1798 724.5,-154.3465 728.3333,-150.5132 732.1667,-150.5132 732.1667,-150.5132 838.8333,-150.5132 838.8333,-150.5132 842.6667,-150.5132 846.5,-154.3465 846.5,-158.1798 846.5,-158.1798 846.5,-165.8465 846.5,-165.8465 846.5,-169.6798 842.6667,-173.5132 838.8333,-173.5132"/>
<text text-anchor="middle" x="785.5" y="-158.3132" font-family="Arial" font-size="14.00" fill="#ff6c60">networkModel.js</text>
</g>
<!-- dmzModel.js&#45;&gt;networkModel.js -->
<g id="edge18" class="edge">
<title>dmzModel.js&#45;&gt;networkModel.js</title>
<path fill="none" stroke="#757575" d="M638.2075,-437.407C661.5416,-393.7791 744.2019,-239.2285 774.3727,-182.8181"/>
<polygon fill="#757575" stroke="#757575" points="777.5853,-184.2325 779.2153,-173.7638 771.4127,-180.9311 777.5853,-184.2325"/>
</g>
<!-- stateModel.js -->
<g id="node16" class="node">
<title>stateModel.js</title>
<path fill="none" stroke="#cfffac" d="M828.8333,-519.5132C828.8333,-519.5132 742.1667,-519.5132 742.1667,-519.5132 738.3333,-519.5132 734.5,-515.6798 734.5,-511.8465 734.5,-511.8465 734.5,-504.1798 734.5,-504.1798 734.5,-500.3465 738.3333,-496.5132 742.1667,-496.5132 742.1667,-496.5132 828.8333,-496.5132 828.8333,-496.5132 832.6667,-496.5132 836.5,-500.3465 836.5,-504.1798 836.5,-504.1798 836.5,-511.8465 836.5,-511.8465 836.5,-515.6798 832.6667,-519.5132 828.8333,-519.5132"/>
<text text-anchor="middle" x="785.5" y="-504.3132" font-family="Arial" font-size="14.00" fill="#cfffac">stateModel.js</text>
</g>
<!-- dmzModel.js&#45;&gt;stateModel.js -->
<g id="edge19" class="edge">
<title>dmzModel.js&#45;&gt;stateModel.js</title>
<path fill="none" stroke="#757575" d="M661.482,-460.5221C677.8283,-466.8875 698.5269,-474.9215 717,-482.0132 726.1662,-485.532 736.0323,-489.2926 745.3429,-492.8292"/>
<polygon fill="#757575" stroke="#757575" points="744.2006,-496.1392 754.7919,-496.4141 746.6837,-489.5944 744.2006,-496.1392"/>
</g>
<!-- timestampModel.js -->
<g id="node17" class="node">
<title>timestampModel.js</title>
<path fill="none" stroke="#cfffac" d="M846.3333,-681.5132C846.3333,-681.5132 724.6667,-681.5132 724.6667,-681.5132 720.8333,-681.5132 717,-677.6798 717,-673.8465 717,-673.8465 717,-666.1798 717,-666.1798 717,-662.3465 720.8333,-658.5132 724.6667,-658.5132 724.6667,-658.5132 846.3333,-658.5132 846.3333,-658.5132 850.1667,-658.5132 854,-662.3465 854,-666.1798 854,-666.1798 854,-673.8465 854,-673.8465 854,-677.6798 850.1667,-681.5132 846.3333,-681.5132"/>
<text text-anchor="middle" x="785.5" y="-666.3132" font-family="Arial" font-size="14.00" fill="#cfffac">timestampModel.js</text>
</g>
<!-- dmzModel.js&#45;&gt;timestampModel.js -->
<g id="edge20" class="edge">
<title>dmzModel.js&#45;&gt;timestampModel.js</title>
<path fill="none" stroke="#757575" d="M633.8926,-460.9341C639.8274,-494.4913 661.1199,-590.769 717,-644.0132 721.029,-647.8521 725.6815,-651.1383 730.6268,-653.9485"/>
<polygon fill="#757575" stroke="#757575" points="729.262,-657.1789 739.773,-658.5094 732.3858,-650.9146 729.262,-657.1789"/>
</g>
<!-- validatorsModel.js -->
<g id="node18" class="node">
<title>validatorsModel.js</title>
<path fill="none" stroke="#c6c5fe" d="M1022.8333,-599.5132C1022.8333,-599.5132 905.1667,-599.5132 905.1667,-599.5132 901.3333,-599.5132 897.5,-595.6798 897.5,-591.8465 897.5,-591.8465 897.5,-584.1798 897.5,-584.1798 897.5,-580.3465 901.3333,-576.5132 905.1667,-576.5132 905.1667,-576.5132 1022.8333,-576.5132 1022.8333,-576.5132 1026.6667,-576.5132 1030.5,-580.3465 1030.5,-584.1798 1030.5,-584.1798 1030.5,-591.8465 1030.5,-591.8465 1030.5,-595.6798 1026.6667,-599.5132 1022.8333,-599.5132"/>
<text text-anchor="middle" x="964" y="-584.3132" font-family="Arial" font-size="14.00" fill="#c6c5fe">validatorsModel.js</text>
</g>
<!-- dmzModel.js&#45;&gt;validatorsModel.js -->
<g id="edge21" class="edge">
<title>dmzModel.js&#45;&gt;validatorsModel.js</title>
<path fill="none" stroke="#757575" d="M633.9664,-460.8077C639.8871,-492.0719 660.7378,-576.997 717,-611.0132 783.339,-651.1218 878.5018,-623.4568 929.158,-603.4958"/>
<polygon fill="#757575" stroke="#757575" points="930.7275,-606.636 938.6741,-599.6287 928.0921,-600.151 930.7275,-606.636"/>
</g>
<!-- keypairModel.js&#45;&gt;integrityModel.js -->
<g id="edge29" class="edge">
<title>keypairModel.js&#45;&gt;integrityModel.js</title>
<path fill="none" stroke="#757575" d="M1207.6352,-499.2358C1268.5966,-487.4803 1358.9855,-468.0616 1390,-451.0132 1426.619,-430.8841 1459.6496,-394.3714 1477.9549,-371.7577"/>
<polygon fill="#757575" stroke="#757575" points="1480.7643,-373.8477 1484.2264,-363.8345 1475.2756,-369.5032 1480.7643,-373.8477"/>
</g>
<!-- publicKeyModel.js -->
<g id="node21" class="node">
<title>publicKeyModel.js</title>
<path fill="none" stroke="#cfffac" d="M1552.3333,-561.5132C1552.3333,-561.5132 1433.6667,-561.5132 1433.6667,-561.5132 1429.8333,-561.5132 1426,-557.6798 1426,-553.8465 1426,-553.8465 1426,-546.1798 1426,-546.1798 1426,-542.3465 1429.8333,-538.5132 1433.6667,-538.5132 1433.6667,-538.5132 1552.3333,-538.5132 1552.3333,-538.5132 1556.1667,-538.5132 1560,-542.3465 1560,-546.1798 1560,-546.1798 1560,-553.8465 1560,-553.8465 1560,-557.6798 1556.1667,-561.5132 1552.3333,-561.5132"/>
<text text-anchor="middle" x="1493" y="-546.3132" font-family="Arial" font-size="14.00" fill="#cfffac">publicKeyModel.js</text>
</g>
<!-- keypairModel.js&#45;&gt;publicKeyModel.js -->
<g id="edge30" class="edge">
<title>keypairModel.js&#45;&gt;publicKeyModel.js</title>
<path fill="none" stroke="#757575" d="M1202.8293,-521.534C1220.6597,-524.9944 1240.6163,-528.5272 1259,-531.0132 1311.1021,-538.0588 1370.1097,-542.8282 1415.835,-545.8263"/>
<polygon fill="#757575" stroke="#757575" points="1415.7695,-549.3292 1425.973,-546.4764 1416.2175,-542.3436 1415.7695,-549.3292"/>
</g>
<!-- signatureModel.js -->
<g id="node22" class="node">
<title>signatureModel.js</title>
<path fill="none" stroke="#c6c5fe" d="M1382.3333,-521.5132C1382.3333,-521.5132 1266.6667,-521.5132 1266.6667,-521.5132 1262.8333,-521.5132 1259,-517.6798 1259,-513.8465 1259,-513.8465 1259,-506.1798 1259,-506.1798 1259,-502.3465 1262.8333,-498.5132 1266.6667,-498.5132 1266.6667,-498.5132 1382.3333,-498.5132 1382.3333,-498.5132 1386.1667,-498.5132 1390,-502.3465 1390,-506.1798 1390,-506.1798 1390,-513.8465 1390,-513.8465 1390,-517.6798 1386.1667,-521.5132 1382.3333,-521.5132"/>
<text text-anchor="middle" x="1324.5" y="-506.3132" font-family="Arial" font-size="14.00" fill="#c6c5fe">signatureModel.js</text>
</g>
<!-- keypairModel.js&#45;&gt;signatureModel.js -->
<g id="edge31" class="edge">
<title>keypairModel.js&#45;&gt;signatureModel.js</title>
<path fill="none" stroke="#757575" d="M1207.5951,-510.0132C1220.7255,-510.0132 1234.8217,-510.0132 1248.5218,-510.0132"/>
<polygon fill="#757575" stroke="#757575" points="1248.8986,-513.5133 1258.8986,-510.0132 1248.8986,-506.5133 1248.8986,-513.5133"/>
</g>
<!-- provenanceModel.js&#45;&gt;addressModel.js -->
<g id="edge39" class="edge">
<title>provenanceModel.js&#45;&gt;addressModel.js</title>
<path fill="none" stroke="#757575" d="M1038.0416,-233.3144C1089.8837,-228.4445 1160.7373,-221.4297 1223,-214.0132 1232.6708,-212.8612 1242.8475,-211.5617 1252.8715,-210.2303"/>
<polygon fill="#757575" stroke="#757575" points="1253.3758,-213.6941 1262.8202,-208.8926 1252.443,-206.7565 1253.3758,-213.6941"/>
</g>
<!-- provenanceModel.js&#45;&gt;integrityModel.js -->
<g id="edge41" class="edge">
<title>provenanceModel.js&#45;&gt;integrityModel.js</title>
<path fill="none" stroke="#757575" d="M1038.3474,-243.129C1124.6551,-248.4156 1270.445,-262.5421 1390,-300.0132 1417.1847,-308.5335 1445.9535,-323.6356 1466.1564,-335.377"/>
<polygon fill="#757575" stroke="#757575" points="1464.4124,-338.4119 1474.7996,-340.4995 1467.9814,-332.39 1464.4124,-338.4119"/>
</g>
<!-- provenanceModel.js&#45;&gt;dmzModel.js -->
<g id="edge40" class="edge">
<title>provenanceModel.js&#45;&gt;dmzModel.js</title>
<path fill="none" stroke="#757575" d="M922.0063,-251.5954C870.2139,-267.2921 781.1689,-298.9942 717,-347.0132 686.1804,-370.0762 659.4003,-406.4529 644.5038,-428.9602"/>
<polygon fill="#757575" stroke="#757575" points="641.5356,-427.1047 639.0438,-437.4024 647.4135,-430.9062 641.5356,-427.1047"/>
</g>
<!-- provenanceModel.js&#45;&gt;keypairModel.js -->
<g id="edge42" class="edge">
<title>provenanceModel.js&#45;&gt;keypairModel.js</title>
<path fill="none" stroke="#757575" d="M974.3259,-251.6953C989.1183,-268.6502 1016.8841,-301.3031 1038,-331.0132 1077.283,-386.2842 1117.7101,-455.541 1136.9577,-489.422"/>
<polygon fill="#757575" stroke="#757575" points="1134.0496,-491.3901 1142.017,-498.3738 1140.1437,-487.9459 1134.0496,-491.3901"/>
</g>
<!-- channelModel.js -->
<g id="node10" class="node">
<title>channelModel.js</title>
<path fill="none" stroke="#c6c5fe" d="M1017.3333,-133.5132C1017.3333,-133.5132 910.6667,-133.5132 910.6667,-133.5132 906.8333,-133.5132 903,-129.6798 903,-125.8465 903,-125.8465 903,-118.1798 903,-118.1798 903,-114.3465 906.8333,-110.5132 910.6667,-110.5132 910.6667,-110.5132 1017.3333,-110.5132 1017.3333,-110.5132 1021.1667,-110.5132 1025,-114.3465 1025,-118.1798 1025,-118.1798 1025,-125.8465 1025,-125.8465 1025,-129.6798 1021.1667,-133.5132 1017.3333,-133.5132"/>
<text text-anchor="middle" x="964" y="-118.3132" font-family="Arial" font-size="14.00" fill="#c6c5fe">channelModel.js</text>
</g>
<!-- channelModel.js&#45;&gt;actionModel.js -->
<g id="edge7" class="edge">
<title>channelModel.js&#45;&gt;actionModel.js</title>
<path fill="none" stroke="#757575" d="M1025.1796,-122.0132C1043.8517,-122.0132 1064.4467,-122.0132 1083.3705,-122.0132"/>
<polygon fill="#757575" stroke="#757575" points="1083.3909,-125.5133 1093.3909,-122.0132 1083.3909,-118.5133 1083.3909,-125.5133"/>
</g>
<!-- channelModel.js&#45;&gt;addressModel.js -->
<g id="edge8" class="edge">
<title>channelModel.js&#45;&gt;addressModel.js</title>
<path fill="none" stroke="#757575" d="M1017.193,-133.5224C1082.1566,-147.5783 1191.9204,-171.3274 1261.175,-186.3118"/>
<polygon fill="#757575" stroke="#757575" points="1260.5747,-189.7628 1271.0887,-188.4568 1262.0551,-182.9211 1260.5747,-189.7628"/>
</g>
<!-- continuationModel.js -->
<g id="node11" class="node">
<title>continuationModel.js</title>
<path fill="none" stroke="#cfffac" d="M1215.3333,-51.5132C1215.3333,-51.5132 1081.6667,-51.5132 1081.6667,-51.5132 1077.8333,-51.5132 1074,-47.6798 1074,-43.8465 1074,-43.8465 1074,-36.1798 1074,-36.1798 1074,-32.3465 1077.8333,-28.5132 1081.6667,-28.5132 1081.6667,-28.5132 1215.3333,-28.5132 1215.3333,-28.5132 1219.1667,-28.5132 1223,-32.3465 1223,-36.1798 1223,-36.1798 1223,-43.8465 1223,-43.8465 1223,-47.6798 1219.1667,-51.5132 1215.3333,-51.5132"/>
<text text-anchor="middle" x="1148.5" y="-36.3132" font-family="Arial" font-size="14.00" fill="#cfffac">continuationModel.js</text>
</g>
<!-- channelModel.js&#45;&gt;continuationModel.js -->
<g id="edge9" class="edge">
<title>channelModel.js&#45;&gt;continuationModel.js</title>
<path fill="none" stroke="#757575" d="M981.2207,-110.4942C1002.3125,-96.8215 1039.4997,-74.1045 1074,-60.0132 1078.7596,-58.0692 1083.767,-56.2584 1088.841,-54.5847"/>
<polygon fill="#757575" stroke="#757575" points="1090.1255,-57.8506 1098.6329,-51.536 1088.0445,-51.1671 1090.1255,-57.8506"/>
</g>
<!-- remoteModel.js -->
<g id="node12" class="node">
<title>remoteModel.js</title>
<path fill="none" stroke="#c6c5fe" d="M1198.8333,-92.5132C1198.8333,-92.5132 1098.1667,-92.5132 1098.1667,-92.5132 1094.3333,-92.5132 1090.5,-88.6798 1090.5,-84.8465 1090.5,-84.8465 1090.5,-77.1798 1090.5,-77.1798 1090.5,-73.3465 1094.3333,-69.5132 1098.1667,-69.5132 1098.1667,-69.5132 1198.8333,-69.5132 1198.8333,-69.5132 1202.6667,-69.5132 1206.5,-73.3465 1206.5,-77.1798 1206.5,-77.1798 1206.5,-84.8465 1206.5,-84.8465 1206.5,-88.6798 1202.6667,-92.5132 1198.8333,-92.5132"/>
<text text-anchor="middle" x="1148.5" y="-77.3132" font-family="Arial" font-size="14.00" fill="#c6c5fe">remoteModel.js</text>
</g>
<!-- channelModel.js&#45;&gt;remoteModel.js -->
<g id="edge10" class="edge">
<title>channelModel.js&#45;&gt;remoteModel.js</title>
<path fill="none" stroke="#757575" d="M1015.8845,-110.4833C1037.8885,-105.5935 1063.7091,-99.8556 1086.6909,-94.7485"/>
<polygon fill="#757575" stroke="#757575" points="1087.683,-98.1135 1096.6856,-92.5275 1086.1644,-91.2802 1087.683,-98.1135"/>
</g>
<!-- remoteModel.js&#45;&gt;addressModel.js -->
<g id="edge43" class="edge">
<title>remoteModel.js&#45;&gt;addressModel.js</title>
<path fill="none" stroke="#757575" d="M1204.2807,-92.5864C1210.7933,-94.9181 1217.1811,-97.7 1223,-101.0132 1259.0391,-121.5332 1291.6035,-157.9223 1309.6577,-180.4057"/>
<polygon fill="#757575" stroke="#757575" points="1306.9137,-182.5784 1315.8437,-188.2798 1312.4182,-178.254 1306.9137,-182.5784"/>
</g>
<!-- covenantIdModel.js&#45;&gt;integrityModel.js -->
<g id="edge11" class="edge">
<title>covenantIdModel.js&#45;&gt;integrityModel.js</title>
<path fill="none" stroke="#757575" d="M1035.6184,-352.0132C1136.996,-352.0132 1321.2168,-352.0132 1422.1654,-352.0132"/>
<polygon fill="#757575" stroke="#757575" points="1422.2649,-355.5133 1432.2648,-352.0132 1422.2648,-348.5133 1422.2649,-355.5133"/>
</g>
<!-- networkModel.js&#45;&gt;addressModel.js -->
<g id="edge35" class="edge">
<title>networkModel.js&#45;&gt;addressModel.js</title>
<path fill="none" stroke="#757575" d="M846.5437,-166.3168C946.8046,-173.3853 1145.8623,-187.4191 1252.7207,-194.9527"/>
<polygon fill="#757575" stroke="#757575" points="1252.5462,-198.449 1262.7676,-195.661 1253.0385,-191.4663 1252.5462,-198.449"/>
</g>
<!-- networkModel.js&#45;&gt;provenanceModel.js -->
<g id="edge37" class="edge">
<title>networkModel.js&#45;&gt;provenanceModel.js</title>
<path fill="none" stroke="#757575" d="M821.1335,-173.5197C831.9528,-177.5442 843.6972,-182.4631 854,-188.0132 871.3757,-197.3735 872.5091,-204.8698 890,-214.0132 897.8035,-218.0925 906.3862,-221.7698 914.8566,-224.9881"/>
<polygon fill="#757575" stroke="#757575" points="913.7306,-228.3027 924.3248,-228.4234 916.1182,-221.7225 913.7306,-228.3027"/>
</g>
<!-- networkModel.js&#45;&gt;channelModel.js -->
<g id="edge36" class="edge">
<title>networkModel.js&#45;&gt;channelModel.js</title>
<path fill="none" stroke="#757575" d="M837.1296,-150.4435C857.5737,-145.8622 881.2414,-140.5585 902.5578,-135.7817"/>
<polygon fill="#757575" stroke="#757575" points="903.4938,-139.1589 912.4864,-133.5568 901.9631,-132.3283 903.4938,-139.1589"/>
</g>
<!-- validatorsModel.js&#45;&gt;keypairModel.js -->
<g id="edge46" class="edge">
<title>validatorsModel.js&#45;&gt;keypairModel.js</title>
<path fill="none" stroke="#757575" d="M991.2236,-576.504C1023.1086,-563.0242 1076.0811,-540.6293 1111.6316,-525.5998"/>
<polygon fill="#757575" stroke="#757575" points="1113.3169,-528.6873 1121.1647,-521.5696 1110.5911,-522.2398 1113.3169,-528.6873"/>
</g>
<!-- validatorsModel.js&#45;&gt;publicKeyModel.js -->
<g id="edge47" class="edge">
<title>validatorsModel.js&#45;&gt;publicKeyModel.js</title>
<path fill="none" stroke="#757575" d="M1030.7302,-583.2197C1128.8452,-576.1718 1311.6113,-563.043 1415.5229,-555.5786"/>
<polygon fill="#757575" stroke="#757575" points="1415.9117,-559.0598 1425.6352,-554.8522 1415.4101,-552.0778 1415.9117,-559.0598"/>
</g>
<!-- interblockModel.js -->
<g id="node19" class="node">
<title>interblockModel.js</title>
<path fill="none" stroke="#c6c5fe" d="M258.3333,-173.5132C258.3333,-173.5132 140.6667,-173.5132 140.6667,-173.5132 136.8333,-173.5132 133,-169.6798 133,-165.8465 133,-165.8465 133,-158.1798 133,-158.1798 133,-154.3465 136.8333,-150.5132 140.6667,-150.5132 140.6667,-150.5132 258.3333,-150.5132 258.3333,-150.5132 262.1667,-150.5132 266,-154.3465 266,-158.1798 266,-158.1798 266,-165.8465 266,-165.8465 266,-169.6798 262.1667,-173.5132 258.3333,-173.5132"/>
<text text-anchor="middle" x="199.5" y="-158.3132" font-family="Arial" font-size="14.00" fill="#c6c5fe">interblockModel.js</text>
</g>
<!-- interblockModel.js&#45;&gt;integrityModel.js -->
<g id="edge25" class="edge">
<title>interblockModel.js&#45;&gt;integrityModel.js</title>
<path fill="none" stroke="#757575" d="M206.273,-150.2332C220.6424,-126.3632 256.6155,-72.249 302,-45.0132 377.3374,.1977 406.6379,-.0132 494.5,-.0132 494.5,-.0132 494.5,-.0132 1148.5,-.0132 1334.7012,-.0132 1453.3932,-254.7022 1484.6993,-330.7949"/>
<polygon fill="#757575" stroke="#757575" points="1481.5474,-332.3373 1488.5347,-340.3015 1488.039,-329.7183 1481.5474,-332.3373"/>
</g>
<!-- interblockModel.js&#45;&gt;blockModel.js -->
<g id="edge22" class="edge">
<title>interblockModel.js&#45;&gt;blockModel.js</title>
<path fill="none" stroke="#757575" d="M207.4116,-173.8399C222.733,-195.6344 258.7785,-241.7556 302,-262.0132 342.3565,-280.928 392.5739,-285.6109 431.5984,-285.7323"/>
<polygon fill="#757575" stroke="#757575" points="431.8014,-289.2311 441.7772,-285.6625 431.7533,-282.2313 431.8014,-289.2311"/>
</g>
<!-- interblockModel.js&#45;&gt;provenanceModel.js -->
<g id="edge27" class="edge">
<title>interblockModel.js&#45;&gt;provenanceModel.js</title>
<path fill="none" stroke="#757575" d="M252.2322,-173.5292C311.0266,-185.346 409.0923,-202.0132 494.5,-202.0132 494.5,-202.0132 494.5,-202.0132 632,-202.0132 721.6715,-202.0132 824.088,-215.8657 891.1706,-226.8432"/>
<polygon fill="#757575" stroke="#757575" points="890.7779,-230.3258 901.2157,-228.5088 891.923,-223.4201 890.7779,-230.3258"/>
</g>
<!-- interblockModel.js&#45;&gt;channelModel.js -->
<g id="edge23" class="edge">
<title>interblockModel.js&#45;&gt;channelModel.js</title>
<path fill="none" stroke="#757575" d="M252.2322,-150.4972C311.0266,-138.6804 409.0923,-122.0132 494.5,-122.0132 494.5,-122.0132 494.5,-122.0132 632,-122.0132 721.9122,-122.0132 825.5212,-122.0132 892.7504,-122.0132"/>
<polygon fill="#757575" stroke="#757575" points="892.8097,-125.5133 902.8096,-122.0132 892.8096,-118.5133 892.8097,-125.5133"/>
</g>
<!-- interblockModel.js&#45;&gt;continuationModel.js -->
<g id="edge24" class="edge">
<title>interblockModel.js&#45;&gt;continuationModel.js</title>
<path fill="none" stroke="#757575" d="M212.0595,-150.4244C230.4285,-134.0957 266.3286,-104.4761 302,-88.0132 381.9635,-51.1088 406.4313,-41.0132 494.5,-41.0132 494.5,-41.0132 494.5,-41.0132 785.5,-41.0132 880.7508,-41.0132 990.0599,-40.6646 1063.6263,-40.3791"/>
<polygon fill="#757575" stroke="#757575" points="1063.7782,-43.8786 1073.7644,-40.3392 1063.7507,-36.8786 1063.7782,-43.8786"/>
</g>
<!-- interblockModel.js&#45;&gt;remoteModel.js -->
<g id="edge28" class="edge">
<title>interblockModel.js&#45;&gt;remoteModel.js</title>
<path fill="none" stroke="#757575" d="M224.1255,-150.4079C273.9807,-128.0106 390.9339,-81.0132 494.5,-81.0132 494.5,-81.0132 494.5,-81.0132 785.5,-81.0132 888.0639,-81.0132 1006.9286,-81.0132 1079.9172,-81.0132"/>
<polygon fill="#757575" stroke="#757575" points="1080.3458,-84.5133 1090.3457,-81.0132 1080.3457,-77.5133 1080.3458,-84.5133"/>
</g>
<!-- proofModel.js -->
<g id="node20" class="node">
<title>proofModel.js</title>
<path fill="none" stroke="#c6c5fe" d="M398.3333,-253.5132C398.3333,-253.5132 309.6667,-253.5132 309.6667,-253.5132 305.8333,-253.5132 302,-249.6798 302,-245.8465 302,-245.8465 302,-238.1798 302,-238.1798 302,-234.3465 305.8333,-230.5132 309.6667,-230.5132 309.6667,-230.5132 398.3333,-230.5132 398.3333,-230.5132 402.1667,-230.5132 406,-234.3465 406,-238.1798 406,-238.1798 406,-245.8465 406,-245.8465 406,-249.6798 402.1667,-253.5132 398.3333,-253.5132"/>
<text text-anchor="middle" x="354" y="-238.3132" font-family="Arial" font-size="14.00" fill="#c6c5fe">proofModel.js</text>
</g>
<!-- interblockModel.js&#45;&gt;proofModel.js -->
<g id="edge26" class="edge">
<title>interblockModel.js&#45;&gt;proofModel.js</title>
<path fill="none" stroke="#757575" d="M221.027,-173.5242C241.7201,-184.549 273.907,-201.5919 302,-216.0132 308.2743,-219.2341 314.9976,-222.6337 321.4572,-225.8745"/>
<polygon fill="#757575" stroke="#757575" points="320.1401,-229.129 330.6498,-230.4698 323.2701,-222.8678 320.1401,-229.129"/>
</g>
<!-- proofModel.js&#45;&gt;blockModel.js -->
<g id="edge38" class="edge">
<title>proofModel.js&#45;&gt;blockModel.js</title>
<path fill="none" stroke="#757575" d="M394.6384,-253.5828C410.0749,-257.9776 427.8463,-263.0371 444.0791,-267.6585"/>
<polygon fill="#757575" stroke="#757575" points="443.3767,-271.0975 453.9529,-270.4695 445.2935,-264.365 443.3767,-271.0975"/>
</g>
<!-- signatureModel.js&#45;&gt;integrityModel.js -->
<g id="edge44" class="edge">
<title>signatureModel.js&#45;&gt;integrityModel.js</title>
<path fill="none" stroke="#757575" d="M1363.3591,-498.5053C1372.5996,-494.7403 1382.0691,-489.9555 1390,-484.0132 1431.5908,-452.8509 1465.3268,-400.8321 1481.8934,-372.2885"/>
<polygon fill="#757575" stroke="#757575" points="1484.9481,-373.997 1486.8399,-363.5725 1478.8601,-370.542 1484.9481,-373.997"/>
</g>
<!-- signatureModel.js&#45;&gt;publicKeyModel.js -->
<g id="edge45" class="edge">
<title>signatureModel.js&#45;&gt;publicKeyModel.js</title>
<path fill="none" stroke="#757575" d="M1373.2372,-521.5828C1392.3613,-526.1227 1414.4736,-531.3719 1434.4531,-536.1148"/>
<polygon fill="#757575" stroke="#757575" points="1433.8343,-539.5651 1444.3724,-538.4695 1435.4512,-532.7544 1433.8343,-539.5651"/>
</g>
<!-- lockModel.js -->
<g id="node23" class="node">
<title>lockModel.js</title>
<path fill="none" stroke="#c6c5fe" d="M89.3333,-331.5132C89.3333,-331.5132 7.6667,-331.5132 7.6667,-331.5132 3.8333,-331.5132 0,-327.6798 0,-323.8465 0,-323.8465 0,-316.1798 0,-316.1798 0,-312.3465 3.8333,-308.5132 7.6667,-308.5132 7.6667,-308.5132 89.3333,-308.5132 89.3333,-308.5132 93.1667,-308.5132 97,-312.3465 97,-316.1798 97,-316.1798 97,-323.8465 97,-323.8465 97,-327.6798 93.1667,-331.5132 89.3333,-331.5132"/>
<text text-anchor="middle" x="48.5" y="-316.3132" font-family="Arial" font-size="14.00" fill="#c6c5fe">lockModel.js</text>
</g>
<!-- lockModel.js&#45;&gt;blockModel.js -->
<g id="edge32" class="edge">
<title>lockModel.js&#45;&gt;blockModel.js</title>
<path fill="none" stroke="#757575" d="M97.0788,-315.8742C178.3828,-308.9469 341.9258,-295.0128 431.7978,-287.3555"/>
<polygon fill="#757575" stroke="#757575" points="432.1847,-290.8353 441.8515,-286.4989 431.5904,-283.8606 432.1847,-290.8353"/>
</g>
<!-- lockModel.js&#45;&gt;timestampModel.js -->
<g id="edge34" class="edge">
<title>lockModel.js&#45;&gt;timestampModel.js</title>
<path fill="none" stroke="#757575" d="M50.726,-331.9071C64.4086,-401.0322 143.5702,-748.0132 354,-748.0132 354,-748.0132 354,-748.0132 494.5,-748.0132 590.0247,-748.0132 697.3583,-708.3148 751.034,-685.5605"/>
<polygon fill="#757575" stroke="#757575" points="752.6152,-688.6904 760.4171,-681.5224 749.848,-682.2606 752.6152,-688.6904"/>
</g>
<!-- lockModel.js&#45;&gt;interblockModel.js -->
<g id="edge33" class="edge">
<title>lockModel.js&#45;&gt;interblockModel.js</title>
<path fill="none" stroke="#757575" d="M59.6034,-308.3951C85.4554,-281.3446 149.8635,-213.9507 181.4525,-180.8973"/>
<polygon fill="#757575" stroke="#757575" points="184.0015,-183.296 188.3803,-173.6483 178.9409,-178.4596 184.0015,-183.296"/>
</g>
</g>
</svg>
