<?xml version="1.0" encoding="UTF-8" standalone="no"?>
<!DOCTYPE svg PUBLIC "-//W3C//DTD SVG 1.1//EN"
 "http://www.w3.org/Graphics/SVG/1.1/DTD/svg11.dtd">
<!-- Generated by graphviz version 2.40.1 (20161225.0304)
 -->
<!-- Title: G Pages: 1 -->
<svg width="1873pt" height="1186pt"
 viewBox="0.00 0.00 1873.20 1185.69" xmlns="http://www.w3.org/2000/svg" xmlns:xlink="http://www.w3.org/1999/xlink">
<g id="graph0" class="graph" transform="scale(1 1) rotate(0) translate(21.6 1164.0906)">
<title>G</title>
<polygon fill="#111111" stroke="transparent" points="-21.6,21.6 -21.6,-1164.0906 1851.6,-1164.0906 1851.6,21.6 -21.6,21.6"/>
<!-- aclModel.js -->
<g id="node1" class="node">
<title>aclModel.js</title>
<path fill="none" stroke="#cfffac" d="M927.3333,-835.8399C927.3333,-835.8399 853.6667,-835.8399 853.6667,-835.8399 849.8333,-835.8399 846,-832.0066 846,-828.1733 846,-828.1733 846,-820.5066 846,-820.5066 846,-816.6733 849.8333,-812.8399 853.6667,-812.8399 853.6667,-812.8399 927.3333,-812.8399 927.3333,-812.8399 931.1667,-812.8399 935,-816.6733 935,-820.5066 935,-820.5066 935,-828.1733 935,-828.1733 935,-832.0066 931.1667,-835.8399 927.3333,-835.8399"/>
<text text-anchor="middle" x="890.5" y="-820.6399" font-family="Arial" font-size="14.00" fill="#cfffac">aclModel.js</text>
</g>
<!-- actionModel.js -->
<g id="node2" class="node">
<title>actionModel.js</title>
<path fill="none" stroke="#cfffac" d="M1486.8333,-835.8399C1486.8333,-835.8399 1392.1667,-835.8399 1392.1667,-835.8399 1388.3333,-835.8399 1384.5,-832.0066 1384.5,-828.1733 1384.5,-828.1733 1384.5,-820.5066 1384.5,-820.5066 1384.5,-816.6733 1388.3333,-812.8399 1392.1667,-812.8399 1392.1667,-812.8399 1486.8333,-812.8399 1486.8333,-812.8399 1490.6667,-812.8399 1494.5,-816.6733 1494.5,-820.5066 1494.5,-820.5066 1494.5,-828.1733 1494.5,-828.1733 1494.5,-832.0066 1490.6667,-835.8399 1486.8333,-835.8399"/>
<text text-anchor="middle" x="1439.5" y="-820.6399" font-family="Arial" font-size="14.00" fill="#cfffac">actionModel.js</text>
</g>
<!-- addressModel.js -->
<g id="node3" class="node">
<title>addressModel.js</title>
<path fill="none" stroke="#c6c5fe" d="M1665.3333,-675.8399C1665.3333,-675.8399 1557.6667,-675.8399 1557.6667,-675.8399 1553.8333,-675.8399 1550,-672.0066 1550,-668.1733 1550,-668.1733 1550,-660.5066 1550,-660.5066 1550,-656.6733 1553.8333,-652.8399 1557.6667,-652.8399 1557.6667,-652.8399 1665.3333,-652.8399 1665.3333,-652.8399 1669.1667,-652.8399 1673,-656.6733 1673,-660.5066 1673,-660.5066 1673,-668.1733 1673,-668.1733 1673,-672.0066 1669.1667,-675.8399 1665.3333,-675.8399"/>
<text text-anchor="middle" x="1611.5" y="-660.6399" font-family="Arial" font-size="14.00" fill="#c6c5fe">addressModel.js</text>
</g>
<!-- integrityModel.js -->
<g id="node4" class="node">
<title>integrityModel.js</title>
<path fill="none" stroke="#cfffac" d="M1822.3333,-675.8399C1822.3333,-675.8399 1716.6667,-675.8399 1716.6667,-675.8399 1712.8333,-675.8399 1709,-672.0066 1709,-668.1733 1709,-668.1733 1709,-660.5066 1709,-660.5066 1709,-656.6733 1712.8333,-652.8399 1716.6667,-652.8399 1716.6667,-652.8399 1822.3333,-652.8399 1822.3333,-652.8399 1826.1667,-652.8399 1830,-656.6733 1830,-660.5066 1830,-660.5066 1830,-668.1733 1830,-668.1733 1830,-672.0066 1826.1667,-675.8399 1822.3333,-675.8399"/>
<text text-anchor="middle" x="1769.5" y="-660.6399" font-family="Arial" font-size="14.00" fill="#cfffac">integrityModel.js</text>
</g>
<!-- addressModel.js&#45;&gt;integrityModel.js -->
<g id="edge1" class="edge">
<title>addressModel.js&#45;&gt;integrityModel.js</title>
<path fill="none" stroke="#757575" d="M1673.0393,-664.3399C1681.5092,-664.3399 1690.2609,-664.3399 1698.8781,-664.3399"/>
<polygon fill="#757575" stroke="#757575" points="1698.9073,-667.84 1708.9073,-664.3399 1698.9072,-660.84 1698.9073,-667.84"/>
</g>
<!-- binaryModel.js -->
<g id="node5" class="node">
<title>binaryModel.js</title>
<path fill="none" stroke="#c6c5fe" d="M937.8333,-995.8399C937.8333,-995.8399 843.1667,-995.8399 843.1667,-995.8399 839.3333,-995.8399 835.5,-992.0066 835.5,-988.1733 835.5,-988.1733 835.5,-980.5066 835.5,-980.5066 835.5,-976.6733 839.3333,-972.8399 843.1667,-972.8399 843.1667,-972.8399 937.8333,-972.8399 937.8333,-972.8399 941.6667,-972.8399 945.5,-976.6733 945.5,-980.5066 945.5,-980.5066 945.5,-988.1733 945.5,-988.1733 945.5,-992.0066 941.6667,-995.8399 937.8333,-995.8399"/>
<text text-anchor="middle" x="890.5" y="-980.6399" font-family="Arial" font-size="14.00" fill="#c6c5fe">binaryModel.js</text>
</g>
<!-- binaryModel.js&#45;&gt;integrityModel.js -->
<g id="edge2" class="edge">
<title>binaryModel.js&#45;&gt;integrityModel.js</title>
<path fill="none" stroke="#757575" d="M945.8878,-984.9579C1056.1996,-984.8236 1310.2638,-977.6591 1514,-920.3399 1589.3973,-899.1276 1616.3509,-898.4287 1673,-844.3399 1721.3161,-798.2076 1750.7821,-722.486 1762.9746,-685.7134"/>
<polygon fill="#757575" stroke="#757575" points="1766.3596,-686.6194 1766.0817,-676.0282 1759.6942,-684.481 1766.3596,-686.6194"/>
</g>
<!-- blockModel.js -->
<g id="node6" class="node">
<title>blockModel.js</title>
<path fill="none" stroke="#c6c5fe" d="M641.3333,-253.8399C641.3333,-253.8399 551.6667,-253.8399 551.6667,-253.8399 547.8333,-253.8399 544,-250.0066 544,-246.1733 544,-246.1733 544,-238.5066 544,-238.5066 544,-234.6733 547.8333,-230.8399 551.6667,-230.8399 551.6667,-230.8399 641.3333,-230.8399 641.3333,-230.8399 645.1667,-230.8399 649,-234.6733 649,-238.5066 649,-238.5066 649,-246.1733 649,-246.1733 649,-250.0066 645.1667,-253.8399 641.3333,-253.8399"/>
<text text-anchor="middle" x="596.5" y="-238.6399" font-family="Arial" font-size="14.00" fill="#c6c5fe">blockModel.js</text>
</g>
<!-- blockModel.js&#45;&gt;integrityModel.js -->
<g id="edge4" class="edge">
<title>blockModel.js&#45;&gt;integrityModel.js</title>
<path fill="none" stroke="#757575" d="M649.0776,-242.3399C707.8993,-242.3399 806.026,-242.3399 890.5,-242.3399 890.5,-242.3399 890.5,-242.3399 1439.5,-242.3399 1645.0838,-242.3399 1741.6767,-556.968 1764.2216,-642.8863"/>
<polygon fill="#757575" stroke="#757575" points="1760.8406,-643.7927 1766.7106,-652.6128 1767.6221,-642.0572 1760.8406,-643.7927"/>
</g>
<!-- dmzModel.js -->
<g id="node7" class="node">
<title>dmzModel.js</title>
<path fill="none" stroke="#c6c5fe" d="M775.3333,-712.8399C775.3333,-712.8399 692.6667,-712.8399 692.6667,-712.8399 688.8333,-712.8399 685,-709.0066 685,-705.1733 685,-705.1733 685,-697.5066 685,-697.5066 685,-693.6733 688.8333,-689.8399 692.6667,-689.8399 692.6667,-689.8399 775.3333,-689.8399 775.3333,-689.8399 779.1667,-689.8399 783,-693.6733 783,-697.5066 783,-697.5066 783,-705.1733 783,-705.1733 783,-709.0066 779.1667,-712.8399 775.3333,-712.8399"/>
<text text-anchor="middle" x="734" y="-697.6399" font-family="Arial" font-size="14.00" fill="#c6c5fe">dmzModel.js</text>
</g>
<!-- blockModel.js&#45;&gt;dmzModel.js -->
<g id="edge3" class="edge">
<title>blockModel.js&#45;&gt;dmzModel.js</title>
<path fill="none" stroke="#757575" d="M600.0371,-254.1473C618.4243,-315.5271 703.1741,-598.4376 727.4722,-679.5488"/>
<polygon fill="#757575" stroke="#757575" points="724.2638,-681.0356 730.4863,-689.6106 730.9694,-679.0268 724.2638,-681.0356"/>
</g>
<!-- keypairModel.js -->
<g id="node8" class="node">
<title>keypairModel.js</title>
<path fill="none" stroke="#c6c5fe" d="M1122.8333,-175.8399C1122.8333,-175.8399 1020.1667,-175.8399 1020.1667,-175.8399 1016.3333,-175.8399 1012.5,-172.0066 1012.5,-168.1733 1012.5,-168.1733 1012.5,-160.5066 1012.5,-160.5066 1012.5,-156.6733 1016.3333,-152.8399 1020.1667,-152.8399 1020.1667,-152.8399 1122.8333,-152.8399 1122.8333,-152.8399 1126.6667,-152.8399 1130.5,-156.6733 1130.5,-160.5066 1130.5,-160.5066 1130.5,-168.1733 1130.5,-168.1733 1130.5,-172.0066 1126.6667,-175.8399 1122.8333,-175.8399"/>
<text text-anchor="middle" x="1071.5" y="-160.6399" font-family="Arial" font-size="14.00" fill="#c6c5fe">keypairModel.js</text>
</g>
<!-- blockModel.js&#45;&gt;keypairModel.js -->
<g id="edge5" class="edge">
<title>blockModel.js&#45;&gt;keypairModel.js</title>
<path fill="none" stroke="#757575" d="M631.108,-230.7783C674.4792,-216.8096 751.3435,-193.7644 819,-182.3399 880.4204,-171.9685 951.229,-167.5638 1002.2028,-165.6981"/>
<polygon fill="#757575" stroke="#757575" points="1002.5717,-169.1876 1012.4461,-165.3475 1002.3322,-162.1917 1002.5717,-169.1876"/>
</g>
<!-- provenanceModel.js -->
<g id="node9" class="node">
<title>provenanceModel.js</title>
<path fill="none" stroke="#c6c5fe" d="M1321.3333,-403.8399C1321.3333,-403.8399 1188.6667,-403.8399 1188.6667,-403.8399 1184.8333,-403.8399 1181,-400.0066 1181,-396.1733 1181,-396.1733 1181,-388.5066 1181,-388.5066 1181,-384.6733 1184.8333,-380.8399 1188.6667,-380.8399 1188.6667,-380.8399 1321.3333,-380.8399 1321.3333,-380.8399 1325.1667,-380.8399 1329,-384.6733 1329,-388.5066 1329,-388.5066 1329,-396.1733 1329,-396.1733 1329,-400.0066 1325.1667,-403.8399 1321.3333,-403.8399"/>
<text text-anchor="middle" x="1255" y="-388.6399" font-family="Arial" font-size="14.00" fill="#c6c5fe">provenanceModel.js</text>
</g>
<!-- blockModel.js&#45;&gt;provenanceModel.js -->
<g id="edge6" class="edge">
<title>blockModel.js&#45;&gt;provenanceModel.js</title>
<path fill="none" stroke="#757575" d="M647.078,-253.8611C766.4198,-281.046 1065.1853,-349.102 1194.1524,-378.4794"/>
<polygon fill="#757575" stroke="#757575" points="1193.7221,-381.971 1204.2497,-380.7795 1195.2768,-375.1458 1193.7221,-381.971"/>
</g>
<!-- publicKeyModel.js -->
<g id="node10" class="node">
<title>publicKeyModel.js</title>
<path fill="none" stroke="#cfffac" d="M1314.3333,-135.8399C1314.3333,-135.8399 1195.6667,-135.8399 1195.6667,-135.8399 1191.8333,-135.8399 1188,-132.0066 1188,-128.1733 1188,-128.1733 1188,-120.5066 1188,-120.5066 1188,-116.6733 1191.8333,-112.8399 1195.6667,-112.8399 1195.6667,-112.8399 1314.3333,-112.8399 1314.3333,-112.8399 1318.1667,-112.8399 1322,-116.6733 1322,-120.5066 1322,-120.5066 1322,-128.1733 1322,-128.1733 1322,-132.0066 1318.1667,-135.8399 1314.3333,-135.8399"/>
<text text-anchor="middle" x="1255" y="-120.6399" font-family="Arial" font-size="14.00" fill="#cfffac">publicKeyModel.js</text>
</g>
<!-- blockModel.js&#45;&gt;publicKeyModel.js -->
<g id="edge7" class="edge">
<title>blockModel.js&#45;&gt;publicKeyModel.js</title>
<path fill="none" stroke="#757575" d="M610.5256,-230.6745C627.187,-217.4709 656.3466,-196.3699 685,-185.3399 851.8504,-121.1118 1065.2133,-116.9872 1177.6503,-120.2409"/>
<polygon fill="#757575" stroke="#757575" points="1177.775,-123.7465 1187.8811,-120.5655 1177.9972,-116.75 1177.775,-123.7465"/>
</g>
<!-- dmzModel.js&#45;&gt;aclModel.js -->
<g id="edge13" class="edge">
<title>dmzModel.js&#45;&gt;aclModel.js</title>
<path fill="none" stroke="#757575" d="M740.2851,-712.882C752.5311,-734.2645 781.6873,-780.0641 819,-804.3399 824.3177,-807.7997 830.2336,-810.6684 836.3211,-813.0454"/>
<polygon fill="#757575" stroke="#757575" points="835.3723,-816.4207 845.9671,-816.3902 837.6657,-809.8071 835.3723,-816.4207"/>
</g>
<!-- dmzModel.js&#45;&gt;binaryModel.js -->
<g id="edge14" class="edge">
<title>dmzModel.js&#45;&gt;binaryModel.js</title>
<path fill="none" stroke="#757575" d="M736.2171,-713.0579C743.2839,-748.0886 767.8782,-854.0013 819,-925.3399 830.833,-941.8524 848.38,-956.4253 863.1294,-966.9568"/>
<polygon fill="#757575" stroke="#757575" points="861.2059,-969.8818 871.426,-972.6747 865.1782,-964.118 861.2059,-969.8818"/>
</g>
<!-- dmzModel.js&#45;&gt;keypairModel.js -->
<g id="edge17" class="edge">
<title>dmzModel.js&#45;&gt;keypairModel.js</title>
<path fill="none" stroke="#757575" d="M783.0797,-695.3544C842.4001,-687.1201 937.3537,-670.409 962,-645.3399 1028.0812,-578.125 1061.4795,-270.888 1069.544,-186.0795"/>
<polygon fill="#757575" stroke="#757575" points="1073.0362,-186.3245 1070.4777,-176.0432 1066.0663,-185.676 1073.0362,-186.3245"/>
</g>
<!-- configModel.js -->
<g id="node14" class="node">
<title>configModel.js</title>
<path fill="none" stroke="#cfffac" d="M937.8333,-794.8399C937.8333,-794.8399 843.1667,-794.8399 843.1667,-794.8399 839.3333,-794.8399 835.5,-791.0066 835.5,-787.1733 835.5,-787.1733 835.5,-779.5066 835.5,-779.5066 835.5,-775.6733 839.3333,-771.8399 843.1667,-771.8399 843.1667,-771.8399 937.8333,-771.8399 937.8333,-771.8399 941.6667,-771.8399 945.5,-775.6733 945.5,-779.5066 945.5,-779.5066 945.5,-787.1733 945.5,-787.1733 945.5,-791.0066 941.6667,-794.8399 937.8333,-794.8399"/>
<text text-anchor="middle" x="890.5" y="-779.6399" font-family="Arial" font-size="14.00" fill="#cfffac">configModel.js</text>
</g>
<!-- dmzModel.js&#45;&gt;configModel.js -->
<g id="edge15" class="edge">
<title>dmzModel.js&#45;&gt;configModel.js</title>
<path fill="none" stroke="#757575" d="M746.8733,-713.0431C762.7445,-726.8971 791.0598,-749.7925 819,-763.3399 822.7839,-765.1746 826.7646,-766.8665 830.8305,-768.4222"/>
<polygon fill="#757575" stroke="#757575" points="829.8249,-771.7789 840.4197,-771.8081 832.1556,-765.1782 829.8249,-771.7789"/>
</g>
<!-- covenantIdModel.js -->
<g id="node15" class="node">
<title>covenantIdModel.js</title>
<path fill="none" stroke="#c6c5fe" d="M954.3333,-915.8399C954.3333,-915.8399 826.6667,-915.8399 826.6667,-915.8399 822.8333,-915.8399 819,-912.0066 819,-908.1733 819,-908.1733 819,-900.5066 819,-900.5066 819,-896.6733 822.8333,-892.8399 826.6667,-892.8399 826.6667,-892.8399 954.3333,-892.8399 954.3333,-892.8399 958.1667,-892.8399 962,-896.6733 962,-900.5066 962,-900.5066 962,-908.1733 962,-908.1733 962,-912.0066 958.1667,-915.8399 954.3333,-915.8399"/>
<text text-anchor="middle" x="890.5" y="-900.6399" font-family="Arial" font-size="14.00" fill="#c6c5fe">covenantIdModel.js</text>
</g>
<!-- dmzModel.js&#45;&gt;covenantIdModel.js -->
<g id="edge16" class="edge">
<title>dmzModel.js&#45;&gt;covenantIdModel.js</title>
<path fill="none" stroke="#757575" d="M739.1838,-713.0453C750.9259,-738.7673 781.4719,-801.4186 819,-845.3399 832.4586,-861.0913 850.4621,-875.9207 865.0361,-886.7722"/>
<polygon fill="#757575" stroke="#757575" points="863.014,-889.6293 873.1605,-892.6786 867.1302,-883.9673 863.014,-889.6293"/>
</g>
<!-- networkModel.js -->
<g id="node16" class="node">
<title>networkModel.js</title>
<path fill="none" stroke="#c6c5fe" d="M1124.8333,-713.8399C1124.8333,-713.8399 1018.1667,-713.8399 1018.1667,-713.8399 1014.3333,-713.8399 1010.5,-710.0066 1010.5,-706.1733 1010.5,-706.1733 1010.5,-698.5066 1010.5,-698.5066 1010.5,-694.6733 1014.3333,-690.8399 1018.1667,-690.8399 1018.1667,-690.8399 1124.8333,-690.8399 1124.8333,-690.8399 1128.6667,-690.8399 1132.5,-694.6733 1132.5,-698.5066 1132.5,-698.5066 1132.5,-706.1733 1132.5,-706.1733 1132.5,-710.0066 1128.6667,-713.8399 1124.8333,-713.8399"/>
<text text-anchor="middle" x="1071.5" y="-698.6399" font-family="Arial" font-size="14.00" fill="#c6c5fe">networkModel.js</text>
</g>
<!-- dmzModel.js&#45;&gt;networkModel.js -->
<g id="edge18" class="edge">
<title>dmzModel.js&#45;&gt;networkModel.js</title>
<path fill="none" stroke="#757575" d="M783.0754,-701.4853C840.1694,-701.6545 934.919,-701.9352 1000.1473,-702.1285"/>
<polygon fill="#757575" stroke="#757575" points="1000.3419,-705.629 1010.3523,-702.1587 1000.3627,-698.629 1000.3419,-705.629"/>
</g>
<!-- pendingModel.js -->
<g id="node17" class="node">
<title>pendingModel.js</title>
<path fill="none" stroke="#c6c5fe" d="M944.3333,-753.8399C944.3333,-753.8399 836.6667,-753.8399 836.6667,-753.8399 832.8333,-753.8399 829,-750.0066 829,-746.1733 829,-746.1733 829,-738.5066 829,-738.5066 829,-734.6733 832.8333,-730.8399 836.6667,-730.8399 836.6667,-730.8399 944.3333,-730.8399 944.3333,-730.8399 948.1667,-730.8399 952,-734.6733 952,-738.5066 952,-738.5066 952,-746.1733 952,-746.1733 952,-750.0066 948.1667,-753.8399 944.3333,-753.8399"/>
<text text-anchor="middle" x="890.5" y="-738.6399" font-family="Arial" font-size="14.00" fill="#c6c5fe">pendingModel.js</text>
</g>
<!-- dmzModel.js&#45;&gt;pendingModel.js -->
<g id="edge19" class="edge">
<title>dmzModel.js&#45;&gt;pendingModel.js</title>
<path fill="none" stroke="#757575" d="M778.0105,-712.8698C796.2566,-717.65 817.5966,-723.2406 836.7564,-728.2601"/>
<polygon fill="#757575" stroke="#757575" points="835.9884,-731.677 846.549,-730.8256 837.7625,-724.9055 835.9884,-731.677"/>
</g>
<!-- stateModel.js -->
<g id="node18" class="node">
<title>stateModel.js</title>
<path fill="none" stroke="#cfffac" d="M933.8333,-635.8399C933.8333,-635.8399 847.1667,-635.8399 847.1667,-635.8399 843.3333,-635.8399 839.5,-632.0066 839.5,-628.1733 839.5,-628.1733 839.5,-620.5066 839.5,-620.5066 839.5,-616.6733 843.3333,-612.8399 847.1667,-612.8399 847.1667,-612.8399 933.8333,-612.8399 933.8333,-612.8399 937.6667,-612.8399 941.5,-616.6733 941.5,-620.5066 941.5,-620.5066 941.5,-628.1733 941.5,-628.1733 941.5,-632.0066 937.6667,-635.8399 933.8333,-635.8399"/>
<text text-anchor="middle" x="890.5" y="-620.6399" font-family="Arial" font-size="14.00" fill="#cfffac">stateModel.js</text>
</g>
<!-- dmzModel.js&#45;&gt;stateModel.js -->
<g id="edge20" class="edge">
<title>dmzModel.js&#45;&gt;stateModel.js</title>
<path fill="none" stroke="#757575" d="M756.1787,-689.6335C764.6605,-685.023 774.3663,-679.5837 783,-674.3399 799.4356,-664.3576 801.8415,-659.0211 819,-650.3399 826.8781,-646.3541 835.5168,-642.6771 843.9819,-639.4194"/>
<polygon fill="#757575" stroke="#757575" points="845.2537,-642.6808 853.4155,-635.9255 842.8224,-636.1166 845.2537,-642.6808"/>
</g>
<!-- timestampModel.js -->
<g id="node19" class="node">
<title>timestampModel.js</title>
<path fill="none" stroke="#cfffac" d="M951.3333,-365.8399C951.3333,-365.8399 829.6667,-365.8399 829.6667,-365.8399 825.8333,-365.8399 822,-362.0066 822,-358.1733 822,-358.1733 822,-350.5066 822,-350.5066 822,-346.6733 825.8333,-342.8399 829.6667,-342.8399 829.6667,-342.8399 951.3333,-342.8399 951.3333,-342.8399 955.1667,-342.8399 959,-346.6733 959,-350.5066 959,-350.5066 959,-358.1733 959,-358.1733 959,-362.0066 955.1667,-365.8399 951.3333,-365.8399"/>
<text text-anchor="middle" x="890.5" y="-350.6399" font-family="Arial" font-size="14.00" fill="#cfffac">timestampModel.js</text>
</g>
<!-- dmzModel.js&#45;&gt;timestampModel.js -->
<g id="edge21" class="edge">
<title>dmzModel.js&#45;&gt;timestampModel.js</title>
<path fill="none" stroke="#757575" d="M739.207,-689.7946C761.8115,-639.6747 851.6176,-440.552 881.0822,-375.2217"/>
<polygon fill="#757575" stroke="#757575" points="884.3526,-376.4834 885.2734,-365.9286 877.9715,-373.6054 884.3526,-376.4834"/>
</g>
<!-- validatorsModel.js -->
<g id="node20" class="node">
<title>validatorsModel.js</title>
<path fill="none" stroke="#c6c5fe" d="M949.3333,-213.8399C949.3333,-213.8399 831.6667,-213.8399 831.6667,-213.8399 827.8333,-213.8399 824,-210.0066 824,-206.1733 824,-206.1733 824,-198.5066 824,-198.5066 824,-194.6733 827.8333,-190.8399 831.6667,-190.8399 831.6667,-190.8399 949.3333,-190.8399 949.3333,-190.8399 953.1667,-190.8399 957,-194.6733 957,-198.5066 957,-198.5066 957,-206.1733 957,-206.1733 957,-210.0066 953.1667,-213.8399 949.3333,-213.8399"/>
<text text-anchor="middle" x="890.5" y="-198.6399" font-family="Arial" font-size="14.00" fill="#c6c5fe">validatorsModel.js</text>
</g>
<!-- dmzModel.js&#45;&gt;validatorsModel.js -->
<g id="edge22" class="edge">
<title>dmzModel.js&#45;&gt;validatorsModel.js</title>
<path fill="none" stroke="#757575" d="M735.5469,-689.5913C741.8937,-643.2233 768.0429,-468.8985 819,-334.3399 834.7962,-292.628 861.4259,-247.6949 877.3453,-222.4882"/>
<polygon fill="#757575" stroke="#757575" points="880.4365,-224.1511 882.8773,-213.8412 874.5399,-220.3787 880.4365,-224.1511"/>
</g>
<!-- keypairModel.js&#45;&gt;integrityModel.js -->
<g id="edge53" class="edge">
<title>keypairModel.js&#45;&gt;integrityModel.js</title>
<path fill="none" stroke="#757575" d="M1130.6995,-162.2254C1266.3547,-158.6654 1594.0725,-157.7788 1673,-228.3399 1736.0755,-284.7293 1761.7431,-561.9037 1767.9395,-642.3894"/>
<polygon fill="#757575" stroke="#757575" points="1764.4808,-643.0754 1768.7145,-652.7875 1771.4614,-642.555 1764.4808,-643.0754"/>
</g>
<!-- keypairModel.js&#45;&gt;publicKeyModel.js -->
<g id="edge54" class="edge">
<title>keypairModel.js&#45;&gt;publicKeyModel.js</title>
<path fill="none" stroke="#757575" d="M1124.5758,-152.7703C1145.6877,-148.1682 1170.1434,-142.8373 1192.134,-138.0437"/>
<polygon fill="#757575" stroke="#757575" points="1193.0184,-141.4332 1202.0435,-135.8836 1191.5275,-134.5938 1193.0184,-141.4332"/>
</g>
<!-- signatureModel.js -->
<g id="node25" class="node">
<title>signatureModel.js</title>
<path fill="none" stroke="#cfffac" d="M1312.8333,-58.8399C1312.8333,-58.8399 1197.1667,-58.8399 1197.1667,-58.8399 1193.3333,-58.8399 1189.5,-55.0066 1189.5,-51.1733 1189.5,-51.1733 1189.5,-43.5066 1189.5,-43.5066 1189.5,-39.6733 1193.3333,-35.8399 1197.1667,-35.8399 1197.1667,-35.8399 1312.8333,-35.8399 1312.8333,-35.8399 1316.6667,-35.8399 1320.5,-39.6733 1320.5,-43.5066 1320.5,-43.5066 1320.5,-51.1733 1320.5,-51.1733 1320.5,-55.0066 1316.6667,-58.8399 1312.8333,-58.8399"/>
<text text-anchor="middle" x="1255" y="-43.6399" font-family="Arial" font-size="14.00" fill="#cfffac">signatureModel.js</text>
</g>
<!-- keypairModel.js&#45;&gt;signatureModel.js -->
<g id="edge55" class="edge">
<title>keypairModel.js&#45;&gt;signatureModel.js</title>
<path fill="none" stroke="#757575" d="M1089.7655,-152.6938C1122.3283,-131.9317 1190.5292,-88.4467 1228.3357,-64.3412"/>
<polygon fill="#757575" stroke="#757575" points="1230.2581,-67.2664 1236.8083,-58.939 1226.4947,-61.364 1230.2581,-67.2664"/>
</g>
<!-- provenanceModel.js&#45;&gt;addressModel.js -->
<g id="edge66" class="edge">
<title>provenanceModel.js&#45;&gt;addressModel.js</title>
<path fill="none" stroke="#757575" d="M1300.7871,-403.9455C1310.6078,-407.6284 1320.559,-412.3524 1329,-418.3399 1349.8905,-433.1584 1345.6145,-446.6007 1365,-463.3399 1423.0407,-513.4575 1455.1452,-501.181 1514,-550.3399 1548.0293,-578.7632 1579.919,-619.8008 1597.4645,-644.1038"/>
<polygon fill="#757575" stroke="#757575" points="1594.8139,-646.416 1603.4612,-652.5376 1600.5188,-642.3596 1594.8139,-646.416"/>
</g>
<!-- provenanceModel.js&#45;&gt;integrityModel.js -->
<g id="edge67" class="edge">
<title>provenanceModel.js&#45;&gt;integrityModel.js</title>
<path fill="none" stroke="#757575" d="M1325.9221,-403.8594C1379.5964,-414.4234 1454.0522,-433.1094 1514,-463.3399 1613.2125,-513.3709 1710.9373,-605.3268 1750.7856,-645.1338"/>
<polygon fill="#757575" stroke="#757575" points="1748.4391,-647.7381 1757.9669,-652.372 1753.4084,-642.8079 1748.4391,-647.7381"/>
</g>
<!-- channelModel.js -->
<g id="node11" class="node">
<title>channelModel.js</title>
<path fill="none" stroke="#c6c5fe" d="M1308.3333,-713.8399C1308.3333,-713.8399 1201.6667,-713.8399 1201.6667,-713.8399 1197.8333,-713.8399 1194,-710.0066 1194,-706.1733 1194,-706.1733 1194,-698.5066 1194,-698.5066 1194,-694.6733 1197.8333,-690.8399 1201.6667,-690.8399 1201.6667,-690.8399 1308.3333,-690.8399 1308.3333,-690.8399 1312.1667,-690.8399 1316,-694.6733 1316,-698.5066 1316,-698.5066 1316,-706.1733 1316,-706.1733 1316,-710.0066 1312.1667,-713.8399 1308.3333,-713.8399"/>
<text text-anchor="middle" x="1255" y="-698.6399" font-family="Arial" font-size="14.00" fill="#c6c5fe">channelModel.js</text>
</g>
<!-- channelModel.js&#45;&gt;actionModel.js -->
<g id="edge8" class="edge">
<title>channelModel.js&#45;&gt;actionModel.js</title>
<path fill="none" stroke="#757575" d="M1272.6906,-714.0378C1305.3388,-735.6263 1375.2008,-781.8223 1413.3379,-807.0403"/>
<polygon fill="#757575" stroke="#757575" points="1411.5911,-810.0812 1421.8629,-812.6775 1415.4521,-804.2423 1411.5911,-810.0812"/>
</g>
<!-- channelModel.js&#45;&gt;addressModel.js -->
<g id="edge9" class="edge">
<title>channelModel.js&#45;&gt;addressModel.js</title>
<path fill="none" stroke="#757575" d="M1316.223,-700.8496C1368.8682,-698.9655 1446.7227,-694.7414 1514,-685.3399 1527.2554,-683.4876 1541.395,-680.8393 1554.6763,-678.0446"/>
<polygon fill="#757575" stroke="#757575" points="1555.6028,-681.4252 1564.6366,-675.8897 1554.1226,-674.5835 1555.6028,-681.4252"/>
</g>
<!-- continuationModel.js -->
<g id="node12" class="node">
<title>continuationModel.js</title>
<path fill="none" stroke="#cfffac" d="M1506.3333,-675.8399C1506.3333,-675.8399 1372.6667,-675.8399 1372.6667,-675.8399 1368.8333,-675.8399 1365,-672.0066 1365,-668.1733 1365,-668.1733 1365,-660.5066 1365,-660.5066 1365,-656.6733 1368.8333,-652.8399 1372.6667,-652.8399 1372.6667,-652.8399 1506.3333,-652.8399 1506.3333,-652.8399 1510.1667,-652.8399 1514,-656.6733 1514,-660.5066 1514,-660.5066 1514,-668.1733 1514,-668.1733 1514,-672.0066 1510.1667,-675.8399 1506.3333,-675.8399"/>
<text text-anchor="middle" x="1439.5" y="-660.6399" font-family="Arial" font-size="14.00" fill="#cfffac">continuationModel.js</text>
</g>
<!-- channelModel.js&#45;&gt;continuationModel.js -->
<g id="edge10" class="edge">
<title>channelModel.js&#45;&gt;continuationModel.js</title>
<path fill="none" stroke="#757575" d="M1310.8568,-690.8356C1330.6355,-686.7619 1353.0723,-682.1408 1373.607,-677.9114"/>
<polygon fill="#757575" stroke="#757575" points="1374.4266,-681.3161 1383.5149,-675.8707 1373.0144,-674.46 1374.4266,-681.3161"/>
</g>
<!-- remoteModel.js -->
<g id="node13" class="node">
<title>remoteModel.js</title>
<path fill="none" stroke="#c6c5fe" d="M1489.8333,-581.8399C1489.8333,-581.8399 1389.1667,-581.8399 1389.1667,-581.8399 1385.3333,-581.8399 1381.5,-578.0066 1381.5,-574.1733 1381.5,-574.1733 1381.5,-566.5066 1381.5,-566.5066 1381.5,-562.6733 1385.3333,-558.8399 1389.1667,-558.8399 1389.1667,-558.8399 1489.8333,-558.8399 1489.8333,-558.8399 1493.6667,-558.8399 1497.5,-562.6733 1497.5,-566.5066 1497.5,-566.5066 1497.5,-574.1733 1497.5,-574.1733 1497.5,-578.0066 1493.6667,-581.8399 1489.8333,-581.8399"/>
<text text-anchor="middle" x="1439.5" y="-566.6399" font-family="Arial" font-size="14.00" fill="#c6c5fe">remoteModel.js</text>
</g>
<!-- channelModel.js&#45;&gt;remoteModel.js -->
<g id="edge11" class="edge">
<title>channelModel.js&#45;&gt;remoteModel.js</title>
<path fill="none" stroke="#757575" d="M1271.3731,-690.6258C1303.7866,-667.4357 1376.2999,-615.5563 1414.6397,-588.1261"/>
<polygon fill="#757575" stroke="#757575" points="1417.0672,-590.693 1423.1635,-582.0278 1412.9941,-585 1417.0672,-590.693"/>
</g>
<!-- remoteModel.js&#45;&gt;addressModel.js -->
<g id="edge68" class="edge">
<title>remoteModel.js&#45;&gt;addressModel.js</title>
<path fill="none" stroke="#757575" d="M1461.3817,-581.9919C1476.2481,-589.932 1496.3428,-600.7106 1514,-610.3399 1536.7744,-622.7599 1562.4344,-636.9808 1581.712,-647.7102"/>
<polygon fill="#757575" stroke="#757575" points="1580.1829,-650.8648 1590.6222,-652.6738 1583.5895,-644.7496 1580.1829,-650.8648"/>
</g>
<!-- covenantIdModel.js&#45;&gt;integrityModel.js -->
<g id="edge12" class="edge">
<title>covenantIdModel.js&#45;&gt;integrityModel.js</title>
<path fill="none" stroke="#757575" d="M962.083,-904.9645C1035.5807,-905.5513 1153.2739,-906.3399 1255,-906.3399 1255,-906.3399 1255,-906.3399 1439.5,-906.3399 1589.2123,-906.3399 1716.0535,-742.3663 1756.2346,-684.369"/>
<polygon fill="#757575" stroke="#757575" points="1759.1905,-686.2467 1761.9296,-676.0121 1753.4059,-682.3047 1759.1905,-686.2467"/>
</g>
<!-- networkModel.js&#45;&gt;addressModel.js -->
<g id="edge59" class="edge">
<title>networkModel.js&#45;&gt;addressModel.js</title>
<path fill="none" stroke="#757575" d="M1115.8487,-690.7627C1172.9749,-676.5023 1275.5705,-653.0916 1365,-644.3399 1430.9074,-637.8901 1448.1163,-637.6523 1514,-644.3399 1527.2883,-645.6888 1541.4409,-648.0465 1554.7244,-650.6808"/>
<polygon fill="#757575" stroke="#757575" points="1554.1832,-654.1428 1564.6843,-652.737 1555.5986,-647.2873 1554.1832,-654.1428"/>
</g>
<!-- networkModel.js&#45;&gt;provenanceModel.js -->
<g id="edge61" class="edge">
<title>networkModel.js&#45;&gt;provenanceModel.js</title>
<path fill="none" stroke="#757575" d="M1091.5494,-690.7474C1107.7592,-680.5304 1130.2358,-664.3379 1145,-645.3399 1203.2268,-570.4157 1237.2112,-459.9333 1249.6026,-413.8025"/>
<polygon fill="#757575" stroke="#757575" points="1253.0221,-414.5603 1252.1678,-403.9999 1246.2501,-412.7881 1253.0221,-414.5603"/>
</g>
<!-- networkModel.js&#45;&gt;channelModel.js -->
<g id="edge60" class="edge">
<title>networkModel.js&#45;&gt;channelModel.js</title>
<path fill="none" stroke="#757575" d="M1132.6028,-702.3399C1148.9209,-702.3399 1166.7002,-702.3399 1183.5224,-702.3399"/>
<polygon fill="#757575" stroke="#757575" points="1183.8514,-705.84 1193.8513,-702.3399 1183.8513,-698.84 1183.8514,-705.84"/>
</g>
<!-- pendingModel.js&#45;&gt;addressModel.js -->
<g id="edge62" class="edge">
<title>pendingModel.js&#45;&gt;addressModel.js</title>
<path fill="none" stroke="#757575" d="M952.2848,-746.2311C1065.6051,-751.7164 1313.4609,-756.0182 1514,-705.3399 1536.8923,-699.5548 1561.3862,-689.2372 1580.0972,-680.4"/>
<polygon fill="#757575" stroke="#757575" points="1581.8345,-683.4477 1589.3155,-675.9454 1578.7888,-677.145 1581.8345,-683.4477"/>
</g>
<!-- pendingModel.js&#45;&gt;networkModel.js -->
<g id="edge63" class="edge">
<title>pendingModel.js&#45;&gt;networkModel.js</title>
<path fill="none" stroke="#757575" d="M942.8527,-730.7703C963.6769,-726.1682 987.7995,-720.8373 1009.4905,-716.0437"/>
<polygon fill="#757575" stroke="#757575" points="1010.2558,-719.4591 1019.265,-713.8836 1008.7453,-712.624 1010.2558,-719.4591"/>
</g>
<!-- simpleArrayModel.js -->
<g id="node26" class="node">
<title>simpleArrayModel.js</title>
<path fill="none" stroke="#cfffac" d="M1137.3333,-635.8399C1137.3333,-635.8399 1005.6667,-635.8399 1005.6667,-635.8399 1001.8333,-635.8399 998,-632.0066 998,-628.1733 998,-628.1733 998,-620.5066 998,-620.5066 998,-616.6733 1001.8333,-612.8399 1005.6667,-612.8399 1005.6667,-612.8399 1137.3333,-612.8399 1137.3333,-612.8399 1141.1667,-612.8399 1145,-616.6733 1145,-620.5066 1145,-620.5066 1145,-628.1733 1145,-628.1733 1145,-632.0066 1141.1667,-635.8399 1137.3333,-635.8399"/>
<text text-anchor="middle" x="1071.5" y="-620.6399" font-family="Arial" font-size="14.00" fill="#cfffac">simpleArrayModel.js</text>
</g>
<!-- pendingModel.js&#45;&gt;simpleArrayModel.js -->
<g id="edge64" class="edge">
<title>pendingModel.js&#45;&gt;simpleArrayModel.js</title>
<path fill="none" stroke="#757575" d="M908.1846,-730.8107C940.0842,-710.0143 1007.4164,-666.1182 1044.8974,-641.683"/>
<polygon fill="#757575" stroke="#757575" points="1047.278,-644.3092 1053.7436,-635.9159 1043.4551,-638.4453 1047.278,-644.3092"/>
</g>
<!-- validatorsModel.js&#45;&gt;keypairModel.js -->
<g id="edge69" class="edge">
<title>validatorsModel.js&#45;&gt;keypairModel.js</title>
<path fill="none" stroke="#757575" d="M945.2972,-190.8356C964.6124,-186.7804 986.5118,-182.1828 1006.5822,-177.9691"/>
<polygon fill="#757575" stroke="#757575" points="1007.5095,-181.3508 1016.577,-175.8707 1006.0712,-174.5001 1007.5095,-181.3508"/>
</g>
<!-- index.js -->
<g id="node21" class="node">
<title>index.js</title>
<path fill="none" stroke="#c6c5fe" d="M58.3333,-671.8399C58.3333,-671.8399 7.6667,-671.8399 7.6667,-671.8399 3.8333,-671.8399 0,-668.0066 0,-664.1733 0,-664.1733 0,-656.5066 0,-656.5066 0,-652.6733 3.8333,-648.8399 7.6667,-648.8399 7.6667,-648.8399 58.3333,-648.8399 58.3333,-648.8399 62.1667,-648.8399 66,-652.6733 66,-656.5066 66,-656.5066 66,-664.1733 66,-664.1733 66,-668.0066 62.1667,-671.8399 58.3333,-671.8399"/>
<text text-anchor="middle" x="33" y="-656.6399" font-family="Arial" font-size="14.00" fill="#c6c5fe">index.js</text>
</g>
<!-- index.js&#45;&gt;aclModel.js -->
<g id="edge23" class="edge">
<title>index.js&#45;&gt;aclModel.js</title>
<path fill="none" stroke="#757575" d="M37.6914,-672.1637C46.8007,-693.5984 68.9365,-738.9097 102,-763.3399 176.4672,-818.3629 208.9101,-823.3399 301.5,-823.3399 301.5,-823.3399 301.5,-823.3399 596.5,-823.3399 679.8011,-823.3399 776.3777,-823.7463 835.4488,-824.041"/>
<polygon fill="#757575" stroke="#757575" points="835.6547,-827.542 845.6723,-824.0927 835.6902,-820.5421 835.6547,-827.542"/>
</g>
<!-- index.js&#45;&gt;actionModel.js -->
<g id="edge24" class="edge">
<title>index.js&#45;&gt;actionModel.js</title>
<path fill="none" stroke="#757575" d="M33.5144,-672.0095C36.2422,-728.3883 50.8765,-971.9493 102,-1023.3399 165.7169,-1087.3898 211.155,-1062.3399 301.5,-1062.3399 301.5,-1062.3399 301.5,-1062.3399 890.5,-1062.3399 1111.6135,-1062.3399 1344.5595,-897.8138 1416.8094,-842.3475"/>
<polygon fill="#757575" stroke="#757575" points="1419.0541,-845.036 1424.8122,-836.1424 1414.7648,-839.5041 1419.0541,-845.036"/>
</g>
<!-- index.js&#45;&gt;addressModel.js -->
<g id="edge25" class="edge">
<title>index.js&#45;&gt;addressModel.js</title>
<path fill="none" stroke="#757575" d="M33.3158,-671.9055C35.1759,-731.2421 46.6134,-1000.9321 102,-1058.3399 164.9129,-1123.5487 210.8897,-1100.3399 301.5,-1100.3399 301.5,-1100.3399 301.5,-1100.3399 890.5,-1100.3399 1189.8911,-1100.3399 1308.5426,-1063.1064 1514,-845.3399 1559.9246,-796.6639 1590.8784,-722.1998 1604.1565,-685.8312"/>
<polygon fill="#757575" stroke="#757575" points="1607.5157,-686.8309 1607.5693,-676.2362 1600.9204,-684.485 1607.5157,-686.8309"/>
</g>
<!-- index.js&#45;&gt;integrityModel.js -->
<g id="edge33" class="edge">
<title>index.js&#45;&gt;integrityModel.js</title>
<path fill="none" stroke="#757575" d="M33.1482,-672.0922C34.1852,-734.9446 42.2226,-1030.9013 102,-1094.3399 164.2684,-1160.422 210.7024,-1138.3399 301.5,-1138.3399 301.5,-1138.3399 301.5,-1138.3399 1439.5,-1138.3399 1663.0414,-1138.3399 1747.506,-778.8683 1765.5946,-686.0164"/>
<polygon fill="#757575" stroke="#757575" points="1769.0589,-686.5328 1767.4764,-676.0568 1762.1806,-685.2332 1769.0589,-686.5328"/>
</g>
<!-- index.js&#45;&gt;binaryModel.js -->
<g id="edge26" class="edge">
<title>index.js&#45;&gt;binaryModel.js</title>
<path fill="none" stroke="#757575" d="M33.9523,-671.9416C38.3074,-721.9911 58.0336,-918.6788 102,-958.3399 168.3522,-1018.1949 212.1399,-983.3399 301.5,-983.3399 301.5,-983.3399 301.5,-983.3399 596.5,-983.3399 675.1485,-983.3399 765.631,-983.7022 825.2088,-983.9907"/>
<polygon fill="#757575" stroke="#757575" points="825.2131,-987.4906 835.2302,-984.0399 825.2475,-980.4907 825.2131,-987.4906"/>
</g>
<!-- index.js&#45;&gt;blockModel.js -->
<g id="edge27" class="edge">
<title>index.js&#45;&gt;blockModel.js</title>
<path fill="none" stroke="#757575" d="M34.1048,-648.4518C40.2391,-583.664 70.9574,-275.0602 102,-247.3399 231.2903,-131.8872 464.2129,-195.4275 556.8954,-227.4437"/>
<polygon fill="#757575" stroke="#757575" points="555.8614,-230.7902 566.4563,-230.8077 558.1848,-224.187 555.8614,-230.7902"/>
</g>
<!-- index.js&#45;&gt;dmzModel.js -->
<g id="edge32" class="edge">
<title>index.js&#45;&gt;dmzModel.js</title>
<path fill="none" stroke="#757575" d="M66.2499,-668.531C116.7496,-680.2336 215.9608,-700.3399 301.5,-700.3399 301.5,-700.3399 301.5,-700.3399 456,-700.3399 531.4241,-700.3399 618.3581,-700.7126 674.6436,-701.0029"/>
<polygon fill="#757575" stroke="#757575" points="674.7688,-704.5035 684.787,-701.056 674.8055,-697.5036 674.7688,-704.5035"/>
</g>
<!-- index.js&#45;&gt;keypairModel.js -->
<g id="edge35" class="edge">
<title>index.js&#45;&gt;keypairModel.js</title>
<path fill="none" stroke="#757575" d="M33.8202,-648.7313C39.0345,-576.2894 68.4184,-188.0705 102,-148.3399 161.9376,-77.4275 208.6502,-86.3399 301.5,-86.3399 301.5,-86.3399 301.5,-86.3399 734,-86.3399 844.7436,-86.3399 970.7993,-126.6999 1032.8355,-149.3556"/>
<polygon fill="#757575" stroke="#757575" points="1031.637,-152.6439 1042.2301,-152.8308 1034.0656,-146.0787 1031.637,-152.6439"/>
</g>
<!-- index.js&#45;&gt;provenanceModel.js -->
<g id="edge40" class="edge">
<title>index.js&#45;&gt;provenanceModel.js</title>
<path fill="none" stroke="#757575" d="M33.8605,-648.6604C36.8681,-616.7267 49.7838,-527.3504 102,-482.3399 147.8977,-442.776 174.9992,-460.8139 235,-452.3399 579.862,-403.6346 995.7156,-394.3456 1170.8156,-392.6613"/>
<polygon fill="#757575" stroke="#757575" points="1171.0227,-396.1597 1180.9906,-392.5695 1170.9594,-389.16 1171.0227,-396.1597"/>
</g>
<!-- index.js&#45;&gt;publicKeyModel.js -->
<g id="edge41" class="edge">
<title>index.js&#45;&gt;publicKeyModel.js</title>
<path fill="none" stroke="#757575" d="M33.5709,-648.7652C37.5081,-571.0605 61.6784,-127.1267 102,-84.3399 163.7925,-18.7696 211.4013,-48.3399 301.5,-48.3399 301.5,-48.3399 301.5,-48.3399 890.5,-48.3399 1009.1676,-48.3399 1145.0783,-87.421 1212.4804,-109.5335"/>
<polygon fill="#757575" stroke="#757575" points="1211.7139,-112.9668 1222.3074,-112.7972 1213.9203,-106.3236 1211.7139,-112.9668"/>
</g>
<!-- index.js&#45;&gt;channelModel.js -->
<g id="edge28" class="edge">
<title>index.js&#45;&gt;channelModel.js</title>
<path fill="none" stroke="#757575" d="M34.5849,-672.0639C40.8782,-716.8463 65.5467,-876.2501 102,-909.3399 168.6551,-969.8449 211.4792,-944.3399 301.5,-944.3399 301.5,-944.3399 301.5,-944.3399 890.5,-944.3399 1050.8939,-944.3399 1194.682,-779.6908 1240.1318,-722.0124"/>
<polygon fill="#757575" stroke="#757575" points="1242.9751,-724.0575 1246.3428,-714.0121 1237.4457,-719.7648 1242.9751,-724.0575"/>
</g>
<!-- index.js&#45;&gt;continuationModel.js -->
<g id="edge30" class="edge">
<title>index.js&#45;&gt;continuationModel.js</title>
<path fill="none" stroke="#757575" d="M33.7385,-671.9888C37.3492,-725.1138 54.9182,-943.7894 102,-989.3399 166.6978,-1051.9335 211.4792,-1024.3399 301.5,-1024.3399 301.5,-1024.3399 301.5,-1024.3399 734,-1024.3399 835.6846,-1024.3399 865.6709,-1037.9045 962,-1005.3399 1168.4164,-935.5597 1363.2475,-744.3294 1421.7506,-683.3149"/>
<polygon fill="#757575" stroke="#757575" points="1424.4403,-685.5654 1428.7949,-675.9068 1419.3676,-680.7418 1424.4403,-685.5654"/>
</g>
<!-- index.js&#45;&gt;remoteModel.js -->
<g id="edge42" class="edge">
<title>index.js&#45;&gt;remoteModel.js</title>
<path fill="none" stroke="#757575" d="M48.0736,-648.7816C87.4246,-619.7995 197.4303,-546.3399 301.5,-546.3399 301.5,-546.3399 301.5,-546.3399 456,-546.3399 652.043,-546.3399 694.457,-470.3399 890.5,-470.3399 890.5,-470.3399 890.5,-470.3399 1071.5,-470.3399 1188.3435,-470.3399 1217.4644,-488.5231 1329,-523.3399 1355.8692,-531.7274 1385.1337,-544.3415 1406.7925,-554.3907"/>
<polygon fill="#757575" stroke="#757575" points="1405.337,-557.5738 1415.8759,-558.6614 1408.3155,-551.2391 1405.337,-557.5738"/>
</g>
<!-- index.js&#45;&gt;configModel.js -->
<g id="edge29" class="edge">
<title>index.js&#45;&gt;configModel.js</title>
<path fill="none" stroke="#757575" d="M41.6758,-672.0712C53.5824,-687.3269 76.4413,-713.7439 102,-728.3399 181.6666,-773.8358 209.7577,-781.3399 301.5,-781.3399 301.5,-781.3399 301.5,-781.3399 596.5,-781.3399 675.1499,-781.3399 765.632,-782.0645 825.2095,-782.6414"/>
<polygon fill="#757575" stroke="#757575" points="825.1968,-786.1413 835.2308,-782.7399 825.2657,-779.1417 825.1968,-786.1413"/>
</g>
<!-- index.js&#45;&gt;covenantIdModel.js -->
<g id="edge31" class="edge">
<title>index.js&#45;&gt;covenantIdModel.js</title>
<path fill="none" stroke="#757575" d="M35.0119,-672.0576C42.3379,-713.3036 68.9035,-850.775 102,-878.3399 170.6642,-935.5279 212.1399,-903.3399 301.5,-903.3399 301.5,-903.3399 301.5,-903.3399 596.5,-903.3399 668.2728,-903.3399 749.9008,-903.6416 808.9033,-903.9136"/>
<polygon fill="#757575" stroke="#757575" points="808.8936,-907.4135 818.9099,-903.9604 808.9264,-900.4136 808.8936,-907.4135"/>
</g>
<!-- index.js&#45;&gt;networkModel.js -->
<g id="edge37" class="edge">
<title>index.js&#45;&gt;networkModel.js</title>
<path fill="none" stroke="#757575" d="M35.4002,-672.2147C41.5096,-699.3725 60.2164,-766.4332 102,-802.3399 172.42,-862.8553 208.6502,-864.3399 301.5,-864.3399 301.5,-864.3399 301.5,-864.3399 734,-864.3399 835.6846,-864.3399 872.7742,-894.1098 962,-845.3399 1012.5069,-817.7334 1046.9952,-755.8913 1062.3873,-723.3219"/>
<polygon fill="#757575" stroke="#757575" points="1065.7395,-724.4068 1066.7099,-713.8565 1059.3721,-721.499 1065.7395,-724.4068"/>
</g>
<!-- index.js&#45;&gt;pendingModel.js -->
<g id="edge38" class="edge">
<title>index.js&#45;&gt;pendingModel.js</title>
<path fill="none" stroke="#757575" d="M50.7565,-672.0116C64.2993,-680.4359 83.6826,-691.4902 102,-698.3399 186.9572,-730.1092 210.7971,-741.3399 301.5,-741.3399 301.5,-741.3399 301.5,-741.3399 596.5,-741.3399 672.3741,-741.3399 759.2619,-741.6771 818.7903,-741.9599"/>
<polygon fill="#757575" stroke="#757575" points="818.8227,-745.46 828.8395,-742.0083 818.8566,-738.4601 818.8227,-745.46"/>
</g>
<!-- index.js&#45;&gt;stateModel.js -->
<g id="edge45" class="edge">
<title>index.js&#45;&gt;stateModel.js</title>
<path fill="none" stroke="#757575" d="M66.0684,-660.3399C116.7442,-660.3399 216.6615,-660.3399 301.5,-660.3399 301.5,-660.3399 301.5,-660.3399 596.5,-660.3399 677.5584,-660.3399 770.262,-646.6908 829.5372,-636.2013"/>
<polygon fill="#757575" stroke="#757575" points="830.2563,-639.6282 839.4802,-634.4158 829.019,-632.7384 830.2563,-639.6282"/>
</g>
<!-- index.js&#45;&gt;timestampModel.js -->
<g id="edge46" class="edge">
<title>index.js&#45;&gt;timestampModel.js</title>
<path fill="none" stroke="#757575" d="M34.8127,-648.7803C41.8417,-605.3347 68.5738,-452.5631 102,-418.3399 166.8768,-351.9163 208.6502,-356.3399 301.5,-356.3399 301.5,-356.3399 301.5,-356.3399 596.5,-356.3399 669.4803,-356.3399 752.6485,-355.7161 811.8596,-355.1652"/>
<polygon fill="#757575" stroke="#757575" points="811.9223,-358.6649 821.8888,-355.0705 811.8561,-351.6652 811.9223,-358.6649"/>
</g>
<!-- index.js&#45;&gt;validatorsModel.js -->
<g id="edge47" class="edge">
<title>index.js&#45;&gt;validatorsModel.js</title>
<path fill="none" stroke="#757575" d="M33.8832,-648.756C39.2489,-579.7694 68.3635,-224.9186 102,-191.3399 165.4103,-128.0387 211.9014,-162.3399 301.5,-162.3399 301.5,-162.3399 301.5,-162.3399 596.5,-162.3399 676.9682,-162.3399 768.7035,-177.234 827.9928,-188.8452"/>
<polygon fill="#757575" stroke="#757575" points="827.458,-192.3073 837.9485,-190.8239 828.8226,-185.4416 827.458,-192.3073"/>
</g>
<!-- interblockModel.js -->
<g id="node22" class="node">
<title>interblockModel.js</title>
<path fill="none" stroke="#c6c5fe" d="M360.3333,-483.8399C360.3333,-483.8399 242.6667,-483.8399 242.6667,-483.8399 238.8333,-483.8399 235,-480.0066 235,-476.1733 235,-476.1733 235,-468.5066 235,-468.5066 235,-464.6733 238.8333,-460.8399 242.6667,-460.8399 242.6667,-460.8399 360.3333,-460.8399 360.3333,-460.8399 364.1667,-460.8399 368,-464.6733 368,-468.5066 368,-468.5066 368,-476.1733 368,-476.1733 368,-480.0066 364.1667,-483.8399 360.3333,-483.8399"/>
<text text-anchor="middle" x="301.5" y="-468.6399" font-family="Arial" font-size="14.00" fill="#c6c5fe">interblockModel.js</text>
</g>
<!-- index.js&#45;&gt;interblockModel.js -->
<g id="edge34" class="edge">
<title>index.js&#45;&gt;interblockModel.js</title>
<path fill="none" stroke="#757575" d="M36.056,-648.4717C43.1729,-623.2273 63.2669,-563.9362 102,-532.3399 136.7499,-503.9929 184.6386,-489.0299 224.7867,-481.136"/>
<polygon fill="#757575" stroke="#757575" points="225.6196,-484.5413 234.8143,-479.2775 224.3439,-477.6585 225.6196,-484.5413"/>
</g>
<!-- lockModel.js -->
<g id="node23" class="node">
<title>lockModel.js</title>
<path fill="none" stroke="#c6c5fe" d="M191.3333,-327.8399C191.3333,-327.8399 109.6667,-327.8399 109.6667,-327.8399 105.8333,-327.8399 102,-324.0066 102,-320.1733 102,-320.1733 102,-312.5066 102,-312.5066 102,-308.6733 105.8333,-304.8399 109.6667,-304.8399 109.6667,-304.8399 191.3333,-304.8399 191.3333,-304.8399 195.1667,-304.8399 199,-308.6733 199,-312.5066 199,-312.5066 199,-320.1733 199,-320.1733 199,-324.0066 195.1667,-327.8399 191.3333,-327.8399"/>
<text text-anchor="middle" x="150.5" y="-312.6399" font-family="Arial" font-size="14.00" fill="#c6c5fe">lockModel.js</text>
</g>
<!-- index.js&#45;&gt;lockModel.js -->
<g id="edge36" class="edge">
<title>index.js&#45;&gt;lockModel.js</title>
<path fill="none" stroke="#757575" d="M34.2158,-648.7026C39.7555,-597.5206 63.986,-392.7428 102,-342.3399 104.4539,-339.0863 107.4366,-336.1951 110.7037,-333.6358"/>
<polygon fill="#757575" stroke="#757575" points="112.8812,-336.3912 119.2718,-327.9406 109.0062,-330.5615 112.8812,-336.3912"/>
</g>
<!-- proofModel.js -->
<g id="node24" class="node">
<title>proofModel.js</title>
<path fill="none" stroke="#c6c5fe" d="M500.3333,-289.8399C500.3333,-289.8399 411.6667,-289.8399 411.6667,-289.8399 407.8333,-289.8399 404,-286.0066 404,-282.1733 404,-282.1733 404,-274.5066 404,-274.5066 404,-270.6733 407.8333,-266.8399 411.6667,-266.8399 411.6667,-266.8399 500.3333,-266.8399 500.3333,-266.8399 504.1667,-266.8399 508,-270.6733 508,-274.5066 508,-274.5066 508,-282.1733 508,-282.1733 508,-286.0066 504.1667,-289.8399 500.3333,-289.8399"/>
<text text-anchor="middle" x="456" y="-274.6399" font-family="Arial" font-size="14.00" fill="#c6c5fe">proofModel.js</text>
</g>
<!-- index.js&#45;&gt;proofModel.js -->
<g id="edge39" class="edge">
<title>index.js&#45;&gt;proofModel.js</title>
<path fill="none" stroke="#757575" d="M33.3638,-648.4832C35.3853,-591.2218 47.2205,-344.108 102,-296.3399 187.3827,-221.8858 333.0254,-245.2045 408.1087,-264.1792"/>
<polygon fill="#757575" stroke="#757575" points="407.6617,-267.6796 418.2214,-266.8171 409.4286,-260.9063 407.6617,-267.6796"/>
</g>
<!-- index.js&#45;&gt;signatureModel.js -->
<g id="edge43" class="edge">
<title>index.js&#45;&gt;signatureModel.js</title>
<path fill="none" stroke="#757575" d="M33.4495,-648.6217C36.693,-566.8932 57.6649,-83.9779 102,-38.3399 164.388,25.8814 211.9643,-10.3399 301.5,-10.3399 301.5,-10.3399 301.5,-10.3399 890.5,-10.3399 990.736,-10.3399 1105.6881,-24.3606 1179.2554,-35.1402"/>
<polygon fill="#757575" stroke="#757575" points="1178.9503,-38.6332 1189.3556,-36.638 1179.9772,-31.7089 1178.9503,-38.6332"/>
</g>
<!-- index.js&#45;&gt;simpleArrayModel.js -->
<g id="edge44" class="edge">
<title>index.js&#45;&gt;simpleArrayModel.js</title>
<path fill="none" stroke="#757575" d="M66.2729,-652.5584C116.8024,-641.441 216.0514,-622.3399 301.5,-622.3399 301.5,-622.3399 301.5,-622.3399 456,-622.3399 681.0311,-622.3399 737.8863,-584.0408 962,-604.3399 977.3931,-605.7342 993.8561,-608.2094 1009.2178,-610.9541"/>
<polygon fill="#757575" stroke="#757575" points="1008.6615,-614.4104 1019.1313,-612.7879 1009.9349,-607.5272 1008.6615,-614.4104"/>
</g>
<!-- interblockModel.js&#45;&gt;blockModel.js -->
<g id="edge48" class="edge">
<title>interblockModel.js&#45;&gt;blockModel.js</title>
<path fill="none" stroke="#757575" d="M316.5347,-460.618C364.6686,-423.0899 515.2101,-305.7185 573.3058,-260.4235"/>
<polygon fill="#757575" stroke="#757575" points="575.7613,-262.9472 581.4956,-254.0383 571.4572,-257.4267 575.7613,-262.9472"/>
</g>
<!-- interblockModel.js&#45;&gt;channelModel.js -->
<g id="edge49" class="edge">
<title>interblockModel.js&#45;&gt;channelModel.js</title>
<path fill="none" stroke="#757575" d="M319.9381,-483.9355C339.8454,-495.8189 372.8946,-513.737 404,-522.3399 723.3547,-610.6645 847.4738,-458.5085 1145,-604.3399 1184.0681,-623.489 1219.7856,-660.4609 1239.355,-683.1143"/>
<polygon fill="#757575" stroke="#757575" points="1236.6824,-685.3743 1245.8105,-690.7529 1242.0289,-680.8559 1236.6824,-685.3743"/>
</g>
<!-- interblockModel.js&#45;&gt;continuationModel.js -->
<g id="edge50" class="edge">
<title>interblockModel.js&#45;&gt;continuationModel.js</title>
<path fill="none" stroke="#757575" d="M360.8498,-483.8791C420.2379,-494.409 514.3346,-508.3399 596.5,-508.3399 596.5,-508.3399 596.5,-508.3399 1071.5,-508.3399 1211.7999,-508.3399 1360.0285,-605.6452 1416.1496,-646.5563"/>
<polygon fill="#757575" stroke="#757575" points="1414.2276,-649.4879 1424.3505,-652.6146 1418.3868,-643.8576 1414.2276,-649.4879"/>
</g>
<!-- interblockModel.js&#45;&gt;remoteModel.js -->
<g id="edge52" class="edge">
<title>interblockModel.js&#45;&gt;remoteModel.js</title>
<path fill="none" stroke="#757575" d="M368.0899,-464.8632C477.1272,-453.2857 700.6327,-432.3399 890.5,-432.3399 890.5,-432.3399 890.5,-432.3399 1071.5,-432.3399 1186.4405,-432.3399 1232.5848,-393.7666 1329,-456.3399 1356.3757,-474.1067 1342.8489,-496.373 1365,-520.3399 1377.1421,-533.4773 1393.3832,-544.8901 1407.602,-553.4817"/>
<polygon fill="#757575" stroke="#757575" points="1406.1865,-556.7074 1416.5903,-558.71 1409.7061,-550.6566 1406.1865,-556.7074"/>
</g>
<!-- interblockModel.js&#45;&gt;proofModel.js -->
<g id="edge51" class="edge">
<title>interblockModel.js&#45;&gt;proofModel.js</title>
<path fill="none" stroke="#757575" d="M310.702,-460.7853C336.2423,-428.7153 408.2316,-338.321 440.2763,-298.0836"/>
<polygon fill="#757575" stroke="#757575" points="443.159,-300.0821 446.6509,-290.0793 437.6833,-295.7213 443.159,-300.0821"/>
</g>
<!-- lockModel.js&#45;&gt;blockModel.js -->
<g id="edge56" class="edge">
<title>lockModel.js&#45;&gt;blockModel.js</title>
<path fill="none" stroke="#757575" d="M192.754,-304.7321C242.7871,-291.4405 328.8256,-270.0035 404,-258.3399 447.0132,-251.6663 495.8951,-247.6469 533.6372,-245.3058"/>
<polygon fill="#757575" stroke="#757575" points="534.1991,-248.7786 543.9728,-244.6892 533.7821,-241.791 534.1991,-248.7786"/>
</g>
<!-- lockModel.js&#45;&gt;timestampModel.js -->
<g id="edge58" class="edge">
<title>lockModel.js&#45;&gt;timestampModel.js</title>
<path fill="none" stroke="#757575" d="M199.1772,-316.855C259.4627,-317.4476 365.3027,-318.3399 456,-318.3399 456,-318.3399 456,-318.3399 596.5,-318.3399 673.9125,-318.3399 761.9464,-330.7889 821.3402,-341.0455"/>
<polygon fill="#757575" stroke="#757575" points="820.8989,-344.5215 831.3531,-342.8008 822.1077,-337.6266 820.8989,-344.5215"/>
</g>
<!-- lockModel.js&#45;&gt;interblockModel.js -->
<g id="edge57" class="edge">
<title>lockModel.js&#45;&gt;interblockModel.js</title>
<path fill="none" stroke="#757575" d="M161.8495,-328.0653C187.647,-354.717 250.9064,-420.071 282.6652,-452.8814"/>
<polygon fill="#757575" stroke="#757575" points="280.5489,-455.7275 290.0188,-460.4785 285.5786,-450.8589 280.5489,-455.7275"/>
</g>
<!-- proofModel.js&#45;&gt;blockModel.js -->
<g id="edge65" class="edge">
<title>proofModel.js&#45;&gt;blockModel.js</title>
<path fill="none" stroke="#757575" d="M501.2285,-266.7511C514.0135,-263.4753 528.0704,-259.8735 541.3686,-256.4661"/>
<polygon fill="#757575" stroke="#757575" points="542.538,-259.7796 551.3563,-253.907 540.8005,-252.9987 542.538,-259.7796"/>
</g>
</g>
</svg>
