<?xml version="1.0" encoding="UTF-8" standalone="no"?>
<!DOCTYPE svg PUBLIC "-//W3C//DTD SVG 1.1//EN"
 "http://www.w3.org/Graphics/SVG/1.1/DTD/svg11.dtd">
<!-- Generated by graphviz version 2.40.1 (20161225.0304)
 -->
<!-- Title: G Pages: 1 -->
<svg width="514pt" height="1294pt"
 viewBox="0.00 0.00 514.20 1294.20" xmlns="http://www.w3.org/2000/svg" xmlns:xlink="http://www.w3.org/1999/xlink">
<g id="graph0" class="graph" transform="scale(1 1) rotate(0) translate(21.6 1272.6)">
<title>G</title>
<polygon fill="#111111" stroke="transparent" points="-21.6,21.6 -21.6,-1272.6 492.6,-1272.6 492.6,21.6 -21.6,21.6"/>
<!-- Accumulation.js -->
<g id="node1" class="node">
<title>Accumulation.js</title>
<path fill="none" stroke="#ff6c60" d="M111.3333,-617C111.3333,-617 7.6667,-617 7.6667,-617 3.8333,-617 0,-613.1667 0,-609.3333 0,-609.3333 0,-601.6667 0,-601.6667 0,-597.8333 3.8333,-594 7.6667,-594 7.6667,-594 111.3333,-594 111.3333,-594 115.1667,-594 119,-597.8333 119,-601.6667 119,-601.6667 119,-609.3333 119,-609.3333 119,-613.1667 115.1667,-617 111.3333,-617"/>
<text text-anchor="middle" x="59.5" y="-601.8" font-family="Arial" font-size="14.00" fill="#ff6c60">Accumulation.js</text>
</g>
<!-- index.js -->
<g id="node2" class="node">
<title>index.js</title>
<path fill="none" stroke="#ff6c60" d="M213.3333,-617C213.3333,-617 162.6667,-617 162.6667,-617 158.8333,-617 155,-613.1667 155,-609.3333 155,-609.3333 155,-601.6667 155,-601.6667 155,-597.8333 158.8333,-594 162.6667,-594 162.6667,-594 213.3333,-594 213.3333,-594 217.1667,-594 221,-597.8333 221,-601.6667 221,-601.6667 221,-609.3333 221,-609.3333 221,-613.1667 217.1667,-617 213.3333,-617"/>
<text text-anchor="middle" x="188" y="-601.8" font-family="Arial" font-size="14.00" fill="#ff6c60">index.js</text>
</g>
<!-- Accumulation.js&#45;&gt;index.js -->
<g id="edge1" class="edge">
<title>Accumulation.js&#45;&gt;index.js</title>
<path fill="none" stroke="#757575" d="M119.2357,-598.7648C127.8073,-598.7084 136.4865,-598.8129 144.6591,-599.0783"/>
<polygon fill="#757575" stroke="#757575" points="144.5556,-602.5769 154.6939,-599.5005 144.8499,-595.5831 144.5556,-602.5769"/>
</g>
<!-- index.js&#45;&gt;Accumulation.js -->
<g id="edge24" class="edge">
<title>index.js&#45;&gt;Accumulation.js</title>
<path fill="none" stroke="#757575" d="M154.6939,-611.4995C146.8041,-611.9141 138.0964,-612.157 129.2486,-612.228"/>
<polygon fill="#757575" stroke="#757575" points="129.2332,-608.7279 119.2357,-612.2352 129.2383,-615.7279 129.2332,-608.7279"/>
</g>
<!-- Acl.js -->
<g id="node3" class="node">
<title>Acl.js</title>
<path fill="none" stroke="#cfffac" d="M332.8333,-1251C332.8333,-1251 294.1667,-1251 294.1667,-1251 290.3333,-1251 286.5,-1247.1667 286.5,-1243.3333 286.5,-1243.3333 286.5,-1235.6667 286.5,-1235.6667 286.5,-1231.8333 290.3333,-1228 294.1667,-1228 294.1667,-1228 332.8333,-1228 332.8333,-1228 336.6667,-1228 340.5,-1231.8333 340.5,-1235.6667 340.5,-1235.6667 340.5,-1243.3333 340.5,-1243.3333 340.5,-1247.1667 336.6667,-1251 332.8333,-1251"/>
<text text-anchor="middle" x="313.5" y="-1235.8" font-family="Arial" font-size="14.00" fill="#cfffac">Acl.js</text>
</g>
<!-- index.js&#45;&gt;Acl.js -->
<g id="edge25" class="edge">
<title>index.js&#45;&gt;Acl.js</title>
<path fill="none" stroke="#757575" d="M188.5764,-617.2356C192.6417,-698.0511 217.9708,-1170.3622 257,-1219.5 262.0055,-1225.802 269.1437,-1230.1215 276.669,-1233.0814"/>
<polygon fill="#757575" stroke="#757575" points="275.6859,-1236.4415 286.2767,-1236.1501 277.8158,-1229.7734 275.6859,-1236.4415"/>
</g>
<!-- Action.js -->
<g id="node4" class="node">
<title>Action.js</title>
<path fill="none" stroke="#c6c5fe" d="M341.3333,-1210C341.3333,-1210 285.6667,-1210 285.6667,-1210 281.8333,-1210 278,-1206.1667 278,-1202.3333 278,-1202.3333 278,-1194.6667 278,-1194.6667 278,-1190.8333 281.8333,-1187 285.6667,-1187 285.6667,-1187 341.3333,-1187 341.3333,-1187 345.1667,-1187 349,-1190.8333 349,-1194.6667 349,-1194.6667 349,-1202.3333 349,-1202.3333 349,-1206.1667 345.1667,-1210 341.3333,-1210"/>
<text text-anchor="middle" x="313.5" y="-1194.8" font-family="Arial" font-size="14.00" fill="#c6c5fe">Action.js</text>
</g>
<!-- index.js&#45;&gt;Action.js -->
<g id="edge26" class="edge">
<title>index.js&#45;&gt;Action.js</title>
<path fill="none" stroke="#757575" d="M188.7464,-617.2779C193.724,-694.4212 222.9551,-1125.8364 257,-1172.5 260.2616,-1176.9705 264.4817,-1180.6931 269.1458,-1183.7881"/>
<polygon fill="#757575" stroke="#757575" points="267.4762,-1186.8646 277.9096,-1188.7072 270.9025,-1180.7604 267.4762,-1186.8646"/>
</g>
<!-- State.js -->
<g id="node5" class="node">
<title>State.js</title>
<path fill="none" stroke="#cfffac" d="M463.3333,-1190C463.3333,-1190 413.6667,-1190 413.6667,-1190 409.8333,-1190 406,-1186.1667 406,-1182.3333 406,-1182.3333 406,-1174.6667 406,-1174.6667 406,-1170.8333 409.8333,-1167 413.6667,-1167 413.6667,-1167 463.3333,-1167 463.3333,-1167 467.1667,-1167 471,-1170.8333 471,-1174.6667 471,-1174.6667 471,-1182.3333 471,-1182.3333 471,-1186.1667 467.1667,-1190 463.3333,-1190"/>
<text text-anchor="middle" x="438.5" y="-1174.8" font-family="Arial" font-size="14.00" fill="#cfffac">State.js</text>
</g>
<!-- index.js&#45;&gt;State.js -->
<g id="edge50" class="edge">
<title>index.js&#45;&gt;State.js</title>
<path fill="none" stroke="#757575" d="M188.7075,-617.1626C193.3321,-691.6984 220.2098,-1099.5158 257,-1139.5 275.3996,-1159.497 348.3096,-1170.0715 395.9348,-1174.9603"/>
<polygon fill="#757575" stroke="#757575" points="395.6844,-1178.4524 405.9785,-1175.946 396.3682,-1171.4859 395.6844,-1178.4524"/>
</g>
<!-- Address.js -->
<g id="node6" class="node">
<title>Address.js</title>
<path fill="none" stroke="#ff6c60" d="M348.3333,-1130C348.3333,-1130 278.6667,-1130 278.6667,-1130 274.8333,-1130 271,-1126.1667 271,-1122.3333 271,-1122.3333 271,-1114.6667 271,-1114.6667 271,-1110.8333 274.8333,-1107 278.6667,-1107 278.6667,-1107 348.3333,-1107 348.3333,-1107 352.1667,-1107 356,-1110.8333 356,-1114.6667 356,-1114.6667 356,-1122.3333 356,-1122.3333 356,-1126.1667 352.1667,-1130 348.3333,-1130"/>
<text text-anchor="middle" x="313.5" y="-1114.8" font-family="Arial" font-size="14.00" fill="#ff6c60">Address.js</text>
</g>
<!-- index.js&#45;&gt;Address.js -->
<g id="edge27" class="edge">
<title>index.js&#45;&gt;Address.js</title>
<path fill="none" stroke="#757575" d="M189.1365,-617.4209C195.3188,-688.5137 225.7719,-1051.2612 257,-1089.5 262.2407,-1095.9173 269.6873,-1100.2774 277.4606,-1103.5101"/>
<polygon fill="#757575" stroke="#757575" points="276.3837,-1106.8425 286.978,-1106.9566 278.7672,-1100.2607 276.3837,-1106.8425"/>
</g>
<!-- Binary.js -->
<g id="node7" class="node">
<title>Binary.js</title>
<path fill="none" stroke="#ff6c60" d="M341.3333,-1089C341.3333,-1089 285.6667,-1089 285.6667,-1089 281.8333,-1089 278,-1085.1667 278,-1081.3333 278,-1081.3333 278,-1073.6667 278,-1073.6667 278,-1069.8333 281.8333,-1066 285.6667,-1066 285.6667,-1066 341.3333,-1066 341.3333,-1066 345.1667,-1066 349,-1069.8333 349,-1073.6667 349,-1073.6667 349,-1081.3333 349,-1081.3333 349,-1085.1667 345.1667,-1089 341.3333,-1089"/>
<text text-anchor="middle" x="313.5" y="-1073.8" font-family="Arial" font-size="14.00" fill="#ff6c60">Binary.js</text>
</g>
<!-- index.js&#45;&gt;Binary.js -->
<g id="edge28" class="edge">
<title>index.js&#45;&gt;Binary.js</title>
<path fill="none" stroke="#757575" d="M188.2653,-617.0115C189.8253,-680.0296 199.8307,-979.3775 257,-1048.5 262.2805,-1054.8846 269.7422,-1059.2324 277.5172,-1062.4635"/>
<polygon fill="#757575" stroke="#757575" points="276.4369,-1065.7947 287.0311,-1065.9129 278.8229,-1059.2139 276.4369,-1065.7947"/>
</g>
<!-- Block.js -->
<g id="node8" class="node">
<title>Block.js</title>
<path fill="none" stroke="#ff6c60" d="M339.3333,-1048C339.3333,-1048 287.6667,-1048 287.6667,-1048 283.8333,-1048 280,-1044.1667 280,-1040.3333 280,-1040.3333 280,-1032.6667 280,-1032.6667 280,-1028.8333 283.8333,-1025 287.6667,-1025 287.6667,-1025 339.3333,-1025 339.3333,-1025 343.1667,-1025 347,-1028.8333 347,-1032.6667 347,-1032.6667 347,-1040.3333 347,-1040.3333 347,-1044.1667 343.1667,-1048 339.3333,-1048"/>
<text text-anchor="middle" x="313.5" y="-1032.8" font-family="Arial" font-size="14.00" fill="#ff6c60">Block.js</text>
</g>
<!-- index.js&#45;&gt;Block.js -->
<g id="edge29" class="edge">
<title>index.js&#45;&gt;Block.js</title>
<path fill="none" stroke="#757575" d="M188.5223,-617.2804C191.1448,-677.3132 204.8916,-945.4404 257,-1007.5 262.3753,-1013.9019 269.941,-1018.2553 277.7929,-1021.4937"/>
<polygon fill="#757575" stroke="#757575" points="276.7902,-1024.8527 287.3845,-1024.9535 279.1654,-1018.268 276.7902,-1024.8527"/>
</g>
<!-- Channel.js -->
<g id="node9" class="node">
<title>Channel.js</title>
<path fill="none" stroke="#ff6c60" d="M348.8333,-1007C348.8333,-1007 278.1667,-1007 278.1667,-1007 274.3333,-1007 270.5,-1003.1667 270.5,-999.3333 270.5,-999.3333 270.5,-991.6667 270.5,-991.6667 270.5,-987.8333 274.3333,-984 278.1667,-984 278.1667,-984 348.8333,-984 348.8333,-984 352.6667,-984 356.5,-987.8333 356.5,-991.6667 356.5,-991.6667 356.5,-999.3333 356.5,-999.3333 356.5,-1003.1667 352.6667,-1007 348.8333,-1007"/>
<text text-anchor="middle" x="313.5" y="-991.8" font-family="Arial" font-size="14.00" fill="#ff6c60">Channel.js</text>
</g>
<!-- index.js&#45;&gt;Channel.js -->
<g id="edge30" class="edge">
<title>index.js&#45;&gt;Channel.js</title>
<path fill="none" stroke="#757575" d="M188.8335,-617.2981C192.5897,-673.6124 209.8608,-911.3757 257,-966.5 262.4809,-972.9094 270.1544,-977.265 278.0827,-980.5105"/>
<polygon fill="#757575" stroke="#757575" points="277.1553,-983.8963 287.7498,-983.9822 279.5213,-977.3082 277.1553,-983.8963"/>
</g>
<!-- Config.js -->
<g id="node10" class="node">
<title>Config.js</title>
<path fill="none" stroke="#cfffac" d="M342.3333,-966C342.3333,-966 284.6667,-966 284.6667,-966 280.8333,-966 277,-962.1667 277,-958.3333 277,-958.3333 277,-950.6667 277,-950.6667 277,-946.8333 280.8333,-943 284.6667,-943 284.6667,-943 342.3333,-943 342.3333,-943 346.1667,-943 350,-946.8333 350,-950.6667 350,-950.6667 350,-958.3333 350,-958.3333 350,-962.1667 346.1667,-966 342.3333,-966"/>
<text text-anchor="middle" x="313.5" y="-950.8" font-family="Arial" font-size="14.00" fill="#cfffac">Config.js</text>
</g>
<!-- index.js&#45;&gt;Config.js -->
<g id="edge31" class="edge">
<title>index.js&#45;&gt;Config.js</title>
<path fill="none" stroke="#757575" d="M188.9476,-617.3305C193.4134,-670.3096 213.9662,-885.301 257,-934.5 260.0496,-937.9865 263.7471,-940.8652 267.7748,-943.2421"/>
<polygon fill="#757575" stroke="#757575" points="266.4685,-946.4978 276.9966,-947.6851 269.5068,-940.1915 266.4685,-946.4978"/>
</g>
<!-- Continuation.js -->
<g id="node11" class="node">
<title>Continuation.js</title>
<path fill="none" stroke="#cfffac" d="M362.3333,-925C362.3333,-925 264.6667,-925 264.6667,-925 260.8333,-925 257,-921.1667 257,-917.3333 257,-917.3333 257,-909.6667 257,-909.6667 257,-905.8333 260.8333,-902 264.6667,-902 264.6667,-902 362.3333,-902 362.3333,-902 366.1667,-902 370,-905.8333 370,-909.6667 370,-909.6667 370,-917.3333 370,-917.3333 370,-921.1667 366.1667,-925 362.3333,-925"/>
<text text-anchor="middle" x="313.5" y="-909.8" font-family="Arial" font-size="14.00" fill="#cfffac">Continuation.js</text>
</g>
<!-- index.js&#45;&gt;Continuation.js -->
<g id="edge32" class="edge">
<title>index.js&#45;&gt;Continuation.js</title>
<path fill="none" stroke="#757575" d="M189.3076,-617.1462C194.9694,-665.6525 218.8197,-851.0816 257,-893.5 257.7483,-894.3314 258.5335,-895.1282 259.3509,-895.892"/>
<polygon fill="#757575" stroke="#757575" points="257.3466,-898.763 267.4633,-901.91 261.5172,-893.141 257.3466,-898.763"/>
</g>
<!-- CovenantId.js -->
<g id="node12" class="node">
<title>CovenantId.js</title>
<path fill="none" stroke="#ff6c60" d="M358.8333,-884C358.8333,-884 268.1667,-884 268.1667,-884 264.3333,-884 260.5,-880.1667 260.5,-876.3333 260.5,-876.3333 260.5,-868.6667 260.5,-868.6667 260.5,-864.8333 264.3333,-861 268.1667,-861 268.1667,-861 358.8333,-861 358.8333,-861 362.6667,-861 366.5,-864.8333 366.5,-868.6667 366.5,-868.6667 366.5,-876.3333 366.5,-876.3333 366.5,-880.1667 362.6667,-884 358.8333,-884"/>
<text text-anchor="middle" x="313.5" y="-868.8" font-family="Arial" font-size="14.00" fill="#ff6c60">CovenantId.js</text>
</g>
<!-- index.js&#45;&gt;CovenantId.js -->
<g id="edge33" class="edge">
<title>index.js&#45;&gt;CovenantId.js</title>
<path fill="none" stroke="#757575" d="M190.3907,-617.0116C198.2342,-660.1733 224.5505,-808.7719 257,-843.5 262.9741,-849.8936 271.1201,-854.2449 279.3663,-857.5246"/>
<polygon fill="#757575" stroke="#757575" points="278.374,-860.8865 288.9687,-860.9408 280.7203,-854.2914 278.374,-860.8865"/>
</g>
<!-- Dmz.js -->
<g id="node13" class="node">
<title>Dmz.js</title>
<path fill="none" stroke="#ff6c60" d="M336.3333,-843C336.3333,-843 290.6667,-843 290.6667,-843 286.8333,-843 283,-839.1667 283,-835.3333 283,-835.3333 283,-827.6667 283,-827.6667 283,-823.8333 286.8333,-820 290.6667,-820 290.6667,-820 336.3333,-820 336.3333,-820 340.1667,-820 344,-823.8333 344,-827.6667 344,-827.6667 344,-835.3333 344,-835.3333 344,-839.1667 340.1667,-843 336.3333,-843"/>
<text text-anchor="middle" x="313.5" y="-827.8" font-family="Arial" font-size="14.00" fill="#ff6c60">Dmz.js</text>
</g>
<!-- index.js&#45;&gt;Dmz.js -->
<g id="edge34" class="edge">
<title>index.js&#45;&gt;Dmz.js</title>
<path fill="none" stroke="#757575" d="M188.7654,-617.0488C191.4462,-650.8405 203.455,-748.0362 257,-802.5 263.3072,-808.9155 271.7989,-813.2788 280.28,-816.5911"/>
<polygon fill="#757575" stroke="#757575" points="279.1391,-819.9 289.7339,-819.9375 281.4749,-813.3012 279.1391,-819.9"/>
</g>
<!-- Integrity.js -->
<g id="node14" class="node">
<title>Integrity.js</title>
<path fill="none" stroke="#cfffac" d="M346.3333,-802C346.3333,-802 280.6667,-802 280.6667,-802 276.8333,-802 273,-798.1667 273,-794.3333 273,-794.3333 273,-786.6667 273,-786.6667 273,-782.8333 276.8333,-779 280.6667,-779 280.6667,-779 346.3333,-779 346.3333,-779 350.1667,-779 354,-782.8333 354,-786.6667 354,-786.6667 354,-794.3333 354,-794.3333 354,-798.1667 350.1667,-802 346.3333,-802"/>
<text text-anchor="middle" x="313.5" y="-786.8" font-family="Arial" font-size="14.00" fill="#cfffac">Integrity.js</text>
</g>
<!-- index.js&#45;&gt;Integrity.js -->
<g id="edge35" class="edge">
<title>index.js&#45;&gt;Integrity.js</title>
<path fill="none" stroke="#757575" d="M189.6178,-617.3293C194.3267,-647.2683 210.7519,-726.7659 257,-770.5 259.1264,-772.5108 261.4674,-774.3211 263.9504,-775.9508"/>
<polygon fill="#757575" stroke="#757575" points="262.3825,-779.0827 272.8332,-780.8244 265.7497,-772.9457 262.3825,-779.0827"/>
</g>
<!-- Interblock.js -->
<g id="node15" class="node">
<title>Interblock.js</title>
<path fill="none" stroke="#ff6c60" d="M352.8333,-761C352.8333,-761 274.1667,-761 274.1667,-761 270.3333,-761 266.5,-757.1667 266.5,-753.3333 266.5,-753.3333 266.5,-745.6667 266.5,-745.6667 266.5,-741.8333 270.3333,-738 274.1667,-738 274.1667,-738 352.8333,-738 352.8333,-738 356.6667,-738 360.5,-741.8333 360.5,-745.6667 360.5,-745.6667 360.5,-753.3333 360.5,-753.3333 360.5,-757.1667 356.6667,-761 352.8333,-761"/>
<text text-anchor="middle" x="313.5" y="-745.8" font-family="Arial" font-size="14.00" fill="#ff6c60">Interblock.js</text>
</g>
<!-- index.js&#45;&gt;Interblock.js -->
<g id="edge36" class="edge">
<title>index.js&#45;&gt;Interblock.js</title>
<path fill="none" stroke="#757575" d="M193.2319,-617.1873C202.1019,-640.5398 222.5645,-691.4002 257,-720.5 264.4125,-726.7639 273.9231,-731.1183 283.0192,-734.5583"/>
<polygon fill="#757575" stroke="#757575" points="282.0132,-737.9154 292.6079,-737.9792 284.3654,-731.3224 282.0132,-737.9154"/>
</g>
<!-- Keypair.js -->
<g id="node16" class="node">
<title>Keypair.js</title>
<path fill="none" stroke="#ff6c60" d="M345.8333,-720C345.8333,-720 281.1667,-720 281.1667,-720 277.3333,-720 273.5,-716.1667 273.5,-712.3333 273.5,-712.3333 273.5,-704.6667 273.5,-704.6667 273.5,-700.8333 277.3333,-697 281.1667,-697 281.1667,-697 345.8333,-697 345.8333,-697 349.6667,-697 353.5,-700.8333 353.5,-704.6667 353.5,-704.6667 353.5,-712.3333 353.5,-712.3333 353.5,-716.1667 349.6667,-720 345.8333,-720"/>
<text text-anchor="middle" x="313.5" y="-704.8" font-family="Arial" font-size="14.00" fill="#ff6c60">Keypair.js</text>
</g>
<!-- index.js&#45;&gt;Keypair.js -->
<g id="edge37" class="edge">
<title>index.js&#45;&gt;Keypair.js</title>
<path fill="none" stroke="#757575" d="M199.0041,-617.1131C211.08,-633.5146 232.0961,-662.1412 257,-679.5 265.4897,-685.4176 275.9102,-689.7558 285.4802,-693.3764"/>
<polygon fill="#757575" stroke="#757575" points="284.4356,-696.722 295.0285,-696.9257 286.8747,-690.1607 284.4356,-696.722"/>
</g>
<!-- Lock.js -->
<g id="node17" class="node">
<title>Lock.js</title>
<path fill="none" stroke="#ff6c60" d="M336.8333,-679C336.8333,-679 290.1667,-679 290.1667,-679 286.3333,-679 282.5,-675.1667 282.5,-671.3333 282.5,-671.3333 282.5,-663.6667 282.5,-663.6667 282.5,-659.8333 286.3333,-656 290.1667,-656 290.1667,-656 336.8333,-656 336.8333,-656 340.6667,-656 344.5,-659.8333 344.5,-663.6667 344.5,-663.6667 344.5,-671.3333 344.5,-671.3333 344.5,-675.1667 340.6667,-679 336.8333,-679"/>
<text text-anchor="middle" x="313.5" y="-663.8" font-family="Arial" font-size="14.00" fill="#ff6c60">Lock.js</text>
</g>
<!-- index.js&#45;&gt;Lock.js -->
<g id="edge38" class="edge">
<title>index.js&#45;&gt;Lock.js</title>
<path fill="none" stroke="#757575" d="M217.8164,-617.1252C229.7019,-623.9804 243.6995,-632.1814 257,-638.5 267.2916,-643.3892 279.1162,-647.755 289.2793,-651.8549"/>
<polygon fill="#757575" stroke="#757575" points="288.1972,-655.1976 298.7703,-655.8758 290.9279,-648.7521 288.1972,-655.1976"/>
</g>
<!-- Meta.js -->
<g id="node18" class="node">
<title>Meta.js</title>
<path fill="none" stroke="#ff6c60" d="M337.3333,-638C337.3333,-638 289.6667,-638 289.6667,-638 285.8333,-638 282,-634.1667 282,-630.3333 282,-630.3333 282,-622.6667 282,-622.6667 282,-618.8333 285.8333,-615 289.6667,-615 289.6667,-615 337.3333,-615 337.3333,-615 341.1667,-615 345,-618.8333 345,-622.6667 345,-622.6667 345,-630.3333 345,-630.3333 345,-634.1667 341.1667,-638 337.3333,-638"/>
<text text-anchor="middle" x="313.5" y="-622.8" font-family="Arial" font-size="14.00" fill="#ff6c60">Meta.js</text>
</g>
<!-- index.js&#45;&gt;Meta.js -->
<g id="edge39" class="edge">
<title>index.js&#45;&gt;Meta.js</title>
<path fill="none" stroke="#757575" d="M221.3022,-605.032C236.8173,-606.822 255.4387,-609.8187 271.872,-613.1364"/>
<polygon fill="#757575" stroke="#757575" points="271.2656,-616.5856 281.774,-615.2357 272.7174,-609.7378 271.2656,-616.5856"/>
</g>
<!-- Network.js -->
<g id="node19" class="node">
<title>Network.js</title>
<path fill="none" stroke="#ff6c60" d="M347.8333,-597C347.8333,-597 279.1667,-597 279.1667,-597 275.3333,-597 271.5,-593.1667 271.5,-589.3333 271.5,-589.3333 271.5,-581.6667 271.5,-581.6667 271.5,-577.8333 275.3333,-574 279.1667,-574 279.1667,-574 347.8333,-574 347.8333,-574 351.6667,-574 355.5,-577.8333 355.5,-581.6667 355.5,-581.6667 355.5,-589.3333 355.5,-589.3333 355.5,-593.1667 351.6667,-597 347.8333,-597"/>
<text text-anchor="middle" x="313.5" y="-581.8" font-family="Arial" font-size="14.00" fill="#ff6c60">Network.js</text>
</g>
<!-- index.js&#45;&gt;Network.js -->
<g id="edge40" class="edge">
<title>index.js&#45;&gt;Network.js</title>
<path fill="none" stroke="#757575" d="M221.3022,-594.1524C233.57,-591.5599 247.7798,-589.0875 261.3144,-587.1522"/>
<polygon fill="#757575" stroke="#757575" points="262.0452,-590.5855 271.4895,-585.7839 261.1122,-583.648 262.0452,-590.5855"/>
</g>
<!-- Pending.js -->
<g id="node20" class="node">
<title>Pending.js</title>
<path fill="none" stroke="#ff6c60" d="M348.3333,-556C348.3333,-556 278.6667,-556 278.6667,-556 274.8333,-556 271,-552.1667 271,-548.3333 271,-548.3333 271,-540.6667 271,-540.6667 271,-536.8333 274.8333,-533 278.6667,-533 278.6667,-533 348.3333,-533 348.3333,-533 352.1667,-533 356,-536.8333 356,-540.6667 356,-540.6667 356,-548.3333 356,-548.3333 356,-552.1667 352.1667,-556 348.3333,-556"/>
<text text-anchor="middle" x="313.5" y="-540.8" font-family="Arial" font-size="14.00" fill="#ff6c60">Pending.js</text>
</g>
<!-- index.js&#45;&gt;Pending.js -->
<g id="edge41" class="edge">
<title>index.js&#45;&gt;Pending.js</title>
<path fill="none" stroke="#757575" d="M196.6726,-593.9561C209.5024,-582.5868 234.4567,-567.1298 257,-556.5 258.5292,-555.7789 260.0905,-555.0652 261.6736,-554.3631"/>
<polygon fill="#757575" stroke="#757575" points="263.0359,-557.5872 270.9093,-550.4977 260.3333,-551.1299 263.0359,-557.5872"/>
</g>
<!-- Piercings.js -->
<g id="node21" class="node">
<title>Piercings.js</title>
<path fill="none" stroke="#ff6c60" d="M351.3333,-515C351.3333,-515 275.6667,-515 275.6667,-515 271.8333,-515 268,-511.1667 268,-507.3333 268,-507.3333 268,-499.6667 268,-499.6667 268,-495.8333 271.8333,-492 275.6667,-492 275.6667,-492 351.3333,-492 351.3333,-492 355.1667,-492 359,-495.8333 359,-499.6667 359,-499.6667 359,-507.3333 359,-507.3333 359,-511.1667 355.1667,-515 351.3333,-515"/>
<text text-anchor="middle" x="313.5" y="-499.8" font-family="Arial" font-size="14.00" fill="#ff6c60">Piercings.js</text>
</g>
<!-- index.js&#45;&gt;Piercings.js -->
<g id="edge42" class="edge">
<title>index.js&#45;&gt;Piercings.js</title>
<path fill="none" stroke="#757575" d="M192.1152,-593.9001C201.642,-574.2055 226.7287,-536.6817 257,-515.5 257.627,-515.0613 258.2642,-514.6305 258.9107,-514.2078"/>
<polygon fill="#757575" stroke="#757575" points="260.7872,-517.1669 267.7423,-509.1746 257.3212,-511.0852 260.7872,-517.1669"/>
</g>
<!-- Proof.js -->
<g id="node22" class="node">
<title>Proof.js</title>
<path fill="none" stroke="#ff6c60" d="M338.3333,-474C338.3333,-474 288.6667,-474 288.6667,-474 284.8333,-474 281,-470.1667 281,-466.3333 281,-466.3333 281,-458.6667 281,-458.6667 281,-454.8333 284.8333,-451 288.6667,-451 288.6667,-451 338.3333,-451 338.3333,-451 342.1667,-451 346,-454.8333 346,-458.6667 346,-458.6667 346,-466.3333 346,-466.3333 346,-470.1667 342.1667,-474 338.3333,-474"/>
<text text-anchor="middle" x="313.5" y="-458.8" font-family="Arial" font-size="14.00" fill="#ff6c60">Proof.js</text>
</g>
<!-- index.js&#45;&gt;Proof.js -->
<g id="edge43" class="edge">
<title>index.js&#45;&gt;Proof.js</title>
<path fill="none" stroke="#757575" d="M190.2098,-593.9071C196.7995,-567.9305 218.2987,-507.4944 257,-474.5 261.2804,-470.8508 266.254,-467.8083 271.4412,-465.3618"/>
<polygon fill="#757575" stroke="#757575" points="272.9053,-468.5462 280.9049,-461.5995 270.3193,-462.0414 272.9053,-468.5462"/>
</g>
<!-- Provenance.js -->
<g id="node23" class="node">
<title>Provenance.js</title>
<path fill="none" stroke="#ff6c60" d="M360.8333,-433C360.8333,-433 266.1667,-433 266.1667,-433 262.3333,-433 258.5,-429.1667 258.5,-425.3333 258.5,-425.3333 258.5,-417.6667 258.5,-417.6667 258.5,-413.8333 262.3333,-410 266.1667,-410 266.1667,-410 360.8333,-410 360.8333,-410 364.6667,-410 368.5,-413.8333 368.5,-417.6667 368.5,-417.6667 368.5,-425.3333 368.5,-425.3333 368.5,-429.1667 364.6667,-433 360.8333,-433"/>
<text text-anchor="middle" x="313.5" y="-417.8" font-family="Arial" font-size="14.00" fill="#ff6c60">Provenance.js</text>
</g>
<!-- index.js&#45;&gt;Provenance.js -->
<g id="edge44" class="edge">
<title>index.js&#45;&gt;Provenance.js</title>
<path fill="none" stroke="#757575" d="M189.1247,-593.705C192.9827,-563.911 207.8522,-487.285 251.1877,-439.615"/>
<polygon fill="#757575" stroke="#757575" points="253.9173,-441.829 258.3899,-432.2244 248.904,-436.9435 253.9173,-441.829"/>
</g>
<!-- PublicKey.js -->
<g id="node24" class="node">
<title>PublicKey.js</title>
<path fill="none" stroke="#cfffac" d="M353.3333,-392C353.3333,-392 273.6667,-392 273.6667,-392 269.8333,-392 266,-388.1667 266,-384.3333 266,-384.3333 266,-376.6667 266,-376.6667 266,-372.8333 269.8333,-369 273.6667,-369 273.6667,-369 353.3333,-369 353.3333,-369 357.1667,-369 361,-372.8333 361,-376.6667 361,-376.6667 361,-384.3333 361,-384.3333 361,-388.1667 357.1667,-392 353.3333,-392"/>
<text text-anchor="middle" x="313.5" y="-376.8" font-family="Arial" font-size="14.00" fill="#cfffac">PublicKey.js</text>
</g>
<!-- index.js&#45;&gt;PublicKey.js -->
<g id="edge45" class="edge">
<title>index.js&#45;&gt;PublicKey.js</title>
<path fill="none" stroke="#757575" d="M188.5857,-593.564C190.9158,-559.02 202.3127,-457.8363 257,-401.5 258.2528,-400.2094 259.592,-398.9975 261.0005,-397.8595"/>
<polygon fill="#757575" stroke="#757575" points="263.2847,-400.5456 269.7036,-392.1166 259.4293,-394.7029 263.2847,-400.5456"/>
</g>
<!-- Remote.js -->
<g id="node25" class="node">
<title>Remote.js</title>
<path fill="none" stroke="#ff6c60" d="M346.8333,-351C346.8333,-351 280.1667,-351 280.1667,-351 276.3333,-351 272.5,-347.1667 272.5,-343.3333 272.5,-343.3333 272.5,-335.6667 272.5,-335.6667 272.5,-331.8333 276.3333,-328 280.1667,-328 280.1667,-328 346.8333,-328 346.8333,-328 350.6667,-328 354.5,-331.8333 354.5,-335.6667 354.5,-335.6667 354.5,-343.3333 354.5,-343.3333 354.5,-347.1667 350.6667,-351 346.8333,-351"/>
<text text-anchor="middle" x="313.5" y="-335.8" font-family="Arial" font-size="14.00" fill="#ff6c60">Remote.js</text>
</g>
<!-- index.js&#45;&gt;Remote.js -->
<g id="edge46" class="edge">
<title>index.js&#45;&gt;Remote.js</title>
<path fill="none" stroke="#757575" d="M189.3924,-593.7077C195.7858,-548.1757 223.4556,-387.8901 257,-351.5 258.9948,-349.336 261.2333,-347.394 263.6377,-345.6632"/>
<polygon fill="#757575" stroke="#757575" points="265.4722,-348.6451 272.3397,-340.5774 261.9401,-342.6015 265.4722,-348.6451"/>
</g>
<!-- RxReply.js -->
<g id="node26" class="node">
<title>RxReply.js</title>
<path fill="none" stroke="#cfffac" d="M348.8333,-310C348.8333,-310 278.1667,-310 278.1667,-310 274.3333,-310 270.5,-306.1667 270.5,-302.3333 270.5,-302.3333 270.5,-294.6667 270.5,-294.6667 270.5,-290.8333 274.3333,-287 278.1667,-287 278.1667,-287 348.8333,-287 348.8333,-287 352.6667,-287 356.5,-290.8333 356.5,-294.6667 356.5,-294.6667 356.5,-302.3333 356.5,-302.3333 356.5,-306.1667 352.6667,-310 348.8333,-310"/>
<text text-anchor="middle" x="313.5" y="-294.8" font-family="Arial" font-size="14.00" fill="#cfffac">RxReply.js</text>
</g>
<!-- index.js&#45;&gt;RxReply.js -->
<g id="edge47" class="edge">
<title>index.js&#45;&gt;RxReply.js</title>
<path fill="none" stroke="#757575" d="M189.3366,-593.9496C195.1149,-545.84 219.3675,-361.9054 257,-319.5 258.5238,-317.783 260.2013,-316.206 261.995,-314.7577"/>
<polygon fill="#757575" stroke="#757575" points="264.039,-317.6029 270.4873,-309.1964 260.2041,-311.7468 264.039,-317.6029"/>
</g>
<!-- RxRequest.js -->
<g id="node27" class="node">
<title>RxRequest.js</title>
<path fill="none" stroke="#ff6c60" d="M357.8333,-269C357.8333,-269 269.1667,-269 269.1667,-269 265.3333,-269 261.5,-265.1667 261.5,-261.3333 261.5,-261.3333 261.5,-253.6667 261.5,-253.6667 261.5,-249.8333 265.3333,-246 269.1667,-246 269.1667,-246 357.8333,-246 357.8333,-246 361.6667,-246 365.5,-249.8333 365.5,-253.6667 365.5,-253.6667 365.5,-261.3333 365.5,-261.3333 365.5,-265.1667 361.6667,-269 357.8333,-269"/>
<text text-anchor="middle" x="313.5" y="-253.8" font-family="Arial" font-size="14.00" fill="#ff6c60">RxRequest.js</text>
</g>
<!-- index.js&#45;&gt;RxRequest.js -->
<g id="edge48" class="edge">
<title>index.js&#45;&gt;RxRequest.js</title>
<path fill="none" stroke="#757575" d="M188.7458,-593.7762C192.638,-542.2626 211.9608,-339.0502 255.2034,-273.4162"/>
<polygon fill="#757575" stroke="#757575" points="258.247,-275.1926 261.4647,-265.0982 252.6544,-270.9827 258.247,-275.1926"/>
</g>
<!-- Signature.js -->
<g id="node28" class="node">
<title>Signature.js</title>
<path fill="none" stroke="#cfffac" d="M352.3333,-228C352.3333,-228 274.6667,-228 274.6667,-228 270.8333,-228 267,-224.1667 267,-220.3333 267,-220.3333 267,-212.6667 267,-212.6667 267,-208.8333 270.8333,-205 274.6667,-205 274.6667,-205 352.3333,-205 352.3333,-205 356.1667,-205 360,-208.8333 360,-212.6667 360,-212.6667 360,-220.3333 360,-220.3333 360,-224.1667 356.1667,-228 352.3333,-228"/>
<text text-anchor="middle" x="313.5" y="-212.8" font-family="Arial" font-size="14.00" fill="#cfffac">Signature.js</text>
</g>
<!-- index.js&#45;&gt;Signature.js -->
<g id="edge49" class="edge">
<title>index.js&#45;&gt;Signature.js</title>
<path fill="none" stroke="#757575" d="M188.6708,-593.8376C192.1319,-537.4692 209.6725,-293.6728 257,-237.5 257.9903,-236.3246 259.053,-235.2149 260.1765,-234.1673"/>
<polygon fill="#757575" stroke="#757575" points="262.3963,-236.8787 268.3507,-228.1154 258.231,-231.2528 262.3963,-236.8787"/>
</g>
<!-- Timestamp.js -->
<g id="node29" class="node">
<title>Timestamp.js</title>
<path fill="none" stroke="#cfffac" d="M356.8333,-187C356.8333,-187 270.1667,-187 270.1667,-187 266.3333,-187 262.5,-183.1667 262.5,-179.3333 262.5,-179.3333 262.5,-171.6667 262.5,-171.6667 262.5,-167.8333 266.3333,-164 270.1667,-164 270.1667,-164 356.8333,-164 356.8333,-164 360.6667,-164 364.5,-167.8333 364.5,-171.6667 364.5,-171.6667 364.5,-179.3333 364.5,-179.3333 364.5,-183.1667 360.6667,-187 356.8333,-187"/>
<text text-anchor="middle" x="313.5" y="-171.8" font-family="Arial" font-size="14.00" fill="#cfffac">Timestamp.js</text>
</g>
<!-- index.js&#45;&gt;Timestamp.js -->
<g id="edge51" class="edge">
<title>index.js&#45;&gt;Timestamp.js</title>
<path fill="none" stroke="#757575" d="M188.4341,-593.7682C190.8843,-533.5568 204.7948,-259.6201 257,-196.5 257.9796,-195.3156 259.0327,-194.198 260.1478,-193.1434"/>
<polygon fill="#757575" stroke="#757575" points="262.3714,-195.851 268.2819,-187.058 258.1781,-190.2459 262.3714,-195.851"/>
</g>
<!-- Turnover.js -->
<g id="node30" class="node">
<title>Turnover.js</title>
<path fill="none" stroke="#ff6c60" d="M349.8333,-146C349.8333,-146 277.1667,-146 277.1667,-146 273.3333,-146 269.5,-142.1667 269.5,-138.3333 269.5,-138.3333 269.5,-130.6667 269.5,-130.6667 269.5,-126.8333 273.3333,-123 277.1667,-123 277.1667,-123 349.8333,-123 349.8333,-123 353.6667,-123 357.5,-126.8333 357.5,-130.6667 357.5,-130.6667 357.5,-138.3333 357.5,-138.3333 357.5,-142.1667 353.6667,-146 349.8333,-146"/>
<text text-anchor="middle" x="313.5" y="-130.8" font-family="Arial" font-size="14.00" fill="#ff6c60">Turnover.js</text>
</g>
<!-- index.js&#45;&gt;Turnover.js -->
<g id="edge52" class="edge">
<title>index.js&#45;&gt;Turnover.js</title>
<path fill="none" stroke="#757575" d="M188.1789,-593.9493C189.4743,-529.4088 199.0974,-217.5864 257,-146.5 258.1586,-145.0776 259.4235,-143.7515 260.7747,-142.5181"/>
<polygon fill="#757575" stroke="#757575" points="263.1969,-145.0904 269.3178,-136.4425 259.14,-139.3858 263.1969,-145.0904"/>
</g>
<!-- TxReply.js -->
<g id="node32" class="node">
<title>TxReply.js</title>
<path fill="none" stroke="#ff6c60" d="M347.8333,-105C347.8333,-105 279.1667,-105 279.1667,-105 275.3333,-105 271.5,-101.1667 271.5,-97.3333 271.5,-97.3333 271.5,-89.6667 271.5,-89.6667 271.5,-85.8333 275.3333,-82 279.1667,-82 279.1667,-82 347.8333,-82 347.8333,-82 351.6667,-82 355.5,-85.8333 355.5,-89.6667 355.5,-89.6667 355.5,-97.3333 355.5,-97.3333 355.5,-101.1667 351.6667,-105 347.8333,-105"/>
<text text-anchor="middle" x="313.5" y="-89.8" font-family="Arial" font-size="14.00" fill="#ff6c60">TxReply.js</text>
</g>
<!-- index.js&#45;&gt;TxReply.js -->
<g id="edge53" class="edge">
<title>index.js&#45;&gt;TxReply.js</title>
<path fill="none" stroke="#757575" d="M188.742,-593.9876C193.9258,-522.4803 225.4425,-144.7425 257,-105.5 258.6928,-103.395 260.6186,-101.501 262.7133,-99.8061"/>
<polygon fill="#757575" stroke="#757575" points="264.9281,-102.5457 271.4936,-94.2304 261.1756,-96.6365 264.9281,-102.5457"/>
</g>
<!-- TxRequest.js -->
<g id="node33" class="node">
<title>TxRequest.js</title>
<path fill="none" stroke="#ff6c60" d="M356.8333,-64C356.8333,-64 270.1667,-64 270.1667,-64 266.3333,-64 262.5,-60.1667 262.5,-56.3333 262.5,-56.3333 262.5,-48.6667 262.5,-48.6667 262.5,-44.8333 266.3333,-41 270.1667,-41 270.1667,-41 356.8333,-41 356.8333,-41 360.6667,-41 364.5,-44.8333 364.5,-48.6667 364.5,-48.6667 364.5,-56.3333 364.5,-56.3333 364.5,-60.1667 360.6667,-64 356.8333,-64"/>
<text text-anchor="middle" x="313.5" y="-48.8" font-family="Arial" font-size="14.00" fill="#ff6c60">TxRequest.js</text>
</g>
<!-- index.js&#45;&gt;TxRequest.js -->
<g id="edge54" class="edge">
<title>index.js&#45;&gt;TxRequest.js</title>
<path fill="none" stroke="#757575" d="M188.6591,-593.6948C193.1812,-521.4676 220.3996,-143.4653 257.0204,-67.7585"/>
<polygon fill="#757575" stroke="#757575" points="260.0516,-69.51 262.2488,-59.1455 254.0678,-65.8776 260.0516,-69.51"/>
</g>
<!-- Validators.js -->
<g id="node34" class="node">
<title>Validators.js</title>
<path fill="none" stroke="#ff6c60" d="M353.3333,-23C353.3333,-23 273.6667,-23 273.6667,-23 269.8333,-23 266,-19.1667 266,-15.3333 266,-15.3333 266,-7.6667 266,-7.6667 266,-3.8333 269.8333,0 273.6667,0 273.6667,0 353.3333,0 353.3333,0 357.1667,0 361,-3.8333 361,-7.6667 361,-7.6667 361,-15.3333 361,-15.3333 361,-19.1667 357.1667,-23 353.3333,-23"/>
<text text-anchor="middle" x="313.5" y="-7.8" font-family="Arial" font-size="14.00" fill="#ff6c60">Validators.js</text>
</g>
<!-- index.js&#45;&gt;Validators.js -->
<g id="edge55" class="edge">
<title>index.js&#45;&gt;Validators.js</title>
<path fill="none" stroke="#757575" d="M188.5541,-593.9631C192.7607,-515.8256 220.4879,-69.8342 257,-23.5 257.3947,-22.9991 257.8026,-22.5102 258.2229,-22.0331"/>
<polygon fill="#757575" stroke="#757575" points="260.7163,-24.5036 265.9793,-15.3084 256.1308,-19.2146 260.7163,-24.5036"/>
</g>
<!-- Action.js&#45;&gt;State.js -->
<g id="edge2" class="edge">
<title>Action.js&#45;&gt;State.js</title>
<path fill="none" stroke="#757575" d="M349.32,-1192.7688C363.7396,-1190.4617 380.4917,-1187.7813 395.5577,-1185.3708"/>
<polygon fill="#757575" stroke="#757575" points="396.3478,-1188.789 405.6692,-1183.7529 395.2418,-1181.8769 396.3478,-1188.789"/>
</g>
<!-- Address.js&#45;&gt;index.js -->
<g id="edge3" class="edge">
<title>Address.js&#45;&gt;index.js</title>
<path fill="none" stroke="#757575" d="M270.9566,-1118.2613C265.6336,-1115.6335 260.7516,-1112.0938 257,-1107.5 226.3007,-1069.9087 196.3504,-718.7053 189.4714,-627.1194"/>
<polygon fill="#757575" stroke="#757575" points="192.9554,-626.7729 188.7326,-617.056 185.9742,-627.2855 192.9554,-626.7729"/>
</g>
<!-- Binary.js&#45;&gt;index.js -->
<g id="edge4" class="edge">
<title>Binary.js&#45;&gt;index.js</title>
<path fill="none" stroke="#757575" d="M277.9203,-1080.0598C270.0005,-1077.3819 262.3717,-1072.9948 257,-1066.5 200.9493,-998.73 190.2348,-709.6555 188.3669,-627.3067"/>
<polygon fill="#757575" stroke="#757575" points="191.862,-627.0298 188.1582,-617.1035 184.8635,-627.173 191.862,-627.0298"/>
</g>
<!-- Block.js&#45;&gt;index.js -->
<g id="edge5" class="edge">
<title>Block.js&#45;&gt;index.js</title>
<path fill="none" stroke="#757575" d="M279.7518,-1039.5706C271.2112,-1036.9635 262.8212,-1032.4329 257,-1025.5 205.7821,-964.501 191.6258,-704.4175 188.6666,-627.0877"/>
<polygon fill="#757575" stroke="#757575" points="192.1629,-626.9185 188.3082,-617.0498 185.1673,-627.1684 192.1629,-626.9185"/>
</g>
<!-- Channel.js&#45;&gt;index.js -->
<g id="edge6" class="edge">
<title>Channel.js&#45;&gt;index.js</title>
<path fill="none" stroke="#757575" d="M270.3024,-994.6863C265.277,-992.1292 260.6518,-988.7704 257,-984.5 210.7429,-930.4073 193.2465,-700.447 189.0587,-627.556"/>
<polygon fill="#757575" stroke="#757575" points="192.5366,-627.0521 188.4985,-617.257 185.5469,-627.4324 192.5366,-627.0521"/>
</g>
<!-- CovenantId.js&#45;&gt;index.js -->
<g id="edge7" class="edge">
<title>CovenantId.js&#45;&gt;index.js</title>
<path fill="none" stroke="#757575" d="M260.1548,-864.525C259.0493,-863.5722 257.9946,-862.5644 257,-861.5 225.0778,-827.3363 199.0912,-682.9732 190.7877,-627.2583"/>
<polygon fill="#757575" stroke="#757575" points="194.2109,-626.4725 189.3271,-617.0704 187.2817,-627.4659 194.2109,-626.4725"/>
</g>
<!-- Dmz.js&#45;&gt;index.js -->
<g id="edge8" class="edge">
<title>Dmz.js&#45;&gt;index.js</title>
<path fill="none" stroke="#757575" d="M282.7904,-834.6228C273.4975,-832.1206 263.9302,-827.5491 257,-820.5 203.9725,-766.5626 191.6822,-670.7152 188.8458,-627.3931"/>
<polygon fill="#757575" stroke="#757575" points="192.3368,-627.1313 188.2993,-617.336 185.3471,-627.5112 192.3368,-627.1313"/>
</g>
<!-- Interblock.js&#45;&gt;index.js -->
<g id="edge9" class="edge">
<title>Interblock.js&#45;&gt;index.js</title>
<path fill="none" stroke="#757575" d="M266.3768,-744.9072C263.0349,-743.0512 259.8612,-740.9178 257,-738.5 221.9736,-708.9008 201.4037,-656.7877 192.7855,-627.09"/>
<polygon fill="#757575" stroke="#757575" points="196.1166,-625.9988 190.1465,-617.2462 189.3553,-627.8114 196.1166,-625.9988"/>
</g>
<!-- Keypair.js&#45;&gt;index.js -->
<g id="edge10" class="edge">
<title>Keypair.js&#45;&gt;index.js</title>
<path fill="none" stroke="#757575" d="M273.2717,-706.2033C267.5589,-703.865 261.9511,-700.9511 257,-697.5 230.3252,-678.9068 208.1109,-647.3865 196.5654,-626.2029"/>
<polygon fill="#757575" stroke="#757575" points="199.5489,-624.3473 191.9074,-617.0085 193.3045,-627.5108 199.5489,-624.3473"/>
</g>
<!-- Lock.js&#45;&gt;index.js -->
<g id="edge11" class="edge">
<title>Lock.js&#45;&gt;index.js</title>
<path fill="none" stroke="#757575" d="M282.2437,-666.4012C273.9016,-663.7752 264.9889,-660.2953 257,-656.5 238.0884,-647.5157 217.7672,-634.7258 204.1127,-623.8397"/>
<polygon fill="#757575" stroke="#757575" points="206.0478,-620.8876 196.1842,-617.0199 201.4831,-626.1945 206.0478,-620.8876"/>
</g>
<!-- Meta.js&#45;&gt;index.js -->
<g id="edge12" class="edge">
<title>Meta.js&#45;&gt;index.js</title>
<path fill="none" stroke="#757575" d="M281.613,-627.1288C266.2477,-625.4085 247.5949,-622.447 230.9958,-619.138"/>
<polygon fill="#757575" stroke="#757575" points="231.4785,-615.6633 220.9736,-617.0408 230.0447,-622.5149 231.4785,-615.6633"/>
</g>
<!-- Network.js&#45;&gt;index.js -->
<g id="edge13" class="edge">
<title>Network.js&#45;&gt;index.js</title>
<path fill="none" stroke="#757575" d="M279.1664,-597.0643C264.3854,-600.1527 246.9377,-603.0531 231.2839,-605.0548"/>
<polygon fill="#757575" stroke="#757575" points="230.8228,-601.5848 221.3022,-606.2333 231.6436,-608.5365 230.8228,-601.5848"/>
</g>
<!-- Pending.js&#45;&gt;index.js -->
<g id="edge14" class="edge">
<title>Pending.js&#45;&gt;index.js</title>
<path fill="none" stroke="#757575" d="M299.764,-556.0658C288.1553,-561.7462 271.1978,-567.8053 257,-574.5 247.7009,-578.8848 237.9915,-584.091 228.8922,-589.0536"/>
<polygon fill="#757575" stroke="#757575" points="227.1299,-586.0281 220.0339,-593.8956 230.4874,-592.1704 227.1299,-586.0281"/>
</g>
<!-- Piercings.js&#45;&gt;index.js -->
<g id="edge15" class="edge">
<title>Piercings.js&#45;&gt;index.js</title>
<path fill="none" stroke="#757575" d="M296.0956,-515.0851C284.3261,-519.7651 268.8322,-525.2207 257,-533.5 236.5669,-547.7976 218.496,-569.5411 205.9782,-585.5816"/>
<polygon fill="#757575" stroke="#757575" points="202.9564,-583.7683 199.6155,-593.8226 208.4971,-588.0462 202.9564,-583.7683"/>
</g>
<!-- Proof.js&#45;&gt;index.js -->
<g id="edge16" class="edge">
<title>Proof.js&#45;&gt;index.js</title>
<path fill="none" stroke="#757575" d="M293.7046,-474.0636C281.9825,-478.3157 267.4321,-483.6062 257,-492.5 227.3794,-517.7527 207.8356,-559.0802 197.3405,-584.3388"/>
<polygon fill="#757575" stroke="#757575" points="194.0266,-583.1973 193.5151,-593.7798 200.5143,-585.826 194.0266,-583.1973"/>
</g>
<!-- Provenance.js&#45;&gt;index.js -->
<g id="edge17" class="edge">
<title>Provenance.js&#45;&gt;index.js</title>
<path fill="none" stroke="#757575" d="M292.2354,-433.0268C280.5849,-437.0742 266.6047,-442.3143 257,-451.5 218.292,-488.5196 200.3073,-550.689 192.7703,-583.7608"/>
<polygon fill="#757575" stroke="#757575" points="189.2959,-583.2683 190.6,-593.7825 196.1373,-584.7499 189.2959,-583.2683"/>
</g>
<!-- Remote.js&#45;&gt;index.js -->
<g id="edge18" class="edge">
<title>Remote.js&#45;&gt;index.js</title>
<path fill="none" stroke="#757575" d="M290.3776,-351.0478C278.8905,-354.9035 265.6531,-360.1129 257,-369.5 227.221,-401.8052 202.0718,-531.7519 192.3279,-583.9376"/>
<polygon fill="#757575" stroke="#757575" points="188.8757,-583.3584 190.4864,-593.83 195.7575,-584.6395 188.8757,-583.3584"/>
</g>
<!-- RxRequest.js&#45;&gt;index.js -->
<g id="edge19" class="edge">
<title>RxRequest.js&#45;&gt;index.js</title>
<path fill="none" stroke="#757575" d="M289.5471,-269.0031C278.1263,-272.7799 265.1992,-277.9887 257,-287.5 217.7776,-332.999 196.8626,-518.8332 190.3001,-583.45"/>
<polygon fill="#757575" stroke="#757575" points="186.7854,-583.4227 189.2724,-593.7215 193.7507,-584.1196 186.7854,-583.4227"/>
</g>
<!-- Turnover.js&#45;&gt;index.js -->
<g id="edge20" class="edge">
<title>Turnover.js&#45;&gt;index.js</title>
<path fill="none" stroke="#757575" d="M288.7446,-146.0002C277.4119,-149.7162 264.7985,-154.9259 257,-164.5 203.3578,-230.3559 191.1518,-502.825 188.616,-583.2287"/>
<polygon fill="#757575" stroke="#757575" points="185.105,-583.5515 188.3083,-593.6505 192.102,-583.7582 185.105,-583.5515"/>
</g>
<!-- Tx.js -->
<g id="node31" class="node">
<title>Tx.js</title>
<path fill="none" stroke="#cfffac" d="M78.8333,-658C78.8333,-658 40.1667,-658 40.1667,-658 36.3333,-658 32.5,-654.1667 32.5,-650.3333 32.5,-650.3333 32.5,-642.6667 32.5,-642.6667 32.5,-638.8333 36.3333,-635 40.1667,-635 40.1667,-635 78.8333,-635 78.8333,-635 82.6667,-635 86.5,-638.8333 86.5,-642.6667 86.5,-642.6667 86.5,-650.3333 86.5,-650.3333 86.5,-654.1667 82.6667,-658 78.8333,-658"/>
<text text-anchor="middle" x="59.5" y="-642.8" font-family="Arial" font-size="14.00" fill="#cfffac">Tx.js</text>
</g>
<!-- TxReply.js&#45;&gt;index.js -->
<g id="edge21" class="edge">
<title>TxReply.js&#45;&gt;index.js</title>
<path fill="none" stroke="#757575" d="M288.4035,-105.0523C277.1337,-108.7524 264.6728,-113.9587 257,-123.5 227.4482,-160.2484 197.9321,-493.8327 190.0427,-583.5193"/>
<polygon fill="#757575" stroke="#757575" points="186.5417,-583.3777 189.1508,-593.6462 193.5148,-583.9919 186.5417,-583.3777"/>
</g>
<!-- TxRequest.js&#45;&gt;index.js -->
<g id="edge22" class="edge">
<title>TxRequest.js&#45;&gt;index.js</title>
<path fill="none" stroke="#757575" d="M288.3585,-64.0163C277.0785,-67.7082 264.6219,-72.9181 257,-82.5 224.9648,-122.7732 196.8144,-490.0388 189.7188,-583.8745"/>
<polygon fill="#757575" stroke="#757575" points="186.2231,-583.6866 188.959,-593.922 193.2032,-584.2145 186.2231,-583.6866"/>
</g>
<!-- Validators.js&#45;&gt;index.js -->
<g id="edge23" class="edge">
<title>Validators.js&#45;&gt;index.js</title>
<path fill="none" stroke="#757575" d="M288.03,-23.0804C276.8184,-26.7599 264.5133,-31.9655 257,-41.5 222.5147,-85.2623 195.8659,-485.5443 189.4695,-583.8757"/>
<polygon fill="#757575" stroke="#757575" points="185.9765,-583.6557 188.8209,-593.8615 192.9618,-584.1095 185.9765,-583.6557"/>
</g>
</g>
</svg>
